<?xml version="1.0" encoding="utf-8" standalone="no"?>
<!DOCTYPE svg PUBLIC "-//W3C//DTD SVG 1.1//EN"
  "http://www.w3.org/Graphics/SVG/1.1/DTD/svg11.dtd">
<svg xmlns:xlink="http://www.w3.org/1999/xlink" width="584.333063pt" height="183.589667pt" viewBox="0 0 584.333063 183.589667" xmlns="http://www.w3.org/2000/svg" version="1.1">
 <metadata>
  <rdf:RDF xmlns:dc="http://purl.org/dc/elements/1.1/" xmlns:cc="http://creativecommons.org/ns#" xmlns:rdf="http://www.w3.org/1999/02/22-rdf-syntax-ns#">
   <cc:Work>
    <dc:type rdf:resource="http://purl.org/dc/dcmitype/StillImage"/>
    <dc:date>2025-05-09T09:31:51.268222</dc:date>
    <dc:format>image/svg+xml</dc:format>
    <dc:creator>
     <cc:Agent>
      <dc:title>Matplotlib v3.10.1, https://matplotlib.org/</dc:title>
     </cc:Agent>
    </dc:creator>
   </cc:Work>
  </rdf:RDF>
 </metadata>
 <defs>
  <style type="text/css">*{stroke-linejoin: round; stroke-linecap: butt}</style>
 </defs>
 <g id="figure_1">
  <g id="patch_1">
   <path d="M 0 183.589667 
L 584.333063 183.589667 
L 584.333063 0 
L 0 0 
L 0 183.589667 
z
" style="fill: none"/>
  </g>
  <g id="axes_1">
   <g id="patch_2">
    <path d="M 29.468125 151.469042 
L 160.13873 151.469042 
L 160.13873 20.798437 
L 29.468125 20.798437 
L 29.468125 151.469042 
z
" style="fill: none"/>
   </g>
   <g id="matplotlib.axis_1">
    <g id="xtick_1">
     <g id="line2d_1"/>
     <g id="text_1">
      <!-- 0 -->
      <g style="fill: #293552" transform="translate(32.862698 161.047792) scale(0.08 -0.08)">
       <defs>
        <path id="DejaVuSans-30" d="M 2034 4250 
Q 1547 4250 1301 3770 
Q 1056 3291 1056 2328 
Q 1056 1369 1301 889 
Q 1547 409 2034 409 
Q 2525 409 2770 889 
Q 3016 1369 3016 2328 
Q 3016 3291 2770 3770 
Q 2525 4250 2034 4250 
z
M 2034 4750 
Q 2819 4750 3233 4129 
Q 3647 3509 3647 2328 
Q 3647 1150 3233 529 
Q 2819 -91 2034 -91 
Q 1250 -91 836 529 
Q 422 1150 422 2328 
Q 422 3509 836 4129 
Q 1250 4750 2034 4750 
z
" transform="scale(0.015625)"/>
       </defs>
       <use xlink:href="#DejaVuSans-30"/>
      </g>
     </g>
    </g>
    <g id="xtick_2">
     <g id="line2d_2"/>
     <g id="text_2">
      <!-- 127 -->
      <g style="fill: #293552" transform="translate(146.564157 161.047792) scale(0.08 -0.08)">
       <defs>
        <path id="DejaVuSans-31" d="M 794 531 
L 1825 531 
L 1825 4091 
L 703 3866 
L 703 4441 
L 1819 4666 
L 2450 4666 
L 2450 531 
L 3481 531 
L 3481 0 
L 794 0 
L 794 531 
z
" transform="scale(0.015625)"/>
        <path id="DejaVuSans-32" d="M 1228 531 
L 3431 531 
L 3431 0 
L 469 0 
L 469 531 
Q 828 903 1448 1529 
Q 2069 2156 2228 2338 
Q 2531 2678 2651 2914 
Q 2772 3150 2772 3378 
Q 2772 3750 2511 3984 
Q 2250 4219 1831 4219 
Q 1534 4219 1204 4116 
Q 875 4013 500 3803 
L 500 4441 
Q 881 4594 1212 4672 
Q 1544 4750 1819 4750 
Q 2544 4750 2975 4387 
Q 3406 4025 3406 3419 
Q 3406 3131 3298 2873 
Q 3191 2616 2906 2266 
Q 2828 2175 2409 1742 
Q 1991 1309 1228 531 
z
" transform="scale(0.015625)"/>
        <path id="DejaVuSans-37" d="M 525 4666 
L 3525 4666 
L 3525 4397 
L 1831 0 
L 1172 0 
L 2766 4134 
L 525 4134 
L 525 4666 
z
" transform="scale(0.015625)"/>
       </defs>
       <use xlink:href="#DejaVuSans-31"/>
       <use xlink:href="#DejaVuSans-32" transform="translate(63.623047 0)"/>
       <use xlink:href="#DejaVuSans-37" transform="translate(127.246094 0)"/>
      </g>
     </g>
    </g>
    <g id="text_3">
     <!-- input velocity -->
     <g style="fill: #293552" transform="translate(60.81124 174.30998) scale(0.1 -0.1)">
      <defs>
       <path id="DejaVuSans-69" d="M 603 3500 
L 1178 3500 
L 1178 0 
L 603 0 
L 603 3500 
z
M 603 4863 
L 1178 4863 
L 1178 4134 
L 603 4134 
L 603 4863 
z
" transform="scale(0.015625)"/>
       <path id="DejaVuSans-6e" d="M 3513 2113 
L 3513 0 
L 2938 0 
L 2938 2094 
Q 2938 2591 2744 2837 
Q 2550 3084 2163 3084 
Q 1697 3084 1428 2787 
Q 1159 2491 1159 1978 
L 1159 0 
L 581 0 
L 581 3500 
L 1159 3500 
L 1159 2956 
Q 1366 3272 1645 3428 
Q 1925 3584 2291 3584 
Q 2894 3584 3203 3211 
Q 3513 2838 3513 2113 
z
" transform="scale(0.015625)"/>
       <path id="DejaVuSans-70" d="M 1159 525 
L 1159 -1331 
L 581 -1331 
L 581 3500 
L 1159 3500 
L 1159 2969 
Q 1341 3281 1617 3432 
Q 1894 3584 2278 3584 
Q 2916 3584 3314 3078 
Q 3713 2572 3713 1747 
Q 3713 922 3314 415 
Q 2916 -91 2278 -91 
Q 1894 -91 1617 61 
Q 1341 213 1159 525 
z
M 3116 1747 
Q 3116 2381 2855 2742 
Q 2594 3103 2138 3103 
Q 1681 3103 1420 2742 
Q 1159 2381 1159 1747 
Q 1159 1113 1420 752 
Q 1681 391 2138 391 
Q 2594 391 2855 752 
Q 3116 1113 3116 1747 
z
" transform="scale(0.015625)"/>
       <path id="DejaVuSans-75" d="M 544 1381 
L 544 3500 
L 1119 3500 
L 1119 1403 
Q 1119 906 1312 657 
Q 1506 409 1894 409 
Q 2359 409 2629 706 
Q 2900 1003 2900 1516 
L 2900 3500 
L 3475 3500 
L 3475 0 
L 2900 0 
L 2900 538 
Q 2691 219 2414 64 
Q 2138 -91 1772 -91 
Q 1169 -91 856 284 
Q 544 659 544 1381 
z
M 1991 3584 
L 1991 3584 
z
" transform="scale(0.015625)"/>
       <path id="DejaVuSans-74" d="M 1172 4494 
L 1172 3500 
L 2356 3500 
L 2356 3053 
L 1172 3053 
L 1172 1153 
Q 1172 725 1289 603 
Q 1406 481 1766 481 
L 2356 481 
L 2356 0 
L 1766 0 
Q 1100 0 847 248 
Q 594 497 594 1153 
L 594 3053 
L 172 3053 
L 172 3500 
L 594 3500 
L 594 4494 
L 1172 4494 
z
" transform="scale(0.015625)"/>
       <path id="DejaVuSans-20" transform="scale(0.015625)"/>
       <path id="DejaVuSans-76" d="M 191 3500 
L 800 3500 
L 1894 563 
L 2988 3500 
L 3597 3500 
L 2284 0 
L 1503 0 
L 191 3500 
z
" transform="scale(0.015625)"/>
       <path id="DejaVuSans-65" d="M 3597 1894 
L 3597 1613 
L 953 1613 
Q 991 1019 1311 708 
Q 1631 397 2203 397 
Q 2534 397 2845 478 
Q 3156 559 3463 722 
L 3463 178 
Q 3153 47 2828 -22 
Q 2503 -91 2169 -91 
Q 1331 -91 842 396 
Q 353 884 353 1716 
Q 353 2575 817 3079 
Q 1281 3584 2069 3584 
Q 2775 3584 3186 3129 
Q 3597 2675 3597 1894 
z
M 3022 2063 
Q 3016 2534 2758 2815 
Q 2500 3097 2075 3097 
Q 1594 3097 1305 2825 
Q 1016 2553 972 2059 
L 3022 2063 
z
" transform="scale(0.015625)"/>
       <path id="DejaVuSans-6c" d="M 603 4863 
L 1178 4863 
L 1178 0 
L 603 0 
L 603 4863 
z
" transform="scale(0.015625)"/>
       <path id="DejaVuSans-6f" d="M 1959 3097 
Q 1497 3097 1228 2736 
Q 959 2375 959 1747 
Q 959 1119 1226 758 
Q 1494 397 1959 397 
Q 2419 397 2687 759 
Q 2956 1122 2956 1747 
Q 2956 2369 2687 2733 
Q 2419 3097 1959 3097 
z
M 1959 3584 
Q 2709 3584 3137 3096 
Q 3566 2609 3566 1747 
Q 3566 888 3137 398 
Q 2709 -91 1959 -91 
Q 1206 -91 779 398 
Q 353 888 353 1747 
Q 353 2609 779 3096 
Q 1206 3584 1959 3584 
z
" transform="scale(0.015625)"/>
       <path id="DejaVuSans-63" d="M 3122 3366 
L 3122 2828 
Q 2878 2963 2633 3030 
Q 2388 3097 2138 3097 
Q 1578 3097 1268 2742 
Q 959 2388 959 1747 
Q 959 1106 1268 751 
Q 1578 397 2138 397 
Q 2388 397 2633 464 
Q 2878 531 3122 666 
L 3122 134 
Q 2881 22 2623 -34 
Q 2366 -91 2075 -91 
Q 1284 -91 818 406 
Q 353 903 353 1747 
Q 353 2603 823 3093 
Q 1294 3584 2113 3584 
Q 2378 3584 2631 3529 
Q 2884 3475 3122 3366 
z
" transform="scale(0.015625)"/>
       <path id="DejaVuSans-79" d="M 2059 -325 
Q 1816 -950 1584 -1140 
Q 1353 -1331 966 -1331 
L 506 -1331 
L 506 -850 
L 844 -850 
Q 1081 -850 1212 -737 
Q 1344 -625 1503 -206 
L 1606 56 
L 191 3500 
L 800 3500 
L 1894 763 
L 2988 3500 
L 3597 3500 
L 2059 -325 
z
" transform="scale(0.015625)"/>
      </defs>
      <use xlink:href="#DejaVuSans-69"/>
      <use xlink:href="#DejaVuSans-6e" transform="translate(27.783203 0)"/>
      <use xlink:href="#DejaVuSans-70" transform="translate(91.162109 0)"/>
      <use xlink:href="#DejaVuSans-75" transform="translate(154.638672 0)"/>
      <use xlink:href="#DejaVuSans-74" transform="translate(218.017578 0)"/>
      <use xlink:href="#DejaVuSans-20" transform="translate(257.226562 0)"/>
      <use xlink:href="#DejaVuSans-76" transform="translate(289.013672 0)"/>
      <use xlink:href="#DejaVuSans-65" transform="translate(348.193359 0)"/>
      <use xlink:href="#DejaVuSans-6c" transform="translate(409.716797 0)"/>
      <use xlink:href="#DejaVuSans-6f" transform="translate(437.5 0)"/>
      <use xlink:href="#DejaVuSans-63" transform="translate(498.681641 0)"/>
      <use xlink:href="#DejaVuSans-69" transform="translate(553.662109 0)"/>
      <use xlink:href="#DejaVuSans-74" transform="translate(581.445312 0)"/>
      <use xlink:href="#DejaVuSans-79" transform="translate(620.654297 0)"/>
     </g>
    </g>
   </g>
   <g id="matplotlib.axis_2">
    <g id="ytick_1">
     <g id="line2d_3"/>
     <g id="text_4">
      <!-- 0 -->
      <g style="fill: #293552" transform="translate(20.878125 148.568844) scale(0.08 -0.08)">
       <use xlink:href="#DejaVuSans-30"/>
      </g>
     </g>
    </g>
    <g id="ytick_2">
     <g id="line2d_4"/>
     <g id="text_5">
      <!-- 1 -->
      <g style="fill: #293552" transform="translate(20.878125 29.777385) scale(0.08 -0.08)">
       <use xlink:href="#DejaVuSans-31"/>
      </g>
     </g>
    </g>
    <g id="text_6">
     <!-- output multiplier -->
     <g style="fill: #293552" transform="translate(14.798438 128.075927) rotate(-90) scale(0.1 -0.1)">
      <defs>
       <path id="DejaVuSans-6d" d="M 3328 2828 
Q 3544 3216 3844 3400 
Q 4144 3584 4550 3584 
Q 5097 3584 5394 3201 
Q 5691 2819 5691 2113 
L 5691 0 
L 5113 0 
L 5113 2094 
Q 5113 2597 4934 2840 
Q 4756 3084 4391 3084 
Q 3944 3084 3684 2787 
Q 3425 2491 3425 1978 
L 3425 0 
L 2847 0 
L 2847 2094 
Q 2847 2600 2669 2842 
Q 2491 3084 2119 3084 
Q 1678 3084 1418 2786 
Q 1159 2488 1159 1978 
L 1159 0 
L 581 0 
L 581 3500 
L 1159 3500 
L 1159 2956 
Q 1356 3278 1631 3431 
Q 1906 3584 2284 3584 
Q 2666 3584 2933 3390 
Q 3200 3197 3328 2828 
z
" transform="scale(0.015625)"/>
       <path id="DejaVuSans-72" d="M 2631 2963 
Q 2534 3019 2420 3045 
Q 2306 3072 2169 3072 
Q 1681 3072 1420 2755 
Q 1159 2438 1159 1844 
L 1159 0 
L 581 0 
L 581 3500 
L 1159 3500 
L 1159 2956 
Q 1341 3275 1631 3429 
Q 1922 3584 2338 3584 
Q 2397 3584 2469 3576 
Q 2541 3569 2628 3553 
L 2631 2963 
z
" transform="scale(0.015625)"/>
      </defs>
      <use xlink:href="#DejaVuSans-6f"/>
      <use xlink:href="#DejaVuSans-75" transform="translate(61.181641 0)"/>
      <use xlink:href="#DejaVuSans-74" transform="translate(124.560547 0)"/>
      <use xlink:href="#DejaVuSans-70" transform="translate(163.769531 0)"/>
      <use xlink:href="#DejaVuSans-75" transform="translate(227.246094 0)"/>
      <use xlink:href="#DejaVuSans-74" transform="translate(290.625 0)"/>
      <use xlink:href="#DejaVuSans-20" transform="translate(329.833984 0)"/>
      <use xlink:href="#DejaVuSans-6d" transform="translate(361.621094 0)"/>
      <use xlink:href="#DejaVuSans-75" transform="translate(459.033203 0)"/>
      <use xlink:href="#DejaVuSans-6c" transform="translate(522.412109 0)"/>
      <use xlink:href="#DejaVuSans-74" transform="translate(550.195312 0)"/>
      <use xlink:href="#DejaVuSans-69" transform="translate(589.404297 0)"/>
      <use xlink:href="#DejaVuSans-70" transform="translate(617.1875 0)"/>
      <use xlink:href="#DejaVuSans-6c" transform="translate(680.664062 0)"/>
      <use xlink:href="#DejaVuSans-69" transform="translate(708.447266 0)"/>
      <use xlink:href="#DejaVuSans-65" transform="translate(736.230469 0)"/>
      <use xlink:href="#DejaVuSans-72" transform="translate(797.753906 0)"/>
     </g>
    </g>
   </g>
   <g id="line2d_5">
    <path d="M 35.407698 145.529469 
L 94.335745 145.529469 
L 95.27111 26.73801 
L 154.199157 26.73801 
L 154.199157 26.73801 
" clip-path="url(#p8daded70a1)" style="fill: none; stroke: #efa231; stroke-width: 1.5; stroke-linecap: square"/>
   </g>
   <g id="line2d_6">
    <path d="M 35.407698 26.73801 
L 94.335745 26.73801 
L 95.27111 145.529469 
L 154.199157 145.529469 
L 154.199157 145.529469 
" clip-path="url(#p8daded70a1)" style="fill: none; stroke: #a50c63; stroke-width: 1.5; stroke-linecap: square"/>
   </g>
   <g id="patch_3">
    <path d="M 29.468125 151.469042 
L 29.468125 20.798437 
" style="fill: none; stroke: #293552; stroke-width: 0.8; stroke-linejoin: miter; stroke-linecap: square"/>
   </g>
   <g id="patch_4">
    <path d="M 29.468125 151.469042 
L 160.13873 151.469042 
" style="fill: none; stroke: #293552; stroke-width: 0.8; stroke-linejoin: miter; stroke-linecap: square"/>
   </g>
   <g id="text_7">
    <!-- hard -->
    <g style="fill: #293552" transform="translate(81.825302 14.798437) scale(0.1 -0.1)">
     <defs>
      <path id="DejaVuSans-Bold-68" d="M 4056 2131 
L 4056 0 
L 2931 0 
L 2931 347 
L 2931 1625 
Q 2931 2084 2911 2256 
Q 2891 2428 2841 2509 
Q 2775 2619 2662 2680 
Q 2550 2741 2406 2741 
Q 2056 2741 1856 2470 
Q 1656 2200 1656 1722 
L 1656 0 
L 538 0 
L 538 4863 
L 1656 4863 
L 1656 2988 
Q 1909 3294 2193 3439 
Q 2478 3584 2822 3584 
Q 3428 3584 3742 3212 
Q 4056 2841 4056 2131 
z
" transform="scale(0.015625)"/>
      <path id="DejaVuSans-Bold-61" d="M 2106 1575 
Q 1756 1575 1579 1456 
Q 1403 1338 1403 1106 
Q 1403 894 1545 773 
Q 1688 653 1941 653 
Q 2256 653 2472 879 
Q 2688 1106 2688 1447 
L 2688 1575 
L 2106 1575 
z
M 3816 1997 
L 3816 0 
L 2688 0 
L 2688 519 
Q 2463 200 2181 54 
Q 1900 -91 1497 -91 
Q 953 -91 614 226 
Q 275 544 275 1050 
Q 275 1666 698 1953 
Q 1122 2241 2028 2241 
L 2688 2241 
L 2688 2328 
Q 2688 2594 2478 2717 
Q 2269 2841 1825 2841 
Q 1466 2841 1156 2769 
Q 847 2697 581 2553 
L 581 3406 
Q 941 3494 1303 3539 
Q 1666 3584 2028 3584 
Q 2975 3584 3395 3211 
Q 3816 2838 3816 1997 
z
" transform="scale(0.015625)"/>
      <path id="DejaVuSans-Bold-72" d="M 3138 2547 
Q 2991 2616 2845 2648 
Q 2700 2681 2553 2681 
Q 2122 2681 1889 2404 
Q 1656 2128 1656 1613 
L 1656 0 
L 538 0 
L 538 3500 
L 1656 3500 
L 1656 2925 
Q 1872 3269 2151 3426 
Q 2431 3584 2822 3584 
Q 2878 3584 2943 3579 
Q 3009 3575 3134 3559 
L 3138 2547 
z
" transform="scale(0.015625)"/>
      <path id="DejaVuSans-Bold-64" d="M 2919 2988 
L 2919 4863 
L 4044 4863 
L 4044 0 
L 2919 0 
L 2919 506 
Q 2688 197 2409 53 
Q 2131 -91 1766 -91 
Q 1119 -91 703 423 
Q 288 938 288 1747 
Q 288 2556 703 3070 
Q 1119 3584 1766 3584 
Q 2128 3584 2408 3439 
Q 2688 3294 2919 2988 
z
M 2181 722 
Q 2541 722 2730 984 
Q 2919 1247 2919 1747 
Q 2919 2247 2730 2509 
Q 2541 2772 2181 2772 
Q 1825 2772 1636 2509 
Q 1447 2247 1447 1747 
Q 1447 1247 1636 984 
Q 1825 722 2181 722 
z
" transform="scale(0.015625)"/>
     </defs>
     <use xlink:href="#DejaVuSans-Bold-68"/>
     <use xlink:href="#DejaVuSans-Bold-61" transform="translate(71.191406 0)"/>
     <use xlink:href="#DejaVuSans-Bold-72" transform="translate(138.671875 0)"/>
     <use xlink:href="#DejaVuSans-Bold-64" transform="translate(187.988281 0)"/>
    </g>
   </g>
   <g id="legend_1">
    <g id="line2d_7">
     <path d="M 113.09748 79.66999 
L 121.09748 79.66999 
L 129.09748 79.66999 
" style="fill: none; stroke: #efa231; stroke-width: 1.5; stroke-linecap: square"/>
    </g>
    <g id="text_8">
     <!-- low -->
     <g style="fill: #293552" transform="translate(135.49748 82.46999) scale(0.08 -0.08)">
      <defs>
       <path id="DejaVuSans-77" d="M 269 3500 
L 844 3500 
L 1563 769 
L 2278 3500 
L 2956 3500 
L 3675 769 
L 4391 3500 
L 4966 3500 
L 4050 0 
L 3372 0 
L 2619 2869 
L 1863 0 
L 1184 0 
L 269 3500 
z
" transform="scale(0.015625)"/>
      </defs>
      <use xlink:href="#DejaVuSans-6c"/>
      <use xlink:href="#DejaVuSans-6f" transform="translate(27.783203 0)"/>
      <use xlink:href="#DejaVuSans-77" transform="translate(88.964844 0)"/>
     </g>
    </g>
    <g id="line2d_8">
     <path d="M 113.09748 91.41249 
L 121.09748 91.41249 
L 129.09748 91.41249 
" style="fill: none; stroke: #a50c63; stroke-width: 1.5; stroke-linecap: square"/>
    </g>
    <g id="text_9">
     <!-- high -->
     <g style="fill: #293552" transform="translate(135.49748 94.21249) scale(0.08 -0.08)">
      <defs>
       <path id="DejaVuSans-68" d="M 3513 2113 
L 3513 0 
L 2938 0 
L 2938 2094 
Q 2938 2591 2744 2837 
Q 2550 3084 2163 3084 
Q 1697 3084 1428 2787 
Q 1159 2491 1159 1978 
L 1159 0 
L 581 0 
L 581 4863 
L 1159 4863 
L 1159 2956 
Q 1366 3272 1645 3428 
Q 1925 3584 2291 3584 
Q 2894 3584 3203 3211 
Q 3513 2838 3513 2113 
z
" transform="scale(0.015625)"/>
       <path id="DejaVuSans-67" d="M 2906 1791 
Q 2906 2416 2648 2759 
Q 2391 3103 1925 3103 
Q 1463 3103 1205 2759 
Q 947 2416 947 1791 
Q 947 1169 1205 825 
Q 1463 481 1925 481 
Q 2391 481 2648 825 
Q 2906 1169 2906 1791 
z
M 3481 434 
Q 3481 -459 3084 -895 
Q 2688 -1331 1869 -1331 
Q 1566 -1331 1297 -1286 
Q 1028 -1241 775 -1147 
L 775 -588 
Q 1028 -725 1275 -790 
Q 1522 -856 1778 -856 
Q 2344 -856 2625 -561 
Q 2906 -266 2906 331 
L 2906 616 
Q 2728 306 2450 153 
Q 2172 0 1784 0 
Q 1141 0 747 490 
Q 353 981 353 1791 
Q 353 2603 747 3093 
Q 1141 3584 1784 3584 
Q 2172 3584 2450 3431 
Q 2728 3278 2906 2969 
L 2906 3500 
L 3481 3500 
L 3481 434 
z
" transform="scale(0.015625)"/>
      </defs>
      <use xlink:href="#DejaVuSans-68"/>
      <use xlink:href="#DejaVuSans-69" transform="translate(63.378906 0)"/>
      <use xlink:href="#DejaVuSans-67" transform="translate(91.162109 0)"/>
      <use xlink:href="#DejaVuSans-68" transform="translate(154.638672 0)"/>
     </g>
    </g>
   </g>
  </g>
  <g id="axes_2">
   <g id="patch_5">
    <path d="M 167.901094 151.469042 
L 298.571699 151.469042 
L 298.571699 20.798437 
L 167.901094 20.798437 
L 167.901094 151.469042 
z
" style="fill: none"/>
   </g>
   <g id="matplotlib.axis_3">
    <g id="xtick_3">
     <g id="line2d_9"/>
     <g id="text_10">
      <!-- 0 -->
      <g style="fill: #293552" transform="translate(171.295667 161.047792) scale(0.08 -0.08)">
       <use xlink:href="#DejaVuSans-30"/>
      </g>
     </g>
    </g>
    <g id="xtick_4">
     <g id="line2d_10"/>
     <g id="text_11">
      <!-- 127 -->
      <g style="fill: #293552" transform="translate(284.997126 161.047792) scale(0.08 -0.08)">
       <use xlink:href="#DejaVuSans-31"/>
       <use xlink:href="#DejaVuSans-32" transform="translate(63.623047 0)"/>
       <use xlink:href="#DejaVuSans-37" transform="translate(127.246094 0)"/>
      </g>
     </g>
    </g>
    <g id="text_12">
     <!-- input velocity -->
     <g style="fill: #293552" transform="translate(199.244209 174.30998) scale(0.1 -0.1)">
      <use xlink:href="#DejaVuSans-69"/>
      <use xlink:href="#DejaVuSans-6e" transform="translate(27.783203 0)"/>
      <use xlink:href="#DejaVuSans-70" transform="translate(91.162109 0)"/>
      <use xlink:href="#DejaVuSans-75" transform="translate(154.638672 0)"/>
      <use xlink:href="#DejaVuSans-74" transform="translate(218.017578 0)"/>
      <use xlink:href="#DejaVuSans-20" transform="translate(257.226562 0)"/>
      <use xlink:href="#DejaVuSans-76" transform="translate(289.013672 0)"/>
      <use xlink:href="#DejaVuSans-65" transform="translate(348.193359 0)"/>
      <use xlink:href="#DejaVuSans-6c" transform="translate(409.716797 0)"/>
      <use xlink:href="#DejaVuSans-6f" transform="translate(437.5 0)"/>
      <use xlink:href="#DejaVuSans-63" transform="translate(498.681641 0)"/>
      <use xlink:href="#DejaVuSans-69" transform="translate(553.662109 0)"/>
      <use xlink:href="#DejaVuSans-74" transform="translate(581.445312 0)"/>
      <use xlink:href="#DejaVuSans-79" transform="translate(620.654297 0)"/>
     </g>
    </g>
   </g>
   <g id="matplotlib.axis_4">
    <g id="ytick_3">
     <g id="line2d_11"/>
    </g>
    <g id="ytick_4">
     <g id="line2d_12"/>
    </g>
   </g>
   <g id="line2d_13">
    <path d="M 173.840667 145.529496 
L 200.966275 145.428141 
L 206.57847 145.183377 
L 209.384568 144.891175 
L 212.190665 144.354926 
L 214.061397 143.769282 
L 215.932129 142.898232 
L 217.80286 141.610639 
L 218.738226 140.756046 
L 219.673592 139.72452 
L 220.608958 138.483871 
L 221.544323 136.998102 
L 222.479689 135.227913 
L 223.415055 133.131736 
L 224.350421 130.667467 
L 225.285787 127.79504 
L 226.221153 124.4799 
L 227.156518 120.697341 
L 229.02725 111.709687 
L 230.897982 101.0104 
L 237.445542 60.558384 
L 239.316274 51.57073 
L 240.25164 47.788171 
L 241.187006 44.473031 
L 242.122371 41.600603 
L 243.057737 39.136335 
L 243.993103 37.040158 
L 244.928469 35.269968 
L 245.863835 33.7842 
L 246.799201 32.543551 
L 247.734566 31.512025 
L 249.605298 29.951516 
L 251.47603 28.891498 
L 253.346761 28.176821 
L 255.217493 27.697405 
L 258.02359 27.259193 
L 261.765054 26.968538 
L 267.377249 26.805805 
L 279.537004 26.743023 
L 292.632126 26.738574 
L 292.632126 26.738574 
" clip-path="url(#p9352e1ce22)" style="fill: none; stroke: #efa231; stroke-width: 1.5; stroke-linecap: square"/>
   </g>
   <g id="line2d_14">
    <path d="M 173.840667 26.738574 
L 200.966275 26.83993 
L 206.57847 27.084694 
L 209.384568 27.376895 
L 212.190665 27.913145 
L 214.061397 28.498789 
L 215.932129 29.369838 
L 217.80286 30.657432 
L 218.738226 31.512025 
L 219.673592 32.543551 
L 220.608958 33.7842 
L 221.544323 35.269968 
L 222.479689 37.040158 
L 223.415055 39.136335 
L 224.350421 41.600603 
L 225.285787 44.473031 
L 226.221153 47.788171 
L 227.156518 51.57073 
L 229.02725 60.558384 
L 230.897982 71.257671 
L 237.445542 111.709687 
L 239.316274 120.697341 
L 240.25164 124.4799 
L 241.187006 127.79504 
L 242.122371 130.667467 
L 243.057737 133.131736 
L 243.993103 135.227913 
L 244.928469 136.998102 
L 245.863835 138.483871 
L 246.799201 139.72452 
L 247.734566 140.756046 
L 249.605298 142.316554 
L 251.47603 143.376573 
L 253.346761 144.09125 
L 255.217493 144.570666 
L 258.02359 145.008878 
L 261.765054 145.299532 
L 267.377249 145.462266 
L 279.537004 145.525048 
L 292.632126 145.529496 
L 292.632126 145.529496 
" clip-path="url(#p9352e1ce22)" style="fill: none; stroke: #a50c63; stroke-width: 1.5; stroke-linecap: square"/>
   </g>
   <g id="patch_6">
    <path d="M 167.901094 151.469042 
L 167.901094 20.798437 
" style="fill: none; stroke: #293552; stroke-width: 0.8; stroke-linejoin: miter; stroke-linecap: square"/>
   </g>
   <g id="patch_7">
    <path d="M 167.901094 151.469042 
L 298.571699 151.469042 
" style="fill: none; stroke: #293552; stroke-width: 0.8; stroke-linejoin: miter; stroke-linecap: square"/>
   </g>
   <g id="text_13">
    <!-- smooth 1 -->
    <g style="fill: #293552" transform="translate(207.011396 14.798437) scale(0.1 -0.1)">
     <defs>
      <path id="DejaVuSans-Bold-73" d="M 3272 3391 
L 3272 2541 
Q 2913 2691 2578 2766 
Q 2244 2841 1947 2841 
Q 1628 2841 1473 2761 
Q 1319 2681 1319 2516 
Q 1319 2381 1436 2309 
Q 1553 2238 1856 2203 
L 2053 2175 
Q 2913 2066 3209 1816 
Q 3506 1566 3506 1031 
Q 3506 472 3093 190 
Q 2681 -91 1863 -91 
Q 1516 -91 1145 -36 
Q 775 19 384 128 
L 384 978 
Q 719 816 1070 734 
Q 1422 653 1784 653 
Q 2113 653 2278 743 
Q 2444 834 2444 1013 
Q 2444 1163 2330 1236 
Q 2216 1309 1875 1350 
L 1678 1375 
Q 931 1469 631 1722 
Q 331 1975 331 2491 
Q 331 3047 712 3315 
Q 1094 3584 1881 3584 
Q 2191 3584 2531 3537 
Q 2872 3491 3272 3391 
z
" transform="scale(0.015625)"/>
      <path id="DejaVuSans-Bold-6d" d="M 3781 2919 
Q 3994 3244 4286 3414 
Q 4578 3584 4928 3584 
Q 5531 3584 5847 3212 
Q 6163 2841 6163 2131 
L 6163 0 
L 5038 0 
L 5038 1825 
Q 5041 1866 5042 1909 
Q 5044 1953 5044 2034 
Q 5044 2406 4934 2573 
Q 4825 2741 4581 2741 
Q 4263 2741 4089 2478 
Q 3916 2216 3909 1719 
L 3909 0 
L 2784 0 
L 2784 1825 
Q 2784 2406 2684 2573 
Q 2584 2741 2328 2741 
Q 2006 2741 1831 2477 
Q 1656 2213 1656 1722 
L 1656 0 
L 531 0 
L 531 3500 
L 1656 3500 
L 1656 2988 
Q 1863 3284 2130 3434 
Q 2397 3584 2719 3584 
Q 3081 3584 3359 3409 
Q 3638 3234 3781 2919 
z
" transform="scale(0.015625)"/>
      <path id="DejaVuSans-Bold-6f" d="M 2203 2784 
Q 1831 2784 1636 2517 
Q 1441 2250 1441 1747 
Q 1441 1244 1636 976 
Q 1831 709 2203 709 
Q 2569 709 2762 976 
Q 2956 1244 2956 1747 
Q 2956 2250 2762 2517 
Q 2569 2784 2203 2784 
z
M 2203 3584 
Q 3106 3584 3614 3096 
Q 4122 2609 4122 1747 
Q 4122 884 3614 396 
Q 3106 -91 2203 -91 
Q 1297 -91 786 396 
Q 275 884 275 1747 
Q 275 2609 786 3096 
Q 1297 3584 2203 3584 
z
" transform="scale(0.015625)"/>
      <path id="DejaVuSans-Bold-74" d="M 1759 4494 
L 1759 3500 
L 2913 3500 
L 2913 2700 
L 1759 2700 
L 1759 1216 
Q 1759 972 1856 886 
Q 1953 800 2241 800 
L 2816 800 
L 2816 0 
L 1856 0 
Q 1194 0 917 276 
Q 641 553 641 1216 
L 641 2700 
L 84 2700 
L 84 3500 
L 641 3500 
L 641 4494 
L 1759 4494 
z
" transform="scale(0.015625)"/>
      <path id="DejaVuSans-Bold-20" transform="scale(0.015625)"/>
      <path id="DejaVuSans-Bold-31" d="M 750 831 
L 1813 831 
L 1813 3847 
L 722 3622 
L 722 4441 
L 1806 4666 
L 2950 4666 
L 2950 831 
L 4013 831 
L 4013 0 
L 750 0 
L 750 831 
z
" transform="scale(0.015625)"/>
     </defs>
     <use xlink:href="#DejaVuSans-Bold-73"/>
     <use xlink:href="#DejaVuSans-Bold-6d" transform="translate(59.521484 0)"/>
     <use xlink:href="#DejaVuSans-Bold-6f" transform="translate(163.720703 0)"/>
     <use xlink:href="#DejaVuSans-Bold-6f" transform="translate(232.421875 0)"/>
     <use xlink:href="#DejaVuSans-Bold-74" transform="translate(301.123047 0)"/>
     <use xlink:href="#DejaVuSans-Bold-68" transform="translate(348.925781 0)"/>
     <use xlink:href="#DejaVuSans-Bold-20" transform="translate(420.117188 0)"/>
     <use xlink:href="#DejaVuSans-Bold-31" transform="translate(454.931641 0)"/>
    </g>
   </g>
   <g id="legend_2">
    <g id="line2d_15">
     <path d="M 251.530449 79.66999 
L 259.530449 79.66999 
L 267.530449 79.66999 
" style="fill: none; stroke: #efa231; stroke-width: 1.5; stroke-linecap: square"/>
    </g>
    <g id="text_14">
     <!-- low -->
     <g style="fill: #293552" transform="translate(273.930449 82.46999) scale(0.08 -0.08)">
      <use xlink:href="#DejaVuSans-6c"/>
      <use xlink:href="#DejaVuSans-6f" transform="translate(27.783203 0)"/>
      <use xlink:href="#DejaVuSans-77" transform="translate(88.964844 0)"/>
     </g>
    </g>
    <g id="line2d_16">
     <path d="M 251.530449 91.41249 
L 259.530449 91.41249 
L 267.530449 91.41249 
" style="fill: none; stroke: #a50c63; stroke-width: 1.5; stroke-linecap: square"/>
    </g>
    <g id="text_15">
     <!-- high -->
     <g style="fill: #293552" transform="translate(273.930449 94.21249) scale(0.08 -0.08)">
      <use xlink:href="#DejaVuSans-68"/>
      <use xlink:href="#DejaVuSans-69" transform="translate(63.378906 0)"/>
      <use xlink:href="#DejaVuSans-67" transform="translate(91.162109 0)"/>
      <use xlink:href="#DejaVuSans-68" transform="translate(154.638672 0)"/>
     </g>
    </g>
   </g>
  </g>
  <g id="axes_3">
   <g id="patch_8">
    <path d="M 306.334062 151.469042 
L 437.004667 151.469042 
L 437.004667 20.798437 
L 306.334062 20.798437 
L 306.334062 151.469042 
z
" style="fill: none"/>
   </g>
   <g id="matplotlib.axis_5">
    <g id="xtick_5">
     <g id="line2d_17"/>
     <g id="text_16">
      <!-- 0 -->
      <g style="fill: #293552" transform="translate(309.728635 161.047792) scale(0.08 -0.08)">
       <use xlink:href="#DejaVuSans-30"/>
      </g>
     </g>
    </g>
    <g id="xtick_6">
     <g id="line2d_18"/>
     <g id="text_17">
      <!-- 127 -->
      <g style="fill: #293552" transform="translate(423.430094 161.047792) scale(0.08 -0.08)">
       <use xlink:href="#DejaVuSans-31"/>
       <use xlink:href="#DejaVuSans-32" transform="translate(63.623047 0)"/>
       <use xlink:href="#DejaVuSans-37" transform="translate(127.246094 0)"/>
      </g>
     </g>
    </g>
    <g id="text_18">
     <!-- input velocity -->
     <g style="fill: #293552" transform="translate(337.677177 174.30998) scale(0.1 -0.1)">
      <use xlink:href="#DejaVuSans-69"/>
      <use xlink:href="#DejaVuSans-6e" transform="translate(27.783203 0)"/>
      <use xlink:href="#DejaVuSans-70" transform="translate(91.162109 0)"/>
      <use xlink:href="#DejaVuSans-75" transform="translate(154.638672 0)"/>
      <use xlink:href="#DejaVuSans-74" transform="translate(218.017578 0)"/>
      <use xlink:href="#DejaVuSans-20" transform="translate(257.226562 0)"/>
      <use xlink:href="#DejaVuSans-76" transform="translate(289.013672 0)"/>
      <use xlink:href="#DejaVuSans-65" transform="translate(348.193359 0)"/>
      <use xlink:href="#DejaVuSans-6c" transform="translate(409.716797 0)"/>
      <use xlink:href="#DejaVuSans-6f" transform="translate(437.5 0)"/>
      <use xlink:href="#DejaVuSans-63" transform="translate(498.681641 0)"/>
      <use xlink:href="#DejaVuSans-69" transform="translate(553.662109 0)"/>
      <use xlink:href="#DejaVuSans-74" transform="translate(581.445312 0)"/>
      <use xlink:href="#DejaVuSans-79" transform="translate(620.654297 0)"/>
     </g>
    </g>
   </g>
   <g id="matplotlib.axis_6">
    <g id="ytick_5">
     <g id="line2d_19"/>
    </g>
    <g id="ytick_6">
     <g id="line2d_20"/>
    </g>
   </g>
   <g id="line2d_21">
    <path d="M 312.273635 145.573235 
L 318.821196 145.20204 
L 323.498025 144.75852 
L 327.239489 144.236699 
L 330.980952 143.502094 
L 333.787049 142.763037 
L 336.593147 141.814123 
L 339.399244 140.600948 
L 342.205342 139.058353 
L 344.076073 137.809869 
L 345.946805 136.356545 
L 347.817537 134.672081 
L 349.688268 132.729482 
L 351.559 130.502106 
L 353.429731 127.965074 
L 355.300463 125.097057 
L 357.171195 121.882393 
L 359.041926 118.313431 
L 360.912658 114.392889 
L 363.718756 107.88987 
L 366.524853 100.743878 
L 370.266316 90.53798 
L 376.813877 72.486445 
L 379.619974 65.340454 
L 382.426072 58.837435 
L 385.232169 53.088025 
L 387.102901 49.696574 
L 388.973633 46.656746 
L 390.844364 43.956587 
L 392.715096 41.577317 
L 394.585828 39.495587 
L 396.456559 37.685436 
L 398.327291 36.119894 
L 400.198022 34.772203 
L 403.00412 33.103438 
L 405.810217 31.788239 
L 408.616315 30.757801 
L 411.422412 29.954202 
L 415.163876 29.154531 
L 418.905339 28.585937 
L 423.582168 28.102301 
L 429.194363 27.741137 
L 431.065094 27.657089 
L 431.065094 27.657089 
" clip-path="url(#p0b4f0c04b8)" style="fill: none; stroke: #efa231; stroke-width: 1.5; stroke-linecap: square"/>
   </g>
   <g id="line2d_22">
    <path d="M 312.273635 27.657089 
L 318.821196 28.028284 
L 323.498025 28.471803 
L 327.239489 28.993624 
L 330.980952 29.72823 
L 333.787049 30.467286 
L 336.593147 31.416201 
L 339.399244 32.629376 
L 342.205342 34.171971 
L 344.076073 35.420455 
L 345.946805 36.873778 
L 347.817537 38.558243 
L 349.688268 40.500842 
L 351.559 42.728217 
L 353.429731 45.265249 
L 355.300463 48.133267 
L 357.171195 51.347931 
L 359.041926 54.916893 
L 360.912658 58.837435 
L 363.718756 65.340454 
L 366.524853 72.486445 
L 370.266316 82.692344 
L 376.813877 100.743878 
L 379.619974 107.88987 
L 382.426072 114.392889 
L 385.232169 120.142299 
L 387.102901 123.53375 
L 388.973633 126.573577 
L 390.844364 129.273737 
L 392.715096 131.653007 
L 394.585828 133.734736 
L 396.456559 135.544887 
L 398.327291 137.11043 
L 400.198022 138.458121 
L 403.00412 140.126886 
L 405.810217 141.442085 
L 408.616315 142.472522 
L 411.422412 143.276122 
L 415.163876 144.075793 
L 418.905339 144.644387 
L 423.582168 145.128022 
L 429.194363 145.489187 
L 431.065094 145.573235 
L 431.065094 145.573235 
" clip-path="url(#p0b4f0c04b8)" style="fill: none; stroke: #a50c63; stroke-width: 1.5; stroke-linecap: square"/>
   </g>
   <g id="patch_9">
    <path d="M 306.334062 151.469042 
L 306.334062 20.798437 
" style="fill: none; stroke: #293552; stroke-width: 0.8; stroke-linejoin: miter; stroke-linecap: square"/>
   </g>
   <g id="patch_10">
    <path d="M 306.334062 151.469042 
L 437.004667 151.469042 
" style="fill: none; stroke: #293552; stroke-width: 0.8; stroke-linejoin: miter; stroke-linecap: square"/>
   </g>
   <g id="text_19">
    <!-- smooth 2 -->
    <g style="fill: #293552" transform="translate(345.444365 14.798437) scale(0.1 -0.1)">
     <defs>
      <path id="DejaVuSans-Bold-32" d="M 1844 884 
L 3897 884 
L 3897 0 
L 506 0 
L 506 884 
L 2209 2388 
Q 2438 2594 2547 2791 
Q 2656 2988 2656 3200 
Q 2656 3528 2436 3728 
Q 2216 3928 1850 3928 
Q 1569 3928 1234 3808 
Q 900 3688 519 3450 
L 519 4475 
Q 925 4609 1322 4679 
Q 1719 4750 2100 4750 
Q 2938 4750 3402 4381 
Q 3866 4013 3866 3353 
Q 3866 2972 3669 2642 
Q 3472 2313 2841 1759 
L 1844 884 
z
" transform="scale(0.015625)"/>
     </defs>
     <use xlink:href="#DejaVuSans-Bold-73"/>
     <use xlink:href="#DejaVuSans-Bold-6d" transform="translate(59.521484 0)"/>
     <use xlink:href="#DejaVuSans-Bold-6f" transform="translate(163.720703 0)"/>
     <use xlink:href="#DejaVuSans-Bold-6f" transform="translate(232.421875 0)"/>
     <use xlink:href="#DejaVuSans-Bold-74" transform="translate(301.123047 0)"/>
     <use xlink:href="#DejaVuSans-Bold-68" transform="translate(348.925781 0)"/>
     <use xlink:href="#DejaVuSans-Bold-20" transform="translate(420.117188 0)"/>
     <use xlink:href="#DejaVuSans-Bold-32" transform="translate(454.931641 0)"/>
    </g>
   </g>
   <g id="legend_3">
    <g id="line2d_23">
     <path d="M 389.963417 79.66999 
L 397.963417 79.66999 
L 405.963417 79.66999 
" style="fill: none; stroke: #efa231; stroke-width: 1.5; stroke-linecap: square"/>
    </g>
    <g id="text_20">
     <!-- low -->
     <g style="fill: #293552" transform="translate(412.363417 82.46999) scale(0.08 -0.08)">
      <use xlink:href="#DejaVuSans-6c"/>
      <use xlink:href="#DejaVuSans-6f" transform="translate(27.783203 0)"/>
      <use xlink:href="#DejaVuSans-77" transform="translate(88.964844 0)"/>
     </g>
    </g>
    <g id="line2d_24">
     <path d="M 389.963417 91.41249 
L 397.963417 91.41249 
L 405.963417 91.41249 
" style="fill: none; stroke: #a50c63; stroke-width: 1.5; stroke-linecap: square"/>
    </g>
    <g id="text_21">
     <!-- high -->
     <g style="fill: #293552" transform="translate(412.363417 94.21249) scale(0.08 -0.08)">
      <use xlink:href="#DejaVuSans-68"/>
      <use xlink:href="#DejaVuSans-69" transform="translate(63.378906 0)"/>
      <use xlink:href="#DejaVuSans-67" transform="translate(91.162109 0)"/>
      <use xlink:href="#DejaVuSans-68" transform="translate(154.638672 0)"/>
     </g>
    </g>
   </g>
  </g>
  <g id="axes_4">
   <g id="patch_11">
    <path d="M 444.767031 151.469042 
L 575.437636 151.469042 
L 575.437636 20.798437 
L 444.767031 20.798437 
L 444.767031 151.469042 
z
" style="fill: none"/>
   </g>
   <g id="matplotlib.axis_7">
    <g id="xtick_7">
     <g id="line2d_25"/>
     <g id="text_22">
      <!-- 0 -->
      <g style="fill: #293552" transform="translate(448.161604 161.047792) scale(0.08 -0.08)">
       <use xlink:href="#DejaVuSans-30"/>
      </g>
     </g>
    </g>
    <g id="xtick_8">
     <g id="line2d_26"/>
     <g id="text_23">
      <!-- 127 -->
      <g style="fill: #293552" transform="translate(561.863063 161.047792) scale(0.08 -0.08)">
       <use xlink:href="#DejaVuSans-31"/>
       <use xlink:href="#DejaVuSans-32" transform="translate(63.623047 0)"/>
       <use xlink:href="#DejaVuSans-37" transform="translate(127.246094 0)"/>
      </g>
     </g>
    </g>
    <g id="text_24">
     <!-- input velocity -->
     <g style="fill: #293552" transform="translate(476.110146 174.30998) scale(0.1 -0.1)">
      <use xlink:href="#DejaVuSans-69"/>
      <use xlink:href="#DejaVuSans-6e" transform="translate(27.783203 0)"/>
      <use xlink:href="#DejaVuSans-70" transform="translate(91.162109 0)"/>
      <use xlink:href="#DejaVuSans-75" transform="translate(154.638672 0)"/>
      <use xlink:href="#DejaVuSans-74" transform="translate(218.017578 0)"/>
      <use xlink:href="#DejaVuSans-20" transform="translate(257.226562 0)"/>
      <use xlink:href="#DejaVuSans-76" transform="translate(289.013672 0)"/>
      <use xlink:href="#DejaVuSans-65" transform="translate(348.193359 0)"/>
      <use xlink:href="#DejaVuSans-6c" transform="translate(409.716797 0)"/>
      <use xlink:href="#DejaVuSans-6f" transform="translate(437.5 0)"/>
      <use xlink:href="#DejaVuSans-63" transform="translate(498.681641 0)"/>
      <use xlink:href="#DejaVuSans-69" transform="translate(553.662109 0)"/>
      <use xlink:href="#DejaVuSans-74" transform="translate(581.445312 0)"/>
      <use xlink:href="#DejaVuSans-79" transform="translate(620.654297 0)"/>
     </g>
    </g>
   </g>
   <g id="matplotlib.axis_8">
    <g id="ytick_7">
     <g id="line2d_27"/>
    </g>
    <g id="ytick_8">
     <g id="line2d_28"/>
    </g>
   </g>
   <g id="line2d_29">
    <path d="M 450.706604 145.529469 
L 569.498063 26.73801 
L 569.498063 26.73801 
" clip-path="url(#pfb52bfaf2f)" style="fill: none; stroke: #efa231; stroke-width: 1.5; stroke-linecap: square"/>
   </g>
   <g id="line2d_30">
    <path d="M 450.706604 26.73801 
L 569.498063 145.529469 
L 569.498063 145.529469 
" clip-path="url(#pfb52bfaf2f)" style="fill: none; stroke: #a50c63; stroke-width: 1.5; stroke-linecap: square"/>
   </g>
   <g id="patch_12">
    <path d="M 444.767031 151.469042 
L 444.767031 20.798437 
" style="fill: none; stroke: #293552; stroke-width: 0.8; stroke-linejoin: miter; stroke-linecap: square"/>
   </g>
   <g id="patch_13">
    <path d="M 444.767031 151.469042 
L 575.437636 151.469042 
" style="fill: none; stroke: #293552; stroke-width: 0.8; stroke-linejoin: miter; stroke-linecap: square"/>
   </g>
   <g id="text_25">
    <!-- linear -->
    <g style="fill: #293552" transform="translate(493.883584 14.798437) scale(0.1 -0.1)">
     <defs>
      <path id="DejaVuSans-Bold-6c" d="M 538 4863 
L 1656 4863 
L 1656 0 
L 538 0 
L 538 4863 
z
" transform="scale(0.015625)"/>
      <path id="DejaVuSans-Bold-69" d="M 538 3500 
L 1656 3500 
L 1656 0 
L 538 0 
L 538 3500 
z
M 538 4863 
L 1656 4863 
L 1656 3950 
L 538 3950 
L 538 4863 
z
" transform="scale(0.015625)"/>
      <path id="DejaVuSans-Bold-6e" d="M 4056 2131 
L 4056 0 
L 2931 0 
L 2931 347 
L 2931 1631 
Q 2931 2084 2911 2256 
Q 2891 2428 2841 2509 
Q 2775 2619 2662 2680 
Q 2550 2741 2406 2741 
Q 2056 2741 1856 2470 
Q 1656 2200 1656 1722 
L 1656 0 
L 538 0 
L 538 3500 
L 1656 3500 
L 1656 2988 
Q 1909 3294 2193 3439 
Q 2478 3584 2822 3584 
Q 3428 3584 3742 3212 
Q 4056 2841 4056 2131 
z
" transform="scale(0.015625)"/>
      <path id="DejaVuSans-Bold-65" d="M 4031 1759 
L 4031 1441 
L 1416 1441 
Q 1456 1047 1700 850 
Q 1944 653 2381 653 
Q 2734 653 3104 758 
Q 3475 863 3866 1075 
L 3866 213 
Q 3469 63 3072 -14 
Q 2675 -91 2278 -91 
Q 1328 -91 801 392 
Q 275 875 275 1747 
Q 275 2603 792 3093 
Q 1309 3584 2216 3584 
Q 3041 3584 3536 3087 
Q 4031 2591 4031 1759 
z
M 2881 2131 
Q 2881 2450 2695 2645 
Q 2509 2841 2209 2841 
Q 1884 2841 1681 2658 
Q 1478 2475 1428 2131 
L 2881 2131 
z
" transform="scale(0.015625)"/>
     </defs>
     <use xlink:href="#DejaVuSans-Bold-6c"/>
     <use xlink:href="#DejaVuSans-Bold-69" transform="translate(34.277344 0)"/>
     <use xlink:href="#DejaVuSans-Bold-6e" transform="translate(68.554688 0)"/>
     <use xlink:href="#DejaVuSans-Bold-65" transform="translate(139.746094 0)"/>
     <use xlink:href="#DejaVuSans-Bold-61" transform="translate(207.568359 0)"/>
     <use xlink:href="#DejaVuSans-Bold-72" transform="translate(275.048828 0)"/>
    </g>
   </g>
   <g id="legend_4">
    <g id="line2d_31">
     <path d="M 528.396386 79.66999 
L 536.396386 79.66999 
L 544.396386 79.66999 
" style="fill: none; stroke: #efa231; stroke-width: 1.5; stroke-linecap: square"/>
    </g>
    <g id="text_26">
     <!-- low -->
     <g style="fill: #293552" transform="translate(550.796386 82.46999) scale(0.08 -0.08)">
      <use xlink:href="#DejaVuSans-6c"/>
      <use xlink:href="#DejaVuSans-6f" transform="translate(27.783203 0)"/>
      <use xlink:href="#DejaVuSans-77" transform="translate(88.964844 0)"/>
     </g>
    </g>
    <g id="line2d_32">
     <path d="M 528.396386 91.41249 
L 536.396386 91.41249 
L 544.396386 91.41249 
" style="fill: none; stroke: #a50c63; stroke-width: 1.5; stroke-linecap: square"/>
    </g>
    <g id="text_27">
     <!-- high -->
     <g style="fill: #293552" transform="translate(550.796386 94.21249) scale(0.08 -0.08)">
      <use xlink:href="#DejaVuSans-68"/>
      <use xlink:href="#DejaVuSans-69" transform="translate(63.378906 0)"/>
      <use xlink:href="#DejaVuSans-67" transform="translate(91.162109 0)"/>
      <use xlink:href="#DejaVuSans-68" transform="translate(154.638672 0)"/>
     </g>
    </g>
   </g>
  </g>
 </g>
 <defs>
  <clipPath id="p8daded70a1">
   <rect x="29.468125" y="20.798437" width="130.670605" height="130.670605"/>
  </clipPath>
  <clipPath id="p9352e1ce22">
   <rect x="167.901094" y="20.798437" width="130.670605" height="130.670605"/>
  </clipPath>
  <clipPath id="p0b4f0c04b8">
   <rect x="306.334062" y="20.798437" width="130.670605" height="130.670605"/>
  </clipPath>
  <clipPath id="pfb52bfaf2f">
   <rect x="444.767031" y="20.798437" width="130.670605" height="130.670605"/>
  </clipPath>
 </defs>
</svg>
