<?xml version="1.0" encoding="utf-8" standalone="no"?>
<!DOCTYPE svg PUBLIC "-//W3C//DTD SVG 1.1//EN"
  "http://www.w3.org/Graphics/SVG/1.1/DTD/svg11.dtd">
<svg xmlns:xlink="http://www.w3.org/1999/xlink" width="584.338321pt" height="339.780326pt" viewBox="0 0 584.338321 339.780326" xmlns="http://www.w3.org/2000/svg" version="1.1">
 <metadata>
  <rdf:RDF xmlns:dc="http://purl.org/dc/elements/1.1/" xmlns:cc="http://creativecommons.org/ns#" xmlns:rdf="http://www.w3.org/1999/02/22-rdf-syntax-ns#">
   <cc:Work>
    <dc:type rdf:resource="http://purl.org/dc/dcmitype/StillImage"/>
    <dc:date>2025-05-09T10:11:59.904044</dc:date>
    <dc:format>image/svg+xml</dc:format>
    <dc:creator>
     <cc:Agent>
      <dc:title>Matplotlib v3.10.1, https://matplotlib.org/</dc:title>
     </cc:Agent>
    </dc:creator>
   </cc:Work>
  </rdf:RDF>
 </metadata>
 <defs>
  <style type="text/css">*{stroke-linejoin: round; stroke-linecap: butt}</style>
 </defs>
 <g id="figure_1">
  <g id="patch_1">
   <path d="M 0 339.780326 
L 584.338321 339.780326 
L 584.338321 0 
L 0 0 
L 0 339.780326 
z
" style="fill: none"/>
  </g>
  <g id="axes_1">
   <g id="patch_2">
    <path d="M 39.648125 148.808361 
L 167.658048 148.808361 
L 167.658048 20.798437 
L 39.648125 20.798437 
L 39.648125 148.808361 
z
" style="fill: none"/>
   </g>
   <g id="matplotlib.axis_1">
    <g id="xtick_1">
     <g id="line2d_1"/>
     <g id="text_1">
      <!-- 0 -->
      <g style="fill: #293552" transform="translate(42.921758 158.387111) scale(0.08 -0.08)">
       <defs>
        <path id="DejaVuSans-30" d="M 2034 4250 
Q 1547 4250 1301 3770 
Q 1056 3291 1056 2328 
Q 1056 1369 1301 889 
Q 1547 409 2034 409 
Q 2525 409 2770 889 
Q 3016 1369 3016 2328 
Q 3016 3291 2770 3770 
Q 2525 4250 2034 4250 
z
M 2034 4750 
Q 2819 4750 3233 4129 
Q 3647 3509 3647 2328 
Q 3647 1150 3233 529 
Q 2819 -91 2034 -91 
Q 1250 -91 836 529 
Q 422 1150 422 2328 
Q 422 3509 836 4129 
Q 1250 4750 2034 4750 
z
" transform="scale(0.015625)"/>
       </defs>
       <use xlink:href="#DejaVuSans-30"/>
      </g>
     </g>
    </g>
    <g id="xtick_2">
     <g id="line2d_2"/>
     <g id="text_2">
      <!-- 127 -->
      <g style="fill: #293552" transform="translate(154.204415 158.387111) scale(0.08 -0.08)">
       <defs>
        <path id="DejaVuSans-31" d="M 794 531 
L 1825 531 
L 1825 4091 
L 703 3866 
L 703 4441 
L 1819 4666 
L 2450 4666 
L 2450 531 
L 3481 531 
L 3481 0 
L 794 0 
L 794 531 
z
" transform="scale(0.015625)"/>
        <path id="DejaVuSans-32" d="M 1228 531 
L 3431 531 
L 3431 0 
L 469 0 
L 469 531 
Q 828 903 1448 1529 
Q 2069 2156 2228 2338 
Q 2531 2678 2651 2914 
Q 2772 3150 2772 3378 
Q 2772 3750 2511 3984 
Q 2250 4219 1831 4219 
Q 1534 4219 1204 4116 
Q 875 4013 500 3803 
L 500 4441 
Q 881 4594 1212 4672 
Q 1544 4750 1819 4750 
Q 2544 4750 2975 4387 
Q 3406 4025 3406 3419 
Q 3406 3131 3298 2873 
Q 3191 2616 2906 2266 
Q 2828 2175 2409 1742 
Q 1991 1309 1228 531 
z
" transform="scale(0.015625)"/>
        <path id="DejaVuSans-37" d="M 525 4666 
L 3525 4666 
L 3525 4397 
L 1831 0 
L 1172 0 
L 2766 4134 
L 525 4134 
L 525 4666 
z
" transform="scale(0.015625)"/>
       </defs>
       <use xlink:href="#DejaVuSans-31"/>
       <use xlink:href="#DejaVuSans-32" transform="translate(63.623047 0)"/>
       <use xlink:href="#DejaVuSans-37" transform="translate(127.246094 0)"/>
      </g>
     </g>
    </g>
   </g>
   <g id="matplotlib.axis_2">
    <g id="ytick_1">
     <g id="line2d_3"/>
     <g id="text_3">
      <!-- 0 -->
      <g style="fill: #293552" transform="translate(31.058125 146.029103) scale(0.08 -0.08)">
       <use xlink:href="#DejaVuSans-30"/>
      </g>
     </g>
    </g>
    <g id="ytick_2">
     <g id="line2d_4"/>
     <g id="text_4">
      <!-- 127 -->
      <g style="fill: #293552" transform="translate(20.878125 29.656445) scale(0.08 -0.08)">
       <use xlink:href="#DejaVuSans-31"/>
       <use xlink:href="#DejaVuSans-32" transform="translate(63.623047 0)"/>
       <use xlink:href="#DejaVuSans-37" transform="translate(127.246094 0)"/>
      </g>
     </g>
    </g>
    <g id="text_5">
     <!-- output velocity -->
     <g style="fill: #293552" transform="translate(14.798438 122.426055) rotate(-90) scale(0.1 -0.1)">
      <defs>
       <path id="DejaVuSans-6f" d="M 1959 3097 
Q 1497 3097 1228 2736 
Q 959 2375 959 1747 
Q 959 1119 1226 758 
Q 1494 397 1959 397 
Q 2419 397 2687 759 
Q 2956 1122 2956 1747 
Q 2956 2369 2687 2733 
Q 2419 3097 1959 3097 
z
M 1959 3584 
Q 2709 3584 3137 3096 
Q 3566 2609 3566 1747 
Q 3566 888 3137 398 
Q 2709 -91 1959 -91 
Q 1206 -91 779 398 
Q 353 888 353 1747 
Q 353 2609 779 3096 
Q 1206 3584 1959 3584 
z
" transform="scale(0.015625)"/>
       <path id="DejaVuSans-75" d="M 544 1381 
L 544 3500 
L 1119 3500 
L 1119 1403 
Q 1119 906 1312 657 
Q 1506 409 1894 409 
Q 2359 409 2629 706 
Q 2900 1003 2900 1516 
L 2900 3500 
L 3475 3500 
L 3475 0 
L 2900 0 
L 2900 538 
Q 2691 219 2414 64 
Q 2138 -91 1772 -91 
Q 1169 -91 856 284 
Q 544 659 544 1381 
z
M 1991 3584 
L 1991 3584 
z
" transform="scale(0.015625)"/>
       <path id="DejaVuSans-74" d="M 1172 4494 
L 1172 3500 
L 2356 3500 
L 2356 3053 
L 1172 3053 
L 1172 1153 
Q 1172 725 1289 603 
Q 1406 481 1766 481 
L 2356 481 
L 2356 0 
L 1766 0 
Q 1100 0 847 248 
Q 594 497 594 1153 
L 594 3053 
L 172 3053 
L 172 3500 
L 594 3500 
L 594 4494 
L 1172 4494 
z
" transform="scale(0.015625)"/>
       <path id="DejaVuSans-70" d="M 1159 525 
L 1159 -1331 
L 581 -1331 
L 581 3500 
L 1159 3500 
L 1159 2969 
Q 1341 3281 1617 3432 
Q 1894 3584 2278 3584 
Q 2916 3584 3314 3078 
Q 3713 2572 3713 1747 
Q 3713 922 3314 415 
Q 2916 -91 2278 -91 
Q 1894 -91 1617 61 
Q 1341 213 1159 525 
z
M 3116 1747 
Q 3116 2381 2855 2742 
Q 2594 3103 2138 3103 
Q 1681 3103 1420 2742 
Q 1159 2381 1159 1747 
Q 1159 1113 1420 752 
Q 1681 391 2138 391 
Q 2594 391 2855 752 
Q 3116 1113 3116 1747 
z
" transform="scale(0.015625)"/>
       <path id="DejaVuSans-20" transform="scale(0.015625)"/>
       <path id="DejaVuSans-76" d="M 191 3500 
L 800 3500 
L 1894 563 
L 2988 3500 
L 3597 3500 
L 2284 0 
L 1503 0 
L 191 3500 
z
" transform="scale(0.015625)"/>
       <path id="DejaVuSans-65" d="M 3597 1894 
L 3597 1613 
L 953 1613 
Q 991 1019 1311 708 
Q 1631 397 2203 397 
Q 2534 397 2845 478 
Q 3156 559 3463 722 
L 3463 178 
Q 3153 47 2828 -22 
Q 2503 -91 2169 -91 
Q 1331 -91 842 396 
Q 353 884 353 1716 
Q 353 2575 817 3079 
Q 1281 3584 2069 3584 
Q 2775 3584 3186 3129 
Q 3597 2675 3597 1894 
z
M 3022 2063 
Q 3016 2534 2758 2815 
Q 2500 3097 2075 3097 
Q 1594 3097 1305 2825 
Q 1016 2553 972 2059 
L 3022 2063 
z
" transform="scale(0.015625)"/>
       <path id="DejaVuSans-6c" d="M 603 4863 
L 1178 4863 
L 1178 0 
L 603 0 
L 603 4863 
z
" transform="scale(0.015625)"/>
       <path id="DejaVuSans-63" d="M 3122 3366 
L 3122 2828 
Q 2878 2963 2633 3030 
Q 2388 3097 2138 3097 
Q 1578 3097 1268 2742 
Q 959 2388 959 1747 
Q 959 1106 1268 751 
Q 1578 397 2138 397 
Q 2388 397 2633 464 
Q 2878 531 3122 666 
L 3122 134 
Q 2881 22 2623 -34 
Q 2366 -91 2075 -91 
Q 1284 -91 818 406 
Q 353 903 353 1747 
Q 353 2603 823 3093 
Q 1294 3584 2113 3584 
Q 2378 3584 2631 3529 
Q 2884 3475 3122 3366 
z
" transform="scale(0.015625)"/>
       <path id="DejaVuSans-69" d="M 603 3500 
L 1178 3500 
L 1178 0 
L 603 0 
L 603 3500 
z
M 603 4863 
L 1178 4863 
L 1178 4134 
L 603 4134 
L 603 4863 
z
" transform="scale(0.015625)"/>
       <path id="DejaVuSans-79" d="M 2059 -325 
Q 1816 -950 1584 -1140 
Q 1353 -1331 966 -1331 
L 506 -1331 
L 506 -850 
L 844 -850 
Q 1081 -850 1212 -737 
Q 1344 -625 1503 -206 
L 1606 56 
L 191 3500 
L 800 3500 
L 1894 763 
L 2988 3500 
L 3597 3500 
L 2059 -325 
z
" transform="scale(0.015625)"/>
      </defs>
      <use xlink:href="#DejaVuSans-6f"/>
      <use xlink:href="#DejaVuSans-75" transform="translate(61.181641 0)"/>
      <use xlink:href="#DejaVuSans-74" transform="translate(124.560547 0)"/>
      <use xlink:href="#DejaVuSans-70" transform="translate(163.769531 0)"/>
      <use xlink:href="#DejaVuSans-75" transform="translate(227.246094 0)"/>
      <use xlink:href="#DejaVuSans-74" transform="translate(290.625 0)"/>
      <use xlink:href="#DejaVuSans-20" transform="translate(329.833984 0)"/>
      <use xlink:href="#DejaVuSans-76" transform="translate(361.621094 0)"/>
      <use xlink:href="#DejaVuSans-65" transform="translate(420.800781 0)"/>
      <use xlink:href="#DejaVuSans-6c" transform="translate(482.324219 0)"/>
      <use xlink:href="#DejaVuSans-6f" transform="translate(510.107422 0)"/>
      <use xlink:href="#DejaVuSans-63" transform="translate(571.289062 0)"/>
      <use xlink:href="#DejaVuSans-69" transform="translate(626.269531 0)"/>
      <use xlink:href="#DejaVuSans-74" transform="translate(654.052734 0)"/>
      <use xlink:href="#DejaVuSans-79" transform="translate(693.261719 0)"/>
     </g>
    </g>
   </g>
   <g id="line2d_5">
    <path d="M 45.466758 142.989728 
L 103.194926 85.261559 
L 104.111247 142.989728 
L 161.839415 142.989728 
L 161.839415 142.989728 
" clip-path="url(#p4c010efa54)" style="fill: none; stroke: #efa231; stroke-width: 1.5; stroke-linecap: square"/>
   </g>
   <g id="line2d_6">
    <path d="M 45.466758 142.989728 
L 103.194926 142.989728 
L 104.111247 84.345239 
L 161.839415 26.61707 
L 161.839415 26.61707 
" clip-path="url(#p4c010efa54)" style="fill: none; stroke: #a50c63; stroke-width: 1.5; stroke-linecap: square"/>
   </g>
   <g id="patch_3">
    <path d="M 39.648125 148.808361 
L 39.648125 20.798437 
" style="fill: none; stroke: #293552; stroke-width: 0.8; stroke-linejoin: miter; stroke-linecap: square"/>
   </g>
   <g id="patch_4">
    <path d="M 39.648125 148.808361 
L 167.658048 148.808361 
" style="fill: none; stroke: #293552; stroke-width: 0.8; stroke-linejoin: miter; stroke-linecap: square"/>
   </g>
   <g id="text_6">
    <!-- hard, not scaled -->
    <g style="fill: #293552" transform="translate(57.91168 14.798437) scale(0.1 -0.1)">
     <defs>
      <path id="DejaVuSans-Bold-68" d="M 4056 2131 
L 4056 0 
L 2931 0 
L 2931 347 
L 2931 1625 
Q 2931 2084 2911 2256 
Q 2891 2428 2841 2509 
Q 2775 2619 2662 2680 
Q 2550 2741 2406 2741 
Q 2056 2741 1856 2470 
Q 1656 2200 1656 1722 
L 1656 0 
L 538 0 
L 538 4863 
L 1656 4863 
L 1656 2988 
Q 1909 3294 2193 3439 
Q 2478 3584 2822 3584 
Q 3428 3584 3742 3212 
Q 4056 2841 4056 2131 
z
" transform="scale(0.015625)"/>
      <path id="DejaVuSans-Bold-61" d="M 2106 1575 
Q 1756 1575 1579 1456 
Q 1403 1338 1403 1106 
Q 1403 894 1545 773 
Q 1688 653 1941 653 
Q 2256 653 2472 879 
Q 2688 1106 2688 1447 
L 2688 1575 
L 2106 1575 
z
M 3816 1997 
L 3816 0 
L 2688 0 
L 2688 519 
Q 2463 200 2181 54 
Q 1900 -91 1497 -91 
Q 953 -91 614 226 
Q 275 544 275 1050 
Q 275 1666 698 1953 
Q 1122 2241 2028 2241 
L 2688 2241 
L 2688 2328 
Q 2688 2594 2478 2717 
Q 2269 2841 1825 2841 
Q 1466 2841 1156 2769 
Q 847 2697 581 2553 
L 581 3406 
Q 941 3494 1303 3539 
Q 1666 3584 2028 3584 
Q 2975 3584 3395 3211 
Q 3816 2838 3816 1997 
z
" transform="scale(0.015625)"/>
      <path id="DejaVuSans-Bold-72" d="M 3138 2547 
Q 2991 2616 2845 2648 
Q 2700 2681 2553 2681 
Q 2122 2681 1889 2404 
Q 1656 2128 1656 1613 
L 1656 0 
L 538 0 
L 538 3500 
L 1656 3500 
L 1656 2925 
Q 1872 3269 2151 3426 
Q 2431 3584 2822 3584 
Q 2878 3584 2943 3579 
Q 3009 3575 3134 3559 
L 3138 2547 
z
" transform="scale(0.015625)"/>
      <path id="DejaVuSans-Bold-64" d="M 2919 2988 
L 2919 4863 
L 4044 4863 
L 4044 0 
L 2919 0 
L 2919 506 
Q 2688 197 2409 53 
Q 2131 -91 1766 -91 
Q 1119 -91 703 423 
Q 288 938 288 1747 
Q 288 2556 703 3070 
Q 1119 3584 1766 3584 
Q 2128 3584 2408 3439 
Q 2688 3294 2919 2988 
z
M 2181 722 
Q 2541 722 2730 984 
Q 2919 1247 2919 1747 
Q 2919 2247 2730 2509 
Q 2541 2772 2181 2772 
Q 1825 2772 1636 2509 
Q 1447 2247 1447 1747 
Q 1447 1247 1636 984 
Q 1825 722 2181 722 
z
" transform="scale(0.015625)"/>
      <path id="DejaVuSans-Bold-2c" d="M 653 1209 
L 1778 1209 
L 1778 256 
L 1006 -909 
L 341 -909 
L 653 256 
L 653 1209 
z
" transform="scale(0.015625)"/>
      <path id="DejaVuSans-Bold-20" transform="scale(0.015625)"/>
      <path id="DejaVuSans-Bold-6e" d="M 4056 2131 
L 4056 0 
L 2931 0 
L 2931 347 
L 2931 1631 
Q 2931 2084 2911 2256 
Q 2891 2428 2841 2509 
Q 2775 2619 2662 2680 
Q 2550 2741 2406 2741 
Q 2056 2741 1856 2470 
Q 1656 2200 1656 1722 
L 1656 0 
L 538 0 
L 538 3500 
L 1656 3500 
L 1656 2988 
Q 1909 3294 2193 3439 
Q 2478 3584 2822 3584 
Q 3428 3584 3742 3212 
Q 4056 2841 4056 2131 
z
" transform="scale(0.015625)"/>
      <path id="DejaVuSans-Bold-6f" d="M 2203 2784 
Q 1831 2784 1636 2517 
Q 1441 2250 1441 1747 
Q 1441 1244 1636 976 
Q 1831 709 2203 709 
Q 2569 709 2762 976 
Q 2956 1244 2956 1747 
Q 2956 2250 2762 2517 
Q 2569 2784 2203 2784 
z
M 2203 3584 
Q 3106 3584 3614 3096 
Q 4122 2609 4122 1747 
Q 4122 884 3614 396 
Q 3106 -91 2203 -91 
Q 1297 -91 786 396 
Q 275 884 275 1747 
Q 275 2609 786 3096 
Q 1297 3584 2203 3584 
z
" transform="scale(0.015625)"/>
      <path id="DejaVuSans-Bold-74" d="M 1759 4494 
L 1759 3500 
L 2913 3500 
L 2913 2700 
L 1759 2700 
L 1759 1216 
Q 1759 972 1856 886 
Q 1953 800 2241 800 
L 2816 800 
L 2816 0 
L 1856 0 
Q 1194 0 917 276 
Q 641 553 641 1216 
L 641 2700 
L 84 2700 
L 84 3500 
L 641 3500 
L 641 4494 
L 1759 4494 
z
" transform="scale(0.015625)"/>
      <path id="DejaVuSans-Bold-73" d="M 3272 3391 
L 3272 2541 
Q 2913 2691 2578 2766 
Q 2244 2841 1947 2841 
Q 1628 2841 1473 2761 
Q 1319 2681 1319 2516 
Q 1319 2381 1436 2309 
Q 1553 2238 1856 2203 
L 2053 2175 
Q 2913 2066 3209 1816 
Q 3506 1566 3506 1031 
Q 3506 472 3093 190 
Q 2681 -91 1863 -91 
Q 1516 -91 1145 -36 
Q 775 19 384 128 
L 384 978 
Q 719 816 1070 734 
Q 1422 653 1784 653 
Q 2113 653 2278 743 
Q 2444 834 2444 1013 
Q 2444 1163 2330 1236 
Q 2216 1309 1875 1350 
L 1678 1375 
Q 931 1469 631 1722 
Q 331 1975 331 2491 
Q 331 3047 712 3315 
Q 1094 3584 1881 3584 
Q 2191 3584 2531 3537 
Q 2872 3491 3272 3391 
z
" transform="scale(0.015625)"/>
      <path id="DejaVuSans-Bold-63" d="M 3366 3391 
L 3366 2478 
Q 3138 2634 2908 2709 
Q 2678 2784 2431 2784 
Q 1963 2784 1702 2511 
Q 1441 2238 1441 1747 
Q 1441 1256 1702 982 
Q 1963 709 2431 709 
Q 2694 709 2930 787 
Q 3166 866 3366 1019 
L 3366 103 
Q 3103 6 2833 -42 
Q 2563 -91 2291 -91 
Q 1344 -91 809 395 
Q 275 881 275 1747 
Q 275 2613 809 3098 
Q 1344 3584 2291 3584 
Q 2566 3584 2833 3536 
Q 3100 3488 3366 3391 
z
" transform="scale(0.015625)"/>
      <path id="DejaVuSans-Bold-6c" d="M 538 4863 
L 1656 4863 
L 1656 0 
L 538 0 
L 538 4863 
z
" transform="scale(0.015625)"/>
      <path id="DejaVuSans-Bold-65" d="M 4031 1759 
L 4031 1441 
L 1416 1441 
Q 1456 1047 1700 850 
Q 1944 653 2381 653 
Q 2734 653 3104 758 
Q 3475 863 3866 1075 
L 3866 213 
Q 3469 63 3072 -14 
Q 2675 -91 2278 -91 
Q 1328 -91 801 392 
Q 275 875 275 1747 
Q 275 2603 792 3093 
Q 1309 3584 2216 3584 
Q 3041 3584 3536 3087 
Q 4031 2591 4031 1759 
z
M 2881 2131 
Q 2881 2450 2695 2645 
Q 2509 2841 2209 2841 
Q 1884 2841 1681 2658 
Q 1478 2475 1428 2131 
L 2881 2131 
z
" transform="scale(0.015625)"/>
     </defs>
     <use xlink:href="#DejaVuSans-Bold-68"/>
     <use xlink:href="#DejaVuSans-Bold-61" transform="translate(71.191406 0)"/>
     <use xlink:href="#DejaVuSans-Bold-72" transform="translate(138.671875 0)"/>
     <use xlink:href="#DejaVuSans-Bold-64" transform="translate(187.988281 0)"/>
     <use xlink:href="#DejaVuSans-Bold-2c" transform="translate(259.570312 0)"/>
     <use xlink:href="#DejaVuSans-Bold-20" transform="translate(297.558594 0)"/>
     <use xlink:href="#DejaVuSans-Bold-6e" transform="translate(332.373047 0)"/>
     <use xlink:href="#DejaVuSans-Bold-6f" transform="translate(403.564453 0)"/>
     <use xlink:href="#DejaVuSans-Bold-74" transform="translate(472.265625 0)"/>
     <use xlink:href="#DejaVuSans-Bold-20" transform="translate(520.068359 0)"/>
     <use xlink:href="#DejaVuSans-Bold-73" transform="translate(554.882812 0)"/>
     <use xlink:href="#DejaVuSans-Bold-63" transform="translate(614.404297 0)"/>
     <use xlink:href="#DejaVuSans-Bold-61" transform="translate(673.681641 0)"/>
     <use xlink:href="#DejaVuSans-Bold-6c" transform="translate(741.162109 0)"/>
     <use xlink:href="#DejaVuSans-Bold-65" transform="translate(775.439453 0)"/>
     <use xlink:href="#DejaVuSans-Bold-64" transform="translate(843.261719 0)"/>
    </g>
   </g>
   <g id="legend_1">
    <g id="line2d_7">
     <path d="M 48.648125 33.896875 
L 58.648125 33.896875 
L 68.648125 33.896875 
" style="fill: none; stroke: #efa231; stroke-width: 1.5; stroke-linecap: square"/>
    </g>
    <g id="text_7">
     <!-- low -->
     <g style="fill: #293552" transform="translate(76.648125 37.396875) scale(0.1 -0.1)">
      <defs>
       <path id="DejaVuSans-77" d="M 269 3500 
L 844 3500 
L 1563 769 
L 2278 3500 
L 2956 3500 
L 3675 769 
L 4391 3500 
L 4966 3500 
L 4050 0 
L 3372 0 
L 2619 2869 
L 1863 0 
L 1184 0 
L 269 3500 
z
" transform="scale(0.015625)"/>
      </defs>
      <use xlink:href="#DejaVuSans-6c"/>
      <use xlink:href="#DejaVuSans-6f" transform="translate(27.783203 0)"/>
      <use xlink:href="#DejaVuSans-77" transform="translate(88.964844 0)"/>
     </g>
    </g>
    <g id="line2d_8">
     <path d="M 48.648125 48.575 
L 58.648125 48.575 
L 68.648125 48.575 
" style="fill: none; stroke: #a50c63; stroke-width: 1.5; stroke-linecap: square"/>
    </g>
    <g id="text_8">
     <!-- high -->
     <g style="fill: #293552" transform="translate(76.648125 52.075) scale(0.1 -0.1)">
      <defs>
       <path id="DejaVuSans-68" d="M 3513 2113 
L 3513 0 
L 2938 0 
L 2938 2094 
Q 2938 2591 2744 2837 
Q 2550 3084 2163 3084 
Q 1697 3084 1428 2787 
Q 1159 2491 1159 1978 
L 1159 0 
L 581 0 
L 581 4863 
L 1159 4863 
L 1159 2956 
Q 1366 3272 1645 3428 
Q 1925 3584 2291 3584 
Q 2894 3584 3203 3211 
Q 3513 2838 3513 2113 
z
" transform="scale(0.015625)"/>
       <path id="DejaVuSans-67" d="M 2906 1791 
Q 2906 2416 2648 2759 
Q 2391 3103 1925 3103 
Q 1463 3103 1205 2759 
Q 947 2416 947 1791 
Q 947 1169 1205 825 
Q 1463 481 1925 481 
Q 2391 481 2648 825 
Q 2906 1169 2906 1791 
z
M 3481 434 
Q 3481 -459 3084 -895 
Q 2688 -1331 1869 -1331 
Q 1566 -1331 1297 -1286 
Q 1028 -1241 775 -1147 
L 775 -588 
Q 1028 -725 1275 -790 
Q 1522 -856 1778 -856 
Q 2344 -856 2625 -561 
Q 2906 -266 2906 331 
L 2906 616 
Q 2728 306 2450 153 
Q 2172 0 1784 0 
Q 1141 0 747 490 
Q 353 981 353 1791 
Q 353 2603 747 3093 
Q 1141 3584 1784 3584 
Q 2172 3584 2450 3431 
Q 2728 3278 2906 2969 
L 2906 3500 
L 3481 3500 
L 3481 434 
z
" transform="scale(0.015625)"/>
      </defs>
      <use xlink:href="#DejaVuSans-68"/>
      <use xlink:href="#DejaVuSans-69" transform="translate(63.378906 0)"/>
      <use xlink:href="#DejaVuSans-67" transform="translate(91.162109 0)"/>
      <use xlink:href="#DejaVuSans-68" transform="translate(154.638672 0)"/>
     </g>
    </g>
   </g>
  </g>
  <g id="axes_2">
   <g id="patch_5">
    <path d="M 175.536094 148.808361 
L 303.546017 148.808361 
L 303.546017 20.798437 
L 175.536094 20.798437 
L 175.536094 148.808361 
z
" style="fill: none"/>
   </g>
   <g id="matplotlib.axis_3">
    <g id="xtick_3">
     <g id="line2d_9"/>
     <g id="text_9">
      <!-- 0 -->
      <g style="fill: #293552" transform="translate(178.809727 158.387111) scale(0.08 -0.08)">
       <use xlink:href="#DejaVuSans-30"/>
      </g>
     </g>
    </g>
    <g id="xtick_4">
     <g id="line2d_10"/>
     <g id="text_10">
      <!-- 127 -->
      <g style="fill: #293552" transform="translate(290.092384 158.387111) scale(0.08 -0.08)">
       <use xlink:href="#DejaVuSans-31"/>
       <use xlink:href="#DejaVuSans-32" transform="translate(63.623047 0)"/>
       <use xlink:href="#DejaVuSans-37" transform="translate(127.246094 0)"/>
      </g>
     </g>
    </g>
   </g>
   <g id="matplotlib.axis_4">
    <g id="ytick_3">
     <g id="line2d_11"/>
    </g>
    <g id="ytick_4">
     <g id="line2d_12"/>
    </g>
   </g>
   <g id="line2d_13">
    <path d="M 181.354727 142.989728 
L 218.923852 105.420602 
L 219.840172 105.420602 
L 223.505453 101.755322 
L 224.421773 101.755322 
L 226.254413 99.922681 
L 231.752334 99.922681 
L 234.501295 102.671642 
L 238.166575 110.002203 
L 239.999215 115.500124 
L 240.915536 117.332764 
L 243.664496 125.579645 
L 248.246097 134.742847 
L 250.078737 136.575487 
L 250.995057 138.408127 
L 251.911377 138.408127 
L 253.744017 140.240767 
L 254.660338 140.240767 
L 255.576658 141.157087 
L 257.409298 141.157087 
L 258.325618 142.073408 
L 261.990899 142.073408 
L 262.907219 142.989728 
L 297.727384 142.989728 
L 297.727384 142.989728 
" clip-path="url(#pf63e765b41)" style="fill: none; stroke: #efa231; stroke-width: 1.5; stroke-linecap: square"/>
   </g>
   <g id="line2d_14">
    <path d="M 181.354727 142.989728 
L 218.923852 142.989728 
L 219.840172 142.073408 
L 223.505453 142.073408 
L 224.421773 141.157087 
L 226.254413 141.157087 
L 231.752334 135.659167 
L 234.501295 130.161246 
L 238.166575 119.165404 
L 239.999215 111.834843 
L 240.915536 109.085883 
L 243.664496 98.090041 
L 248.246097 84.345239 
L 250.078737 80.679958 
L 250.995057 77.930998 
L 251.911377 77.014678 
L 253.744017 73.349397 
L 254.660338 72.433077 
L 255.576658 70.600437 
L 257.409298 68.767797 
L 258.325618 66.935156 
L 261.990899 63.269876 
L 262.907219 61.437236 
L 297.727384 26.61707 
L 297.727384 26.61707 
" clip-path="url(#pf63e765b41)" style="fill: none; stroke: #a50c63; stroke-width: 1.5; stroke-linecap: square"/>
   </g>
   <g id="patch_6">
    <path d="M 175.536094 148.808361 
L 175.536094 20.798437 
" style="fill: none; stroke: #293552; stroke-width: 0.8; stroke-linejoin: miter; stroke-linecap: square"/>
   </g>
   <g id="patch_7">
    <path d="M 175.536094 148.808361 
L 303.546017 148.808361 
" style="fill: none; stroke: #293552; stroke-width: 0.8; stroke-linejoin: miter; stroke-linecap: square"/>
   </g>
   <g id="text_11">
    <!-- smooth 1, not scaled -->
    <g style="fill: #293552" transform="translate(180.552774 14.798437) scale(0.1 -0.1)">
     <defs>
      <path id="DejaVuSans-Bold-6d" d="M 3781 2919 
Q 3994 3244 4286 3414 
Q 4578 3584 4928 3584 
Q 5531 3584 5847 3212 
Q 6163 2841 6163 2131 
L 6163 0 
L 5038 0 
L 5038 1825 
Q 5041 1866 5042 1909 
Q 5044 1953 5044 2034 
Q 5044 2406 4934 2573 
Q 4825 2741 4581 2741 
Q 4263 2741 4089 2478 
Q 3916 2216 3909 1719 
L 3909 0 
L 2784 0 
L 2784 1825 
Q 2784 2406 2684 2573 
Q 2584 2741 2328 2741 
Q 2006 2741 1831 2477 
Q 1656 2213 1656 1722 
L 1656 0 
L 531 0 
L 531 3500 
L 1656 3500 
L 1656 2988 
Q 1863 3284 2130 3434 
Q 2397 3584 2719 3584 
Q 3081 3584 3359 3409 
Q 3638 3234 3781 2919 
z
" transform="scale(0.015625)"/>
      <path id="DejaVuSans-Bold-31" d="M 750 831 
L 1813 831 
L 1813 3847 
L 722 3622 
L 722 4441 
L 1806 4666 
L 2950 4666 
L 2950 831 
L 4013 831 
L 4013 0 
L 750 0 
L 750 831 
z
" transform="scale(0.015625)"/>
     </defs>
     <use xlink:href="#DejaVuSans-Bold-73"/>
     <use xlink:href="#DejaVuSans-Bold-6d" transform="translate(59.521484 0)"/>
     <use xlink:href="#DejaVuSans-Bold-6f" transform="translate(163.720703 0)"/>
     <use xlink:href="#DejaVuSans-Bold-6f" transform="translate(232.421875 0)"/>
     <use xlink:href="#DejaVuSans-Bold-74" transform="translate(301.123047 0)"/>
     <use xlink:href="#DejaVuSans-Bold-68" transform="translate(348.925781 0)"/>
     <use xlink:href="#DejaVuSans-Bold-20" transform="translate(420.117188 0)"/>
     <use xlink:href="#DejaVuSans-Bold-31" transform="translate(454.931641 0)"/>
     <use xlink:href="#DejaVuSans-Bold-2c" transform="translate(524.511719 0)"/>
     <use xlink:href="#DejaVuSans-Bold-20" transform="translate(562.5 0)"/>
     <use xlink:href="#DejaVuSans-Bold-6e" transform="translate(597.314453 0)"/>
     <use xlink:href="#DejaVuSans-Bold-6f" transform="translate(668.505859 0)"/>
     <use xlink:href="#DejaVuSans-Bold-74" transform="translate(737.207031 0)"/>
     <use xlink:href="#DejaVuSans-Bold-20" transform="translate(785.009766 0)"/>
     <use xlink:href="#DejaVuSans-Bold-73" transform="translate(819.824219 0)"/>
     <use xlink:href="#DejaVuSans-Bold-63" transform="translate(879.345703 0)"/>
     <use xlink:href="#DejaVuSans-Bold-61" transform="translate(938.623047 0)"/>
     <use xlink:href="#DejaVuSans-Bold-6c" transform="translate(1006.103516 0)"/>
     <use xlink:href="#DejaVuSans-Bold-65" transform="translate(1040.380859 0)"/>
     <use xlink:href="#DejaVuSans-Bold-64" transform="translate(1108.203125 0)"/>
    </g>
   </g>
  </g>
  <g id="axes_3">
   <g id="patch_8">
    <path d="M 311.424063 148.808361 
L 439.433986 148.808361 
L 439.433986 20.798437 
L 311.424063 20.798437 
L 311.424063 148.808361 
z
" style="fill: none"/>
   </g>
   <g id="matplotlib.axis_5">
    <g id="xtick_5">
     <g id="line2d_15"/>
     <g id="text_12">
      <!-- 0 -->
      <g style="fill: #293552" transform="translate(314.697695 158.387111) scale(0.08 -0.08)">
       <use xlink:href="#DejaVuSans-30"/>
      </g>
     </g>
    </g>
    <g id="xtick_6">
     <g id="line2d_16"/>
     <g id="text_13">
      <!-- 127 -->
      <g style="fill: #293552" transform="translate(425.980353 158.387111) scale(0.08 -0.08)">
       <use xlink:href="#DejaVuSans-31"/>
       <use xlink:href="#DejaVuSans-32" transform="translate(63.623047 0)"/>
       <use xlink:href="#DejaVuSans-37" transform="translate(127.246094 0)"/>
      </g>
     </g>
    </g>
   </g>
   <g id="matplotlib.axis_6">
    <g id="ytick_5">
     <g id="line2d_17"/>
    </g>
    <g id="ytick_6">
     <g id="line2d_18"/>
    </g>
   </g>
   <g id="line2d_19">
    <path d="M 317.242695 142.989728 
L 336.485418 123.747005 
L 337.401738 123.747005 
L 344.732299 116.416444 
L 345.64862 116.416444 
L 348.39758 113.667483 
L 349.3139 113.667483 
L 351.14654 111.834843 
L 352.062861 111.834843 
L 353.895501 110.002203 
L 354.811821 110.002203 
L 355.728141 109.085883 
L 357.560781 109.085883 
L 358.477102 108.169563 
L 366.723983 108.169563 
L 367.640303 109.085883 
L 368.556623 109.085883 
L 369.472943 110.002203 
L 370.389263 110.002203 
L 371.305583 110.918523 
L 372.221904 110.918523 
L 392.380947 131.077566 
L 393.297267 131.077566 
L 396.046227 133.826526 
L 396.962547 133.826526 
L 398.795188 135.659167 
L 399.711508 135.659167 
L 400.627828 136.575487 
L 401.544148 136.575487 
L 402.460468 137.491807 
L 404.293108 137.491807 
L 405.209429 138.408127 
L 406.125749 138.408127 
L 407.042069 139.324447 
L 409.791029 139.324447 
L 410.707349 140.240767 
L 413.45631 140.240767 
L 414.37263 141.157087 
L 419.870551 141.157087 
L 420.786871 142.073408 
L 432.699033 142.073408 
L 433.615353 142.989728 
L 433.615353 142.989728 
" clip-path="url(#p0053a9cb37)" style="fill: none; stroke: #efa231; stroke-width: 1.5; stroke-linecap: square"/>
   </g>
   <g id="line2d_20">
    <path d="M 317.242695 142.989728 
L 336.485418 142.989728 
L 337.401738 142.073408 
L 344.732299 142.073408 
L 345.64862 141.157087 
L 348.39758 141.157087 
L 349.3139 140.240767 
L 351.14654 140.240767 
L 352.062861 139.324447 
L 353.895501 139.324447 
L 354.811821 138.408127 
L 355.728141 138.408127 
L 357.560781 136.575487 
L 358.477102 136.575487 
L 366.723983 128.328606 
L 367.640303 126.495965 
L 368.556623 125.579645 
L 369.472943 123.747005 
L 370.389263 122.830685 
L 371.305583 120.998044 
L 372.221904 120.081724 
L 392.380947 79.763638 
L 393.297267 78.847318 
L 396.046227 73.349397 
L 396.962547 72.433077 
L 398.795188 68.767797 
L 399.711508 67.851477 
L 400.627828 66.018836 
L 401.544148 65.102516 
L 402.460468 63.269876 
L 404.293108 61.437236 
L 405.209429 59.604595 
L 406.125749 58.688275 
L 407.042069 56.855635 
L 409.791029 54.106674 
L 410.707349 52.274034 
L 413.45631 49.525074 
L 414.37263 47.692434 
L 419.870551 42.194513 
L 420.786871 40.361872 
L 432.699033 28.449711 
L 433.615353 26.61707 
L 433.615353 26.61707 
" clip-path="url(#p0053a9cb37)" style="fill: none; stroke: #a50c63; stroke-width: 1.5; stroke-linecap: square"/>
   </g>
   <g id="patch_9">
    <path d="M 311.424063 148.808361 
L 311.424063 20.798437 
" style="fill: none; stroke: #293552; stroke-width: 0.8; stroke-linejoin: miter; stroke-linecap: square"/>
   </g>
   <g id="patch_10">
    <path d="M 311.424063 148.808361 
L 439.433986 148.808361 
" style="fill: none; stroke: #293552; stroke-width: 0.8; stroke-linejoin: miter; stroke-linecap: square"/>
   </g>
   <g id="text_14">
    <!-- smooth 2, not scaled -->
    <g style="fill: #293552" transform="translate(316.440743 14.798437) scale(0.1 -0.1)">
     <defs>
      <path id="DejaVuSans-Bold-32" d="M 1844 884 
L 3897 884 
L 3897 0 
L 506 0 
L 506 884 
L 2209 2388 
Q 2438 2594 2547 2791 
Q 2656 2988 2656 3200 
Q 2656 3528 2436 3728 
Q 2216 3928 1850 3928 
Q 1569 3928 1234 3808 
Q 900 3688 519 3450 
L 519 4475 
Q 925 4609 1322 4679 
Q 1719 4750 2100 4750 
Q 2938 4750 3402 4381 
Q 3866 4013 3866 3353 
Q 3866 2972 3669 2642 
Q 3472 2313 2841 1759 
L 1844 884 
z
" transform="scale(0.015625)"/>
     </defs>
     <use xlink:href="#DejaVuSans-Bold-73"/>
     <use xlink:href="#DejaVuSans-Bold-6d" transform="translate(59.521484 0)"/>
     <use xlink:href="#DejaVuSans-Bold-6f" transform="translate(163.720703 0)"/>
     <use xlink:href="#DejaVuSans-Bold-6f" transform="translate(232.421875 0)"/>
     <use xlink:href="#DejaVuSans-Bold-74" transform="translate(301.123047 0)"/>
     <use xlink:href="#DejaVuSans-Bold-68" transform="translate(348.925781 0)"/>
     <use xlink:href="#DejaVuSans-Bold-20" transform="translate(420.117188 0)"/>
     <use xlink:href="#DejaVuSans-Bold-32" transform="translate(454.931641 0)"/>
     <use xlink:href="#DejaVuSans-Bold-2c" transform="translate(524.511719 0)"/>
     <use xlink:href="#DejaVuSans-Bold-20" transform="translate(562.5 0)"/>
     <use xlink:href="#DejaVuSans-Bold-6e" transform="translate(597.314453 0)"/>
     <use xlink:href="#DejaVuSans-Bold-6f" transform="translate(668.505859 0)"/>
     <use xlink:href="#DejaVuSans-Bold-74" transform="translate(737.207031 0)"/>
     <use xlink:href="#DejaVuSans-Bold-20" transform="translate(785.009766 0)"/>
     <use xlink:href="#DejaVuSans-Bold-73" transform="translate(819.824219 0)"/>
     <use xlink:href="#DejaVuSans-Bold-63" transform="translate(879.345703 0)"/>
     <use xlink:href="#DejaVuSans-Bold-61" transform="translate(938.623047 0)"/>
     <use xlink:href="#DejaVuSans-Bold-6c" transform="translate(1006.103516 0)"/>
     <use xlink:href="#DejaVuSans-Bold-65" transform="translate(1040.380859 0)"/>
     <use xlink:href="#DejaVuSans-Bold-64" transform="translate(1108.203125 0)"/>
    </g>
   </g>
  </g>
  <g id="axes_4">
   <g id="patch_11">
    <path d="M 447.312031 148.808361 
L 575.321954 148.808361 
L 575.321954 20.798437 
L 447.312031 20.798437 
L 447.312031 148.808361 
z
" style="fill: none"/>
   </g>
   <g id="matplotlib.axis_7">
    <g id="xtick_7">
     <g id="line2d_21"/>
     <g id="text_15">
      <!-- 0 -->
      <g style="fill: #293552" transform="translate(450.585664 158.387111) scale(0.08 -0.08)">
       <use xlink:href="#DejaVuSans-30"/>
      </g>
     </g>
    </g>
    <g id="xtick_8">
     <g id="line2d_22"/>
     <g id="text_16">
      <!-- 127 -->
      <g style="fill: #293552" transform="translate(561.868321 158.387111) scale(0.08 -0.08)">
       <use xlink:href="#DejaVuSans-31"/>
       <use xlink:href="#DejaVuSans-32" transform="translate(63.623047 0)"/>
       <use xlink:href="#DejaVuSans-37" transform="translate(127.246094 0)"/>
      </g>
     </g>
    </g>
   </g>
   <g id="matplotlib.axis_8">
    <g id="ytick_7">
     <g id="line2d_23"/>
    </g>
    <g id="ytick_8">
     <g id="line2d_24"/>
    </g>
   </g>
   <g id="line2d_25">
    <path d="M 453.130664 142.989728 
L 459.544905 136.575487 
L 460.461225 136.575487 
L 465.042826 131.993886 
L 465.959146 131.993886 
L 468.708106 129.244926 
L 469.624427 129.244926 
L 472.373387 126.495965 
L 473.289707 126.495965 
L 474.206027 125.579645 
L 475.122347 125.579645 
L 476.954988 123.747005 
L 477.871308 123.747005 
L 478.787628 122.830685 
L 479.703948 122.830685 
L 480.620268 121.914365 
L 481.536588 121.914365 
L 482.452908 120.998044 
L 483.369229 120.998044 
L 484.285549 120.081724 
L 485.201869 120.081724 
L 486.118189 119.165404 
L 487.034509 119.165404 
L 487.950829 118.249084 
L 489.78347 118.249084 
L 490.69979 117.332764 
L 492.53243 117.332764 
L 493.44875 116.416444 
L 495.28139 116.416444 
L 496.197711 115.500124 
L 498.946671 115.500124 
L 499.862991 114.583804 
L 505.360912 114.583804 
L 506.277232 113.667483 
L 516.356754 113.667483 
L 517.273074 114.583804 
L 522.770995 114.583804 
L 523.687315 115.500124 
L 526.436275 115.500124 
L 527.352595 116.416444 
L 529.185235 116.416444 
L 530.101556 117.332764 
L 531.934196 117.332764 
L 532.850516 118.249084 
L 534.683156 118.249084 
L 535.599476 119.165404 
L 536.515797 119.165404 
L 537.432117 120.081724 
L 538.348437 120.081724 
L 539.264757 120.998044 
L 540.181077 120.998044 
L 541.097397 121.914365 
L 542.013717 121.914365 
L 542.930038 122.830685 
L 543.846358 122.830685 
L 544.762678 123.747005 
L 545.678998 123.747005 
L 547.511638 125.579645 
L 548.427958 125.579645 
L 549.344278 126.495965 
L 550.260599 126.495965 
L 553.009559 129.244926 
L 553.925879 129.244926 
L 556.67484 131.993886 
L 557.59116 131.993886 
L 562.17276 136.575487 
L 563.089081 136.575487 
L 569.503321 142.989728 
L 569.503321 142.989728 
" clip-path="url(#pf1d9ae4a6d)" style="fill: none; stroke: #efa231; stroke-width: 1.5; stroke-linecap: square"/>
   </g>
   <g id="line2d_26">
    <path d="M 453.130664 142.989728 
L 459.544905 142.989728 
L 460.461225 142.073408 
L 465.042826 142.073408 
L 465.959146 141.157087 
L 468.708106 141.157087 
L 469.624427 140.240767 
L 472.373387 140.240767 
L 473.289707 139.324447 
L 474.206027 139.324447 
L 475.122347 138.408127 
L 476.954988 138.408127 
L 477.871308 137.491807 
L 478.787628 137.491807 
L 479.703948 136.575487 
L 480.620268 136.575487 
L 481.536588 135.659167 
L 482.452908 135.659167 
L 483.369229 134.742847 
L 484.285549 134.742847 
L 485.201869 133.826526 
L 486.118189 133.826526 
L 487.034509 132.910206 
L 487.950829 132.910206 
L 489.78347 131.077566 
L 490.69979 131.077566 
L 492.53243 129.244926 
L 493.44875 129.244926 
L 495.28139 127.412285 
L 496.197711 127.412285 
L 498.946671 124.663325 
L 499.862991 124.663325 
L 505.360912 119.165404 
L 506.277232 119.165404 
L 516.356754 109.085883 
L 517.273074 107.253242 
L 522.770995 101.755322 
L 523.687315 99.922681 
L 526.436275 97.173721 
L 527.352595 95.341081 
L 529.185235 93.50844 
L 530.101556 91.6758 
L 531.934196 89.84316 
L 532.850516 88.01052 
L 534.683156 86.177879 
L 535.599476 84.345239 
L 536.515797 83.428919 
L 537.432117 81.596279 
L 538.348437 80.679958 
L 539.264757 78.847318 
L 540.181077 77.930998 
L 541.097397 76.098358 
L 542.013717 75.182038 
L 542.930038 73.349397 
L 543.846358 72.433077 
L 544.762678 70.600437 
L 545.678998 69.684117 
L 547.511638 66.018836 
L 548.427958 65.102516 
L 549.344278 63.269876 
L 550.260599 62.353556 
L 553.009559 56.855635 
L 553.925879 55.939315 
L 556.67484 50.441394 
L 557.59116 49.525074 
L 562.17276 40.361872 
L 563.089081 39.445552 
L 569.503321 26.61707 
L 569.503321 26.61707 
" clip-path="url(#pf1d9ae4a6d)" style="fill: none; stroke: #a50c63; stroke-width: 1.5; stroke-linecap: square"/>
   </g>
   <g id="patch_12">
    <path d="M 447.312031 148.808361 
L 447.312031 20.798437 
" style="fill: none; stroke: #293552; stroke-width: 0.8; stroke-linejoin: miter; stroke-linecap: square"/>
   </g>
   <g id="patch_13">
    <path d="M 447.312031 148.808361 
L 575.321954 148.808361 
" style="fill: none; stroke: #293552; stroke-width: 0.8; stroke-linejoin: miter; stroke-linecap: square"/>
   </g>
   <g id="text_17">
    <!-- linear, not scaled -->
    <g style="fill: #293552" transform="translate(463.072462 14.798437) scale(0.1 -0.1)">
     <defs>
      <path id="DejaVuSans-Bold-69" d="M 538 3500 
L 1656 3500 
L 1656 0 
L 538 0 
L 538 3500 
z
M 538 4863 
L 1656 4863 
L 1656 3950 
L 538 3950 
L 538 4863 
z
" transform="scale(0.015625)"/>
     </defs>
     <use xlink:href="#DejaVuSans-Bold-6c"/>
     <use xlink:href="#DejaVuSans-Bold-69" transform="translate(34.277344 0)"/>
     <use xlink:href="#DejaVuSans-Bold-6e" transform="translate(68.554688 0)"/>
     <use xlink:href="#DejaVuSans-Bold-65" transform="translate(139.746094 0)"/>
     <use xlink:href="#DejaVuSans-Bold-61" transform="translate(207.568359 0)"/>
     <use xlink:href="#DejaVuSans-Bold-72" transform="translate(275.048828 0)"/>
     <use xlink:href="#DejaVuSans-Bold-2c" transform="translate(309.615234 0)"/>
     <use xlink:href="#DejaVuSans-Bold-20" transform="translate(347.603516 0)"/>
     <use xlink:href="#DejaVuSans-Bold-6e" transform="translate(382.417969 0)"/>
     <use xlink:href="#DejaVuSans-Bold-6f" transform="translate(453.609375 0)"/>
     <use xlink:href="#DejaVuSans-Bold-74" transform="translate(522.310547 0)"/>
     <use xlink:href="#DejaVuSans-Bold-20" transform="translate(570.113281 0)"/>
     <use xlink:href="#DejaVuSans-Bold-73" transform="translate(604.927734 0)"/>
     <use xlink:href="#DejaVuSans-Bold-63" transform="translate(664.449219 0)"/>
     <use xlink:href="#DejaVuSans-Bold-61" transform="translate(723.726562 0)"/>
     <use xlink:href="#DejaVuSans-Bold-6c" transform="translate(791.207031 0)"/>
     <use xlink:href="#DejaVuSans-Bold-65" transform="translate(825.484375 0)"/>
     <use xlink:href="#DejaVuSans-Bold-64" transform="translate(893.306641 0)"/>
    </g>
   </g>
  </g>
  <g id="axes_5">
   <g id="patch_14">
    <path d="M 39.648125 307.659701 
L 167.658048 307.659701 
L 167.658048 179.649778 
L 39.648125 179.649778 
L 39.648125 307.659701 
z
" style="fill: none"/>
   </g>
   <g id="matplotlib.axis_9">
    <g id="xtick_9">
     <g id="line2d_27"/>
     <g id="text_18">
      <!-- 0 -->
      <g style="fill: #293552" transform="translate(42.921758 317.238451) scale(0.08 -0.08)">
       <use xlink:href="#DejaVuSans-30"/>
      </g>
     </g>
    </g>
    <g id="xtick_10">
     <g id="line2d_28"/>
     <g id="text_19">
      <!-- 127 -->
      <g style="fill: #293552" transform="translate(154.204415 317.238451) scale(0.08 -0.08)">
       <use xlink:href="#DejaVuSans-31"/>
       <use xlink:href="#DejaVuSans-32" transform="translate(63.623047 0)"/>
       <use xlink:href="#DejaVuSans-37" transform="translate(127.246094 0)"/>
      </g>
     </g>
    </g>
    <g id="text_20">
     <!-- input velocity -->
     <g style="fill: #293552" transform="translate(69.660899 330.500639) scale(0.1 -0.1)">
      <defs>
       <path id="DejaVuSans-6e" d="M 3513 2113 
L 3513 0 
L 2938 0 
L 2938 2094 
Q 2938 2591 2744 2837 
Q 2550 3084 2163 3084 
Q 1697 3084 1428 2787 
Q 1159 2491 1159 1978 
L 1159 0 
L 581 0 
L 581 3500 
L 1159 3500 
L 1159 2956 
Q 1366 3272 1645 3428 
Q 1925 3584 2291 3584 
Q 2894 3584 3203 3211 
Q 3513 2838 3513 2113 
z
" transform="scale(0.015625)"/>
      </defs>
      <use xlink:href="#DejaVuSans-69"/>
      <use xlink:href="#DejaVuSans-6e" transform="translate(27.783203 0)"/>
      <use xlink:href="#DejaVuSans-70" transform="translate(91.162109 0)"/>
      <use xlink:href="#DejaVuSans-75" transform="translate(154.638672 0)"/>
      <use xlink:href="#DejaVuSans-74" transform="translate(218.017578 0)"/>
      <use xlink:href="#DejaVuSans-20" transform="translate(257.226562 0)"/>
      <use xlink:href="#DejaVuSans-76" transform="translate(289.013672 0)"/>
      <use xlink:href="#DejaVuSans-65" transform="translate(348.193359 0)"/>
      <use xlink:href="#DejaVuSans-6c" transform="translate(409.716797 0)"/>
      <use xlink:href="#DejaVuSans-6f" transform="translate(437.5 0)"/>
      <use xlink:href="#DejaVuSans-63" transform="translate(498.681641 0)"/>
      <use xlink:href="#DejaVuSans-69" transform="translate(553.662109 0)"/>
      <use xlink:href="#DejaVuSans-74" transform="translate(581.445312 0)"/>
      <use xlink:href="#DejaVuSans-79" transform="translate(620.654297 0)"/>
     </g>
    </g>
   </g>
   <g id="matplotlib.axis_10">
    <g id="ytick_9">
     <g id="line2d_29"/>
     <g id="text_21">
      <!-- 0 -->
      <g style="fill: #293552" transform="translate(31.058125 304.880443) scale(0.08 -0.08)">
       <use xlink:href="#DejaVuSans-30"/>
      </g>
     </g>
    </g>
    <g id="ytick_10">
     <g id="line2d_30"/>
     <g id="text_22">
      <!-- 127 -->
      <g style="fill: #293552" transform="translate(20.878125 188.507786) scale(0.08 -0.08)">
       <use xlink:href="#DejaVuSans-31"/>
       <use xlink:href="#DejaVuSans-32" transform="translate(63.623047 0)"/>
       <use xlink:href="#DejaVuSans-37" transform="translate(127.246094 0)"/>
      </g>
     </g>
    </g>
    <g id="text_23">
     <!-- output velocity -->
     <g style="fill: #293552" transform="translate(14.798438 281.277396) rotate(-90) scale(0.1 -0.1)">
      <use xlink:href="#DejaVuSans-6f"/>
      <use xlink:href="#DejaVuSans-75" transform="translate(61.181641 0)"/>
      <use xlink:href="#DejaVuSans-74" transform="translate(124.560547 0)"/>
      <use xlink:href="#DejaVuSans-70" transform="translate(163.769531 0)"/>
      <use xlink:href="#DejaVuSans-75" transform="translate(227.246094 0)"/>
      <use xlink:href="#DejaVuSans-74" transform="translate(290.625 0)"/>
      <use xlink:href="#DejaVuSans-20" transform="translate(329.833984 0)"/>
      <use xlink:href="#DejaVuSans-76" transform="translate(361.621094 0)"/>
      <use xlink:href="#DejaVuSans-65" transform="translate(420.800781 0)"/>
      <use xlink:href="#DejaVuSans-6c" transform="translate(482.324219 0)"/>
      <use xlink:href="#DejaVuSans-6f" transform="translate(510.107422 0)"/>
      <use xlink:href="#DejaVuSans-63" transform="translate(571.289062 0)"/>
      <use xlink:href="#DejaVuSans-69" transform="translate(626.269531 0)"/>
      <use xlink:href="#DejaVuSans-74" transform="translate(654.052734 0)"/>
      <use xlink:href="#DejaVuSans-79" transform="translate(693.261719 0)"/>
     </g>
    </g>
   </g>
   <g id="line2d_31">
    <path d="M 45.466758 301.841068 
L 73.872682 245.02922 
L 74.789002 242.280259 
L 103.194926 185.468411 
L 104.111247 301.841068 
L 161.839415 301.841068 
L 161.839415 301.841068 
" clip-path="url(#p8055e34244)" style="fill: none; stroke: #efa231; stroke-width: 1.5; stroke-linecap: square"/>
   </g>
   <g id="line2d_32">
    <path d="M 45.466758 301.841068 
L 104.111247 301.841068 
L 132.517171 245.02922 
L 133.433491 242.280259 
L 161.839415 185.468411 
L 161.839415 185.468411 
" clip-path="url(#p8055e34244)" style="fill: none; stroke: #a50c63; stroke-width: 1.5; stroke-linecap: square"/>
   </g>
   <g id="patch_15">
    <path d="M 39.648125 307.659701 
L 39.648125 179.649778 
" style="fill: none; stroke: #293552; stroke-width: 0.8; stroke-linejoin: miter; stroke-linecap: square"/>
   </g>
   <g id="patch_16">
    <path d="M 39.648125 307.659701 
L 167.658048 307.659701 
" style="fill: none; stroke: #293552; stroke-width: 0.8; stroke-linejoin: miter; stroke-linecap: square"/>
   </g>
   <g id="text_24">
    <!-- hard, scaled -->
    <g style="fill: #293552" transform="translate(69.03668 173.649778) scale(0.1 -0.1)">
     <use xlink:href="#DejaVuSans-Bold-68"/>
     <use xlink:href="#DejaVuSans-Bold-61" transform="translate(71.191406 0)"/>
     <use xlink:href="#DejaVuSans-Bold-72" transform="translate(138.671875 0)"/>
     <use xlink:href="#DejaVuSans-Bold-64" transform="translate(187.988281 0)"/>
     <use xlink:href="#DejaVuSans-Bold-2c" transform="translate(259.570312 0)"/>
     <use xlink:href="#DejaVuSans-Bold-20" transform="translate(297.558594 0)"/>
     <use xlink:href="#DejaVuSans-Bold-73" transform="translate(332.373047 0)"/>
     <use xlink:href="#DejaVuSans-Bold-63" transform="translate(391.894531 0)"/>
     <use xlink:href="#DejaVuSans-Bold-61" transform="translate(451.171875 0)"/>
     <use xlink:href="#DejaVuSans-Bold-6c" transform="translate(518.652344 0)"/>
     <use xlink:href="#DejaVuSans-Bold-65" transform="translate(552.929688 0)"/>
     <use xlink:href="#DejaVuSans-Bold-64" transform="translate(620.751953 0)"/>
    </g>
   </g>
  </g>
  <g id="axes_6">
   <g id="patch_17">
    <path d="M 175.536094 307.659701 
L 303.546017 307.659701 
L 303.546017 179.649778 
L 175.536094 179.649778 
L 175.536094 307.659701 
z
" style="fill: none"/>
   </g>
   <g id="matplotlib.axis_11">
    <g id="xtick_11">
     <g id="line2d_33"/>
     <g id="text_25">
      <!-- 0 -->
      <g style="fill: #293552" transform="translate(178.809727 317.238451) scale(0.08 -0.08)">
       <use xlink:href="#DejaVuSans-30"/>
      </g>
     </g>
    </g>
    <g id="xtick_12">
     <g id="line2d_34"/>
     <g id="text_26">
      <!-- 127 -->
      <g style="fill: #293552" transform="translate(290.092384 317.238451) scale(0.08 -0.08)">
       <use xlink:href="#DejaVuSans-31"/>
       <use xlink:href="#DejaVuSans-32" transform="translate(63.623047 0)"/>
       <use xlink:href="#DejaVuSans-37" transform="translate(127.246094 0)"/>
      </g>
     </g>
    </g>
    <g id="text_27">
     <!-- input velocity -->
     <g style="fill: #293552" transform="translate(205.548868 330.500639) scale(0.1 -0.1)">
      <use xlink:href="#DejaVuSans-69"/>
      <use xlink:href="#DejaVuSans-6e" transform="translate(27.783203 0)"/>
      <use xlink:href="#DejaVuSans-70" transform="translate(91.162109 0)"/>
      <use xlink:href="#DejaVuSans-75" transform="translate(154.638672 0)"/>
      <use xlink:href="#DejaVuSans-74" transform="translate(218.017578 0)"/>
      <use xlink:href="#DejaVuSans-20" transform="translate(257.226562 0)"/>
      <use xlink:href="#DejaVuSans-76" transform="translate(289.013672 0)"/>
      <use xlink:href="#DejaVuSans-65" transform="translate(348.193359 0)"/>
      <use xlink:href="#DejaVuSans-6c" transform="translate(409.716797 0)"/>
      <use xlink:href="#DejaVuSans-6f" transform="translate(437.5 0)"/>
      <use xlink:href="#DejaVuSans-63" transform="translate(498.681641 0)"/>
      <use xlink:href="#DejaVuSans-69" transform="translate(553.662109 0)"/>
      <use xlink:href="#DejaVuSans-74" transform="translate(581.445312 0)"/>
      <use xlink:href="#DejaVuSans-79" transform="translate(620.654297 0)"/>
     </g>
    </g>
   </g>
   <g id="matplotlib.axis_12">
    <g id="ytick_11">
     <g id="line2d_35"/>
    </g>
    <g id="ytick_12">
     <g id="line2d_36"/>
    </g>
   </g>
   <g id="line2d_37">
    <path d="M 181.354727 301.841068 
L 182.271047 299.092108 
L 183.187367 297.259468 
L 185.020007 291.761547 
L 185.936327 289.928907 
L 187.768968 284.430986 
L 188.685288 282.598345 
L 190.517928 277.100425 
L 191.434248 275.267784 
L 193.266888 269.769864 
L 194.183209 267.937223 
L 196.015849 262.439302 
L 196.932169 260.606662 
L 198.764809 255.108741 
L 199.681129 253.276101 
L 202.43009 245.02922 
L 203.34641 243.19658 
L 205.17905 237.698659 
L 206.09537 235.866019 
L 207.928011 230.368098 
L 208.844331 228.535457 
L 209.760651 225.786497 
L 210.676971 223.953857 
L 212.509611 218.455936 
L 213.425931 216.623296 
L 215.258572 211.125375 
L 216.174892 209.292735 
L 217.091212 206.543774 
L 218.007532 204.711134 
L 218.923852 201.962173 
L 220.756493 198.296893 
L 221.672813 195.547932 
L 224.421773 190.050012 
L 225.338093 189.133692 
L 226.254413 187.301051 
L 228.087054 185.468411 
L 229.919694 185.468411 
L 231.752334 187.301051 
L 233.584974 190.966332 
L 235.417615 198.296893 
L 236.333935 202.878494 
L 238.166575 213.874335 
L 239.082895 220.288576 
L 239.999215 227.619137 
L 240.915536 234.033378 
L 241.831856 241.363939 
L 244.580816 260.606662 
L 245.497136 266.104583 
L 248.246097 279.849385 
L 249.162417 282.598345 
L 250.078737 286.263626 
L 250.995057 288.096266 
L 251.911377 290.845227 
L 253.744017 294.510507 
L 258.325618 299.092108 
L 259.241938 299.092108 
L 260.158258 300.008428 
L 261.990899 300.008428 
L 262.907219 300.924748 
L 263.823539 300.924748 
L 264.739859 301.841068 
L 297.727384 301.841068 
L 297.727384 301.841068 
" clip-path="url(#p5b1b06a47c)" style="fill: none; stroke: #efa231; stroke-width: 1.5; stroke-linecap: square"/>
   </g>
   <g id="line2d_38">
    <path d="M 181.354727 301.841068 
L 224.421773 301.841068 
L 225.338093 300.924748 
L 228.087054 300.924748 
L 229.003374 300.008428 
L 229.919694 300.008428 
L 234.501295 295.426827 
L 239.082895 286.263626 
L 241.831856 278.016745 
L 242.748176 276.184105 
L 245.497136 267.937223 
L 246.413456 266.104583 
L 247.329776 263.355623 
L 248.246097 261.522982 
L 249.162417 258.774022 
L 254.660338 247.77818 
L 255.576658 246.86186 
L 257.409298 243.19658 
L 258.325618 242.280259 
L 259.241938 240.447619 
L 260.158258 239.531299 
L 261.074579 237.698659 
L 261.990899 236.782339 
L 262.907219 234.949698 
L 263.823539 234.033378 
L 264.739859 232.200738 
L 265.656179 231.284418 
L 266.572499 229.451778 
L 267.488819 228.535457 
L 268.40514 226.702817 
L 269.32146 225.786497 
L 270.23778 223.953857 
L 272.07042 222.121216 
L 272.98674 220.288576 
L 273.90306 219.372256 
L 274.819381 217.539616 
L 275.735701 216.623296 
L 276.652021 214.790655 
L 278.484661 212.958015 
L 279.400981 211.125375 
L 280.317301 210.209055 
L 281.233622 208.376414 
L 283.066262 206.543774 
L 283.982582 204.711134 
L 284.898902 203.794814 
L 285.815222 201.962173 
L 287.647862 200.129533 
L 288.564183 198.296893 
L 289.480503 197.380573 
L 290.396823 195.547932 
L 291.313143 194.631612 
L 292.229463 192.798972 
L 294.062103 190.966332 
L 294.978424 189.133692 
L 295.894744 188.217371 
L 296.811064 186.384731 
L 297.727384 185.468411 
L 297.727384 185.468411 
" clip-path="url(#p5b1b06a47c)" style="fill: none; stroke: #a50c63; stroke-width: 1.5; stroke-linecap: square"/>
   </g>
   <g id="patch_18">
    <path d="M 175.536094 307.659701 
L 175.536094 179.649778 
" style="fill: none; stroke: #293552; stroke-width: 0.8; stroke-linejoin: miter; stroke-linecap: square"/>
   </g>
   <g id="patch_19">
    <path d="M 175.536094 307.659701 
L 303.546017 307.659701 
" style="fill: none; stroke: #293552; stroke-width: 0.8; stroke-linejoin: miter; stroke-linecap: square"/>
   </g>
   <g id="text_28">
    <!-- smooth 1, scaled -->
    <g style="fill: #293552" transform="translate(191.677774 173.649778) scale(0.1 -0.1)">
     <use xlink:href="#DejaVuSans-Bold-73"/>
     <use xlink:href="#DejaVuSans-Bold-6d" transform="translate(59.521484 0)"/>
     <use xlink:href="#DejaVuSans-Bold-6f" transform="translate(163.720703 0)"/>
     <use xlink:href="#DejaVuSans-Bold-6f" transform="translate(232.421875 0)"/>
     <use xlink:href="#DejaVuSans-Bold-74" transform="translate(301.123047 0)"/>
     <use xlink:href="#DejaVuSans-Bold-68" transform="translate(348.925781 0)"/>
     <use xlink:href="#DejaVuSans-Bold-20" transform="translate(420.117188 0)"/>
     <use xlink:href="#DejaVuSans-Bold-31" transform="translate(454.931641 0)"/>
     <use xlink:href="#DejaVuSans-Bold-2c" transform="translate(524.511719 0)"/>
     <use xlink:href="#DejaVuSans-Bold-20" transform="translate(562.5 0)"/>
     <use xlink:href="#DejaVuSans-Bold-73" transform="translate(597.314453 0)"/>
     <use xlink:href="#DejaVuSans-Bold-63" transform="translate(656.835938 0)"/>
     <use xlink:href="#DejaVuSans-Bold-61" transform="translate(716.113281 0)"/>
     <use xlink:href="#DejaVuSans-Bold-6c" transform="translate(783.59375 0)"/>
     <use xlink:href="#DejaVuSans-Bold-65" transform="translate(817.871094 0)"/>
     <use xlink:href="#DejaVuSans-Bold-64" transform="translate(885.693359 0)"/>
    </g>
   </g>
  </g>
  <g id="axes_7">
   <g id="patch_20">
    <path d="M 311.424063 307.659701 
L 439.433986 307.659701 
L 439.433986 179.649778 
L 311.424063 179.649778 
L 311.424063 307.659701 
z
" style="fill: none"/>
   </g>
   <g id="matplotlib.axis_13">
    <g id="xtick_13">
     <g id="line2d_39"/>
     <g id="text_29">
      <!-- 0 -->
      <g style="fill: #293552" transform="translate(314.697695 317.238451) scale(0.08 -0.08)">
       <use xlink:href="#DejaVuSans-30"/>
      </g>
     </g>
    </g>
    <g id="xtick_14">
     <g id="line2d_40"/>
     <g id="text_30">
      <!-- 127 -->
      <g style="fill: #293552" transform="translate(425.980353 317.238451) scale(0.08 -0.08)">
       <use xlink:href="#DejaVuSans-31"/>
       <use xlink:href="#DejaVuSans-32" transform="translate(63.623047 0)"/>
       <use xlink:href="#DejaVuSans-37" transform="translate(127.246094 0)"/>
      </g>
     </g>
    </g>
    <g id="text_31">
     <!-- input velocity -->
     <g style="fill: #293552" transform="translate(341.436837 330.500639) scale(0.1 -0.1)">
      <use xlink:href="#DejaVuSans-69"/>
      <use xlink:href="#DejaVuSans-6e" transform="translate(27.783203 0)"/>
      <use xlink:href="#DejaVuSans-70" transform="translate(91.162109 0)"/>
      <use xlink:href="#DejaVuSans-75" transform="translate(154.638672 0)"/>
      <use xlink:href="#DejaVuSans-74" transform="translate(218.017578 0)"/>
      <use xlink:href="#DejaVuSans-20" transform="translate(257.226562 0)"/>
      <use xlink:href="#DejaVuSans-76" transform="translate(289.013672 0)"/>
      <use xlink:href="#DejaVuSans-65" transform="translate(348.193359 0)"/>
      <use xlink:href="#DejaVuSans-6c" transform="translate(409.716797 0)"/>
      <use xlink:href="#DejaVuSans-6f" transform="translate(437.5 0)"/>
      <use xlink:href="#DejaVuSans-63" transform="translate(498.681641 0)"/>
      <use xlink:href="#DejaVuSans-69" transform="translate(553.662109 0)"/>
      <use xlink:href="#DejaVuSans-74" transform="translate(581.445312 0)"/>
      <use xlink:href="#DejaVuSans-79" transform="translate(620.654297 0)"/>
     </g>
    </g>
   </g>
   <g id="matplotlib.axis_14">
    <g id="ytick_13">
     <g id="line2d_41"/>
    </g>
    <g id="ytick_14">
     <g id="line2d_42"/>
    </g>
   </g>
   <g id="line2d_43">
    <path d="M 317.242695 301.841068 
L 318.159016 299.092108 
L 319.075336 295.426827 
L 321.824296 287.179946 
L 322.740616 283.514666 
L 325.489577 275.267784 
L 326.405897 271.602504 
L 330.071177 260.606662 
L 330.987497 256.941382 
L 344.732299 215.706975 
L 345.64862 213.874335 
L 346.56494 211.125375 
L 347.48126 209.292735 
L 348.39758 206.543774 
L 349.3139 204.711134 
L 350.23022 201.962173 
L 353.895501 194.631612 
L 354.811821 193.715292 
L 355.728141 191.882652 
L 357.560781 190.050012 
L 358.477102 188.217371 
L 359.393422 188.217371 
L 361.226062 186.384731 
L 363.975022 186.384731 
L 364.891342 187.301051 
L 365.807663 187.301051 
L 367.640303 189.133692 
L 368.556623 190.966332 
L 369.472943 191.882652 
L 372.221904 197.380573 
L 374.054544 202.878494 
L 374.970864 204.711134 
L 376.803504 210.209055 
L 377.719824 213.874335 
L 379.552465 219.372256 
L 380.468785 223.037537 
L 381.385105 225.786497 
L 382.301425 229.451778 
L 383.217745 232.200738 
L 384.134065 235.866019 
L 385.966706 241.363939 
L 386.883026 245.02922 
L 393.297267 264.271943 
L 394.213587 266.104583 
L 395.129907 268.853543 
L 400.627828 279.849385 
L 401.544148 280.765705 
L 402.460468 282.598345 
L 403.376788 283.514666 
L 404.293108 285.347306 
L 412.53999 293.594187 
L 413.45631 293.594187 
L 415.28895 295.426827 
L 416.20527 295.426827 
L 417.12159 296.343148 
L 418.03791 296.343148 
L 418.954231 297.259468 
L 420.786871 297.259468 
L 421.703191 298.175788 
L 423.535831 298.175788 
L 424.452151 299.092108 
L 427.201112 299.092108 
L 428.117432 300.008428 
L 432.699033 300.008428 
L 433.615353 301.841068 
L 433.615353 301.841068 
" clip-path="url(#p22642ef078)" style="fill: none; stroke: #efa231; stroke-width: 1.5; stroke-linecap: square"/>
   </g>
   <g id="line2d_44">
    <path d="M 317.242695 301.841068 
L 336.485418 301.841068 
L 337.401738 300.924748 
L 344.732299 300.924748 
L 345.64862 300.008428 
L 348.39758 300.008428 
L 349.3139 299.092108 
L 351.14654 299.092108 
L 352.062861 298.175788 
L 353.895501 298.175788 
L 354.811821 297.259468 
L 355.728141 297.259468 
L 357.560781 295.426827 
L 358.477102 295.426827 
L 367.640303 286.263626 
L 368.556623 284.430986 
L 369.472943 283.514666 
L 371.305583 279.849385 
L 372.221904 278.933065 
L 374.970864 273.435144 
L 375.887184 272.518824 
L 381.385105 261.522982 
L 382.301425 258.774022 
L 390.548306 242.280259 
L 391.464626 241.363939 
L 395.129907 234.033378 
L 396.046227 233.117058 
L 397.878867 229.451778 
L 398.795188 228.535457 
L 399.711508 226.702817 
L 400.627828 225.786497 
L 401.544148 223.953857 
L 402.460468 223.037537 
L 403.376788 221.204896 
L 404.293108 220.288576 
L 405.209429 218.455936 
L 407.042069 216.623296 
L 407.958389 214.790655 
L 410.707349 212.041695 
L 411.623669 210.209055 
L 414.37263 207.460094 
L 415.28895 205.627454 
L 420.786871 200.129533 
L 421.703191 198.296893 
L 432.699033 187.301051 
L 433.615353 185.468411 
L 433.615353 185.468411 
" clip-path="url(#p22642ef078)" style="fill: none; stroke: #a50c63; stroke-width: 1.5; stroke-linecap: square"/>
   </g>
   <g id="patch_21">
    <path d="M 311.424063 307.659701 
L 311.424063 179.649778 
" style="fill: none; stroke: #293552; stroke-width: 0.8; stroke-linejoin: miter; stroke-linecap: square"/>
   </g>
   <g id="patch_22">
    <path d="M 311.424063 307.659701 
L 439.433986 307.659701 
" style="fill: none; stroke: #293552; stroke-width: 0.8; stroke-linejoin: miter; stroke-linecap: square"/>
   </g>
   <g id="text_32">
    <!-- smooth 2, scaled -->
    <g style="fill: #293552" transform="translate(327.565743 173.649778) scale(0.1 -0.1)">
     <use xlink:href="#DejaVuSans-Bold-73"/>
     <use xlink:href="#DejaVuSans-Bold-6d" transform="translate(59.521484 0)"/>
     <use xlink:href="#DejaVuSans-Bold-6f" transform="translate(163.720703 0)"/>
     <use xlink:href="#DejaVuSans-Bold-6f" transform="translate(232.421875 0)"/>
     <use xlink:href="#DejaVuSans-Bold-74" transform="translate(301.123047 0)"/>
     <use xlink:href="#DejaVuSans-Bold-68" transform="translate(348.925781 0)"/>
     <use xlink:href="#DejaVuSans-Bold-20" transform="translate(420.117188 0)"/>
     <use xlink:href="#DejaVuSans-Bold-32" transform="translate(454.931641 0)"/>
     <use xlink:href="#DejaVuSans-Bold-2c" transform="translate(524.511719 0)"/>
     <use xlink:href="#DejaVuSans-Bold-20" transform="translate(562.5 0)"/>
     <use xlink:href="#DejaVuSans-Bold-73" transform="translate(597.314453 0)"/>
     <use xlink:href="#DejaVuSans-Bold-63" transform="translate(656.835938 0)"/>
     <use xlink:href="#DejaVuSans-Bold-61" transform="translate(716.113281 0)"/>
     <use xlink:href="#DejaVuSans-Bold-6c" transform="translate(783.59375 0)"/>
     <use xlink:href="#DejaVuSans-Bold-65" transform="translate(817.871094 0)"/>
     <use xlink:href="#DejaVuSans-Bold-64" transform="translate(885.693359 0)"/>
    </g>
   </g>
  </g>
  <g id="axes_8">
   <g id="patch_23">
    <path d="M 447.312031 307.659701 
L 575.321954 307.659701 
L 575.321954 179.649778 
L 447.312031 179.649778 
L 447.312031 307.659701 
z
" style="fill: none"/>
   </g>
   <g id="matplotlib.axis_15">
    <g id="xtick_15">
     <g id="line2d_45"/>
     <g id="text_33">
      <!-- 0 -->
      <g style="fill: #293552" transform="translate(450.585664 317.238451) scale(0.08 -0.08)">
       <use xlink:href="#DejaVuSans-30"/>
      </g>
     </g>
    </g>
    <g id="xtick_16">
     <g id="line2d_46"/>
     <g id="text_34">
      <!-- 127 -->
      <g style="fill: #293552" transform="translate(561.868321 317.238451) scale(0.08 -0.08)">
       <use xlink:href="#DejaVuSans-31"/>
       <use xlink:href="#DejaVuSans-32" transform="translate(63.623047 0)"/>
       <use xlink:href="#DejaVuSans-37" transform="translate(127.246094 0)"/>
      </g>
     </g>
    </g>
    <g id="text_35">
     <!-- input velocity -->
     <g style="fill: #293552" transform="translate(477.324805 330.500639) scale(0.1 -0.1)">
      <use xlink:href="#DejaVuSans-69"/>
      <use xlink:href="#DejaVuSans-6e" transform="translate(27.783203 0)"/>
      <use xlink:href="#DejaVuSans-70" transform="translate(91.162109 0)"/>
      <use xlink:href="#DejaVuSans-75" transform="translate(154.638672 0)"/>
      <use xlink:href="#DejaVuSans-74" transform="translate(218.017578 0)"/>
      <use xlink:href="#DejaVuSans-20" transform="translate(257.226562 0)"/>
      <use xlink:href="#DejaVuSans-76" transform="translate(289.013672 0)"/>
      <use xlink:href="#DejaVuSans-65" transform="translate(348.193359 0)"/>
      <use xlink:href="#DejaVuSans-6c" transform="translate(409.716797 0)"/>
      <use xlink:href="#DejaVuSans-6f" transform="translate(437.5 0)"/>
      <use xlink:href="#DejaVuSans-63" transform="translate(498.681641 0)"/>
      <use xlink:href="#DejaVuSans-69" transform="translate(553.662109 0)"/>
      <use xlink:href="#DejaVuSans-74" transform="translate(581.445312 0)"/>
      <use xlink:href="#DejaVuSans-79" transform="translate(620.654297 0)"/>
     </g>
    </g>
   </g>
   <g id="matplotlib.axis_16">
    <g id="ytick_15">
     <g id="line2d_47"/>
    </g>
    <g id="ytick_16">
     <g id="line2d_48"/>
    </g>
   </g>
   <g id="line2d_49">
    <path d="M 453.130664 301.841068 
L 455.879625 290.845227 
L 456.795945 288.096266 
L 458.628585 280.765705 
L 459.544905 278.016745 
L 460.461225 274.351464 
L 461.377545 271.602504 
L 462.293865 267.937223 
L 465.959146 256.941382 
L 466.875466 253.276101 
L 467.791786 250.527141 
L 468.708106 248.6945 
L 472.373387 237.698659 
L 473.289707 235.866019 
L 474.206027 233.117058 
L 475.122347 231.284418 
L 476.038668 228.535457 
L 477.871308 224.870177 
L 478.787628 222.121216 
L 485.201869 209.292735 
L 486.118189 208.376414 
L 487.950829 204.711134 
L 488.867149 203.794814 
L 489.78347 201.962173 
L 490.69979 201.045853 
L 491.61611 199.213213 
L 495.28139 195.547932 
L 496.197711 193.715292 
L 497.114031 192.798972 
L 498.030351 192.798972 
L 501.695631 189.133692 
L 502.611952 189.133692 
L 503.528272 188.217371 
L 504.444592 188.217371 
L 505.360912 187.301051 
L 507.193552 187.301051 
L 508.109872 186.384731 
L 514.524113 186.384731 
L 515.440433 187.301051 
L 517.273074 187.301051 
L 518.189394 188.217371 
L 519.105714 188.217371 
L 520.022034 189.133692 
L 520.938354 189.133692 
L 524.603635 192.798972 
L 525.519955 192.798972 
L 526.436275 193.715292 
L 527.352595 195.547932 
L 531.017876 199.213213 
L 531.934196 201.045853 
L 532.850516 201.962173 
L 533.766836 203.794814 
L 534.683156 204.711134 
L 536.515797 208.376414 
L 537.432117 209.292735 
L 543.846358 222.121216 
L 544.762678 224.870177 
L 546.595318 228.535457 
L 547.511638 231.284418 
L 548.427958 233.117058 
L 549.344278 235.866019 
L 550.260599 237.698659 
L 553.925879 248.6945 
L 554.842199 250.527141 
L 555.758519 253.276101 
L 556.67484 256.941382 
L 560.34012 267.937223 
L 561.25644 271.602504 
L 562.17276 274.351464 
L 563.089081 278.016745 
L 564.005401 280.765705 
L 565.838041 288.096266 
L 566.754361 290.845227 
L 569.503321 301.841068 
L 569.503321 301.841068 
" clip-path="url(#p0a542f83c2)" style="fill: none; stroke: #efa231; stroke-width: 1.5; stroke-linecap: square"/>
   </g>
   <g id="line2d_50">
    <path d="M 453.130664 301.841068 
L 459.544905 301.841068 
L 460.461225 300.924748 
L 465.042826 300.924748 
L 465.959146 300.008428 
L 468.708106 300.008428 
L 469.624427 299.092108 
L 472.373387 299.092108 
L 473.289707 298.175788 
L 474.206027 298.175788 
L 475.122347 297.259468 
L 476.954988 297.259468 
L 477.871308 296.343148 
L 478.787628 296.343148 
L 479.703948 295.426827 
L 480.620268 295.426827 
L 481.536588 294.510507 
L 482.452908 294.510507 
L 483.369229 293.594187 
L 484.285549 293.594187 
L 485.201869 292.677867 
L 486.118189 292.677867 
L 487.034509 291.761547 
L 487.950829 291.761547 
L 489.78347 289.928907 
L 490.69979 289.928907 
L 492.53243 288.096266 
L 493.44875 288.096266 
L 495.28139 286.263626 
L 496.197711 286.263626 
L 498.946671 283.514666 
L 499.862991 283.514666 
L 505.360912 278.016745 
L 506.277232 278.016745 
L 516.356754 267.937223 
L 517.273074 266.104583 
L 522.770995 260.606662 
L 523.687315 258.774022 
L 526.436275 256.025062 
L 527.352595 254.192421 
L 529.185235 252.359781 
L 530.101556 250.527141 
L 531.934196 248.6945 
L 532.850516 246.86186 
L 534.683156 245.02922 
L 535.599476 243.19658 
L 536.515797 242.280259 
L 537.432117 240.447619 
L 538.348437 239.531299 
L 539.264757 237.698659 
L 540.181077 236.782339 
L 541.097397 234.949698 
L 542.013717 234.033378 
L 542.930038 232.200738 
L 543.846358 231.284418 
L 544.762678 229.451778 
L 545.678998 228.535457 
L 547.511638 224.870177 
L 548.427958 223.953857 
L 549.344278 222.121216 
L 550.260599 221.204896 
L 553.009559 215.706975 
L 553.925879 214.790655 
L 556.67484 209.292735 
L 557.59116 208.376414 
L 562.17276 199.213213 
L 563.089081 198.296893 
L 569.503321 185.468411 
L 569.503321 185.468411 
" clip-path="url(#p0a542f83c2)" style="fill: none; stroke: #a50c63; stroke-width: 1.5; stroke-linecap: square"/>
   </g>
   <g id="patch_24">
    <path d="M 447.312031 307.659701 
L 447.312031 179.649778 
" style="fill: none; stroke: #293552; stroke-width: 0.8; stroke-linejoin: miter; stroke-linecap: square"/>
   </g>
   <g id="patch_25">
    <path d="M 447.312031 307.659701 
L 575.321954 307.659701 
" style="fill: none; stroke: #293552; stroke-width: 0.8; stroke-linejoin: miter; stroke-linecap: square"/>
   </g>
   <g id="text_36">
    <!-- linear, scaled -->
    <g style="fill: #293552" transform="translate(474.197462 173.649778) scale(0.1 -0.1)">
     <use xlink:href="#DejaVuSans-Bold-6c"/>
     <use xlink:href="#DejaVuSans-Bold-69" transform="translate(34.277344 0)"/>
     <use xlink:href="#DejaVuSans-Bold-6e" transform="translate(68.554688 0)"/>
     <use xlink:href="#DejaVuSans-Bold-65" transform="translate(139.746094 0)"/>
     <use xlink:href="#DejaVuSans-Bold-61" transform="translate(207.568359 0)"/>
     <use xlink:href="#DejaVuSans-Bold-72" transform="translate(275.048828 0)"/>
     <use xlink:href="#DejaVuSans-Bold-2c" transform="translate(309.615234 0)"/>
     <use xlink:href="#DejaVuSans-Bold-20" transform="translate(347.603516 0)"/>
     <use xlink:href="#DejaVuSans-Bold-73" transform="translate(382.417969 0)"/>
     <use xlink:href="#DejaVuSans-Bold-63" transform="translate(441.939453 0)"/>
     <use xlink:href="#DejaVuSans-Bold-61" transform="translate(501.216797 0)"/>
     <use xlink:href="#DejaVuSans-Bold-6c" transform="translate(568.697266 0)"/>
     <use xlink:href="#DejaVuSans-Bold-65" transform="translate(602.974609 0)"/>
     <use xlink:href="#DejaVuSans-Bold-64" transform="translate(670.796875 0)"/>
    </g>
   </g>
  </g>
 </g>
 <defs>
  <clipPath id="p4c010efa54">
   <rect x="39.648125" y="20.798437" width="128.009923" height="128.009923"/>
  </clipPath>
  <clipPath id="pf63e765b41">
   <rect x="175.536094" y="20.798437" width="128.009923" height="128.009923"/>
  </clipPath>
  <clipPath id="p0053a9cb37">
   <rect x="311.424063" y="20.798437" width="128.009923" height="128.009923"/>
  </clipPath>
  <clipPath id="pf1d9ae4a6d">
   <rect x="447.312031" y="20.798437" width="128.009923" height="128.009923"/>
  </clipPath>
  <clipPath id="p8055e34244">
   <rect x="39.648125" y="179.649778" width="128.009923" height="128.009923"/>
  </clipPath>
  <clipPath id="p5b1b06a47c">
   <rect x="175.536094" y="179.649778" width="128.009923" height="128.009923"/>
  </clipPath>
  <clipPath id="p22642ef078">
   <rect x="311.424063" y="179.649778" width="128.009923" height="128.009923"/>
  </clipPath>
  <clipPath id="p0a542f83c2">
   <rect x="447.312031" y="179.649778" width="128.009923" height="128.009923"/>
  </clipPath>
 </defs>
</svg>
