<?xml version="1.0" encoding="utf-8" standalone="no"?>
<!DOCTYPE svg PUBLIC "-//W3C//DTD SVG 1.1//EN"
  "http://www.w3.org/Graphics/SVG/1.1/DTD/svg11.dtd">
<svg xmlns:xlink="http://www.w3.org/1999/xlink" width="872.343299pt" height="163.025316pt" viewBox="0 0 872.343299 163.025316" xmlns="http://www.w3.org/2000/svg" version="1.1">
 <metadata>
  <rdf:RDF xmlns:dc="http://purl.org/dc/elements/1.1/" xmlns:cc="http://creativecommons.org/ns#" xmlns:rdf="http://www.w3.org/1999/02/22-rdf-syntax-ns#">
   <cc:Work>
    <dc:type rdf:resource="http://purl.org/dc/dcmitype/StillImage"/>
    <dc:date>2025-05-08T15:07:35.709696</dc:date>
    <dc:format>image/svg+xml</dc:format>
    <dc:creator>
     <cc:Agent>
      <dc:title>Matplotlib v3.10.1, https://matplotlib.org/</dc:title>
     </cc:Agent>
    </dc:creator>
   </cc:Work>
  </rdf:RDF>
 </metadata>
 <defs>
  <style type="text/css">*{stroke-linejoin: round; stroke-linecap: butt}</style>
 </defs>
 <g id="figure_1">
  <g id="patch_1">
   <path d="M 0 163.025316 
L 872.343299 163.025316 
L 872.343299 0 
L 0 0 
L 0 163.025316 
z
" style="fill: none"/>
  </g>
  <g id="axes_1">
   <g id="patch_2">
    <path d="M 39.648125 130.904691 
L 149.754379 130.904691 
L 149.754379 20.798437 
L 39.648125 20.798437 
L 39.648125 130.904691 
z
" style="fill: none"/>
   </g>
   <g id="matplotlib.axis_1">
    <g id="xtick_1">
     <g id="line2d_1"/>
     <g id="text_1">
      <!-- 0 -->
      <g style="fill: #293552" transform="translate(42.107955 140.483441) scale(0.08 -0.08)">
       <defs>
        <path id="DejaVuSans-30" d="M 2034 4250 
Q 1547 4250 1301 3770 
Q 1056 3291 1056 2328 
Q 1056 1369 1301 889 
Q 1547 409 2034 409 
Q 2525 409 2770 889 
Q 3016 1369 3016 2328 
Q 3016 3291 2770 3770 
Q 2525 4250 2034 4250 
z
M 2034 4750 
Q 2819 4750 3233 4129 
Q 3647 3509 3647 2328 
Q 3647 1150 3233 529 
Q 2819 -91 2034 -91 
Q 1250 -91 836 529 
Q 422 1150 422 2328 
Q 422 3509 836 4129 
Q 1250 4750 2034 4750 
z
" transform="scale(0.015625)"/>
       </defs>
       <use xlink:href="#DejaVuSans-30"/>
      </g>
     </g>
    </g>
    <g id="xtick_2">
     <g id="line2d_2"/>
     <g id="text_2">
      <!-- 127 -->
      <g style="fill: #293552" transform="translate(137.114549 140.483441) scale(0.08 -0.08)">
       <defs>
        <path id="DejaVuSans-31" d="M 794 531 
L 1825 531 
L 1825 4091 
L 703 3866 
L 703 4441 
L 1819 4666 
L 2450 4666 
L 2450 531 
L 3481 531 
L 3481 0 
L 794 0 
L 794 531 
z
" transform="scale(0.015625)"/>
        <path id="DejaVuSans-32" d="M 1228 531 
L 3431 531 
L 3431 0 
L 469 0 
L 469 531 
Q 828 903 1448 1529 
Q 2069 2156 2228 2338 
Q 2531 2678 2651 2914 
Q 2772 3150 2772 3378 
Q 2772 3750 2511 3984 
Q 2250 4219 1831 4219 
Q 1534 4219 1204 4116 
Q 875 4013 500 3803 
L 500 4441 
Q 881 4594 1212 4672 
Q 1544 4750 1819 4750 
Q 2544 4750 2975 4387 
Q 3406 4025 3406 3419 
Q 3406 3131 3298 2873 
Q 3191 2616 2906 2266 
Q 2828 2175 2409 1742 
Q 1991 1309 1228 531 
z
" transform="scale(0.015625)"/>
        <path id="DejaVuSans-37" d="M 525 4666 
L 3525 4666 
L 3525 4397 
L 1831 0 
L 1172 0 
L 2766 4134 
L 525 4134 
L 525 4666 
z
" transform="scale(0.015625)"/>
       </defs>
       <use xlink:href="#DejaVuSans-31"/>
       <use xlink:href="#DejaVuSans-32" transform="translate(63.623047 0)"/>
       <use xlink:href="#DejaVuSans-37" transform="translate(127.246094 0)"/>
      </g>
     </g>
    </g>
   </g>
   <g id="matplotlib.axis_2">
    <g id="ytick_1">
     <g id="line2d_3"/>
     <g id="text_3">
      <!-- 0 -->
      <g style="fill: #293552" transform="translate(31.058125 128.939237) scale(0.08 -0.08)">
       <use xlink:href="#DejaVuSans-30"/>
      </g>
     </g>
    </g>
    <g id="ytick_2">
     <g id="line2d_4"/>
     <g id="text_4">
      <!-- 127 -->
      <g style="fill: #293552" transform="translate(20.878125 28.842642) scale(0.08 -0.08)">
       <use xlink:href="#DejaVuSans-31"/>
       <use xlink:href="#DejaVuSans-32" transform="translate(63.623047 0)"/>
       <use xlink:href="#DejaVuSans-37" transform="translate(127.246094 0)"/>
      </g>
     </g>
    </g>
    <g id="text_5">
     <!-- output velocity -->
     <g style="fill: #293552" transform="translate(14.798438 113.474221) rotate(-90) scale(0.1 -0.1)">
      <defs>
       <path id="DejaVuSans-6f" d="M 1959 3097 
Q 1497 3097 1228 2736 
Q 959 2375 959 1747 
Q 959 1119 1226 758 
Q 1494 397 1959 397 
Q 2419 397 2687 759 
Q 2956 1122 2956 1747 
Q 2956 2369 2687 2733 
Q 2419 3097 1959 3097 
z
M 1959 3584 
Q 2709 3584 3137 3096 
Q 3566 2609 3566 1747 
Q 3566 888 3137 398 
Q 2709 -91 1959 -91 
Q 1206 -91 779 398 
Q 353 888 353 1747 
Q 353 2609 779 3096 
Q 1206 3584 1959 3584 
z
" transform="scale(0.015625)"/>
       <path id="DejaVuSans-75" d="M 544 1381 
L 544 3500 
L 1119 3500 
L 1119 1403 
Q 1119 906 1312 657 
Q 1506 409 1894 409 
Q 2359 409 2629 706 
Q 2900 1003 2900 1516 
L 2900 3500 
L 3475 3500 
L 3475 0 
L 2900 0 
L 2900 538 
Q 2691 219 2414 64 
Q 2138 -91 1772 -91 
Q 1169 -91 856 284 
Q 544 659 544 1381 
z
M 1991 3584 
L 1991 3584 
z
" transform="scale(0.015625)"/>
       <path id="DejaVuSans-74" d="M 1172 4494 
L 1172 3500 
L 2356 3500 
L 2356 3053 
L 1172 3053 
L 1172 1153 
Q 1172 725 1289 603 
Q 1406 481 1766 481 
L 2356 481 
L 2356 0 
L 1766 0 
Q 1100 0 847 248 
Q 594 497 594 1153 
L 594 3053 
L 172 3053 
L 172 3500 
L 594 3500 
L 594 4494 
L 1172 4494 
z
" transform="scale(0.015625)"/>
       <path id="DejaVuSans-70" d="M 1159 525 
L 1159 -1331 
L 581 -1331 
L 581 3500 
L 1159 3500 
L 1159 2969 
Q 1341 3281 1617 3432 
Q 1894 3584 2278 3584 
Q 2916 3584 3314 3078 
Q 3713 2572 3713 1747 
Q 3713 922 3314 415 
Q 2916 -91 2278 -91 
Q 1894 -91 1617 61 
Q 1341 213 1159 525 
z
M 3116 1747 
Q 3116 2381 2855 2742 
Q 2594 3103 2138 3103 
Q 1681 3103 1420 2742 
Q 1159 2381 1159 1747 
Q 1159 1113 1420 752 
Q 1681 391 2138 391 
Q 2594 391 2855 752 
Q 3116 1113 3116 1747 
z
" transform="scale(0.015625)"/>
       <path id="DejaVuSans-20" transform="scale(0.015625)"/>
       <path id="DejaVuSans-76" d="M 191 3500 
L 800 3500 
L 1894 563 
L 2988 3500 
L 3597 3500 
L 2284 0 
L 1503 0 
L 191 3500 
z
" transform="scale(0.015625)"/>
       <path id="DejaVuSans-65" d="M 3597 1894 
L 3597 1613 
L 953 1613 
Q 991 1019 1311 708 
Q 1631 397 2203 397 
Q 2534 397 2845 478 
Q 3156 559 3463 722 
L 3463 178 
Q 3153 47 2828 -22 
Q 2503 -91 2169 -91 
Q 1331 -91 842 396 
Q 353 884 353 1716 
Q 353 2575 817 3079 
Q 1281 3584 2069 3584 
Q 2775 3584 3186 3129 
Q 3597 2675 3597 1894 
z
M 3022 2063 
Q 3016 2534 2758 2815 
Q 2500 3097 2075 3097 
Q 1594 3097 1305 2825 
Q 1016 2553 972 2059 
L 3022 2063 
z
" transform="scale(0.015625)"/>
       <path id="DejaVuSans-6c" d="M 603 4863 
L 1178 4863 
L 1178 0 
L 603 0 
L 603 4863 
z
" transform="scale(0.015625)"/>
       <path id="DejaVuSans-63" d="M 3122 3366 
L 3122 2828 
Q 2878 2963 2633 3030 
Q 2388 3097 2138 3097 
Q 1578 3097 1268 2742 
Q 959 2388 959 1747 
Q 959 1106 1268 751 
Q 1578 397 2138 397 
Q 2388 397 2633 464 
Q 2878 531 3122 666 
L 3122 134 
Q 2881 22 2623 -34 
Q 2366 -91 2075 -91 
Q 1284 -91 818 406 
Q 353 903 353 1747 
Q 353 2603 823 3093 
Q 1294 3584 2113 3584 
Q 2378 3584 2631 3529 
Q 2884 3475 3122 3366 
z
" transform="scale(0.015625)"/>
       <path id="DejaVuSans-69" d="M 603 3500 
L 1178 3500 
L 1178 0 
L 603 0 
L 603 3500 
z
M 603 4863 
L 1178 4863 
L 1178 4134 
L 603 4134 
L 603 4863 
z
" transform="scale(0.015625)"/>
       <path id="DejaVuSans-79" d="M 2059 -325 
Q 1816 -950 1584 -1140 
Q 1353 -1331 966 -1331 
L 506 -1331 
L 506 -850 
L 844 -850 
Q 1081 -850 1212 -737 
Q 1344 -625 1503 -206 
L 1606 56 
L 191 3500 
L 800 3500 
L 1894 763 
L 2988 3500 
L 3597 3500 
L 2059 -325 
z
" transform="scale(0.015625)"/>
      </defs>
      <use xlink:href="#DejaVuSans-6f"/>
      <use xlink:href="#DejaVuSans-75" transform="translate(61.181641 0)"/>
      <use xlink:href="#DejaVuSans-74" transform="translate(124.560547 0)"/>
      <use xlink:href="#DejaVuSans-70" transform="translate(163.769531 0)"/>
      <use xlink:href="#DejaVuSans-75" transform="translate(227.246094 0)"/>
      <use xlink:href="#DejaVuSans-74" transform="translate(290.625 0)"/>
      <use xlink:href="#DejaVuSans-20" transform="translate(329.833984 0)"/>
      <use xlink:href="#DejaVuSans-76" transform="translate(361.621094 0)"/>
      <use xlink:href="#DejaVuSans-65" transform="translate(420.800781 0)"/>
      <use xlink:href="#DejaVuSans-6c" transform="translate(482.324219 0)"/>
      <use xlink:href="#DejaVuSans-6f" transform="translate(510.107422 0)"/>
      <use xlink:href="#DejaVuSans-63" transform="translate(571.289062 0)"/>
      <use xlink:href="#DejaVuSans-69" transform="translate(626.269531 0)"/>
      <use xlink:href="#DejaVuSans-74" transform="translate(654.052734 0)"/>
      <use xlink:href="#DejaVuSans-79" transform="translate(693.261719 0)"/>
     </g>
    </g>
   </g>
   <g id="line2d_5">
    <path d="M 44.652955 100.678673 
L 72.23863 100.678673 
L 73.026793 99.89051 
L 99.036144 99.89051 
L 99.824306 99.102348 
L 111.646738 99.102348 
L 112.434901 98.314186 
L 118.740198 98.314186 
L 119.52836 97.526024 
L 123.469171 97.526024 
L 124.257333 96.737862 
L 126.62182 96.737862 
L 127.409982 95.9497 
L 128.986306 95.9497 
L 129.774468 95.161537 
L 131.350792 95.161537 
L 132.138955 94.373375 
L 132.927117 94.373375 
L 134.503441 92.797051 
L 135.291603 92.797051 
L 137.65609 90.432564 
L 138.444252 88.85624 
L 139.232414 88.068078 
L 140.020576 86.491754 
L 141.596901 81.762781 
L 142.385063 77.82197 
L 143.173225 73.092997 
L 143.961387 65.211375 
L 144.749549 51.024456 
L 144.749549 51.024456 
" clip-path="url(#p923e76a2af)" style="fill: none; stroke: #efa231; stroke-width: 1.5; stroke-linecap: square"/>
   </g>
   <g id="line2d_6">
    <path d="M 39.648125 100.678673 
L 149.754379 100.678673 
" clip-path="url(#p923e76a2af)" style="fill: none; stroke-dasharray: 3.7,1.6; stroke-dashoffset: 0; stroke: #cebace"/>
   </g>
   <g id="line2d_7">
    <path d="M 39.648125 51.024456 
L 149.754379 51.024456 
" clip-path="url(#p923e76a2af)" style="fill: none; stroke-dasharray: 3.7,1.6; stroke-dashoffset: 0; stroke: #cebace"/>
   </g>
   <g id="patch_3">
    <path d="M 39.648125 130.904691 
L 39.648125 20.798437 
" style="fill: none; stroke: #293552; stroke-width: 0.8; stroke-linejoin: miter; stroke-linecap: square"/>
   </g>
   <g id="patch_4">
    <path d="M 39.648125 130.904691 
L 149.754379 130.904691 
" style="fill: none; stroke: #293552; stroke-width: 0.8; stroke-linejoin: miter; stroke-linecap: square"/>
   </g>
   <g id="text_6">
    <!-- min=32 -->
    <g style="fill: #293552" transform="translate(100.847801 112.217921) scale(0.1 -0.1)">
     <defs>
      <path id="DejaVuSans-6d" d="M 3328 2828 
Q 3544 3216 3844 3400 
Q 4144 3584 4550 3584 
Q 5097 3584 5394 3201 
Q 5691 2819 5691 2113 
L 5691 0 
L 5113 0 
L 5113 2094 
Q 5113 2597 4934 2840 
Q 4756 3084 4391 3084 
Q 3944 3084 3684 2787 
Q 3425 2491 3425 1978 
L 3425 0 
L 2847 0 
L 2847 2094 
Q 2847 2600 2669 2842 
Q 2491 3084 2119 3084 
Q 1678 3084 1418 2786 
Q 1159 2488 1159 1978 
L 1159 0 
L 581 0 
L 581 3500 
L 1159 3500 
L 1159 2956 
Q 1356 3278 1631 3431 
Q 1906 3584 2284 3584 
Q 2666 3584 2933 3390 
Q 3200 3197 3328 2828 
z
" transform="scale(0.015625)"/>
      <path id="DejaVuSans-6e" d="M 3513 2113 
L 3513 0 
L 2938 0 
L 2938 2094 
Q 2938 2591 2744 2837 
Q 2550 3084 2163 3084 
Q 1697 3084 1428 2787 
Q 1159 2491 1159 1978 
L 1159 0 
L 581 0 
L 581 3500 
L 1159 3500 
L 1159 2956 
Q 1366 3272 1645 3428 
Q 1925 3584 2291 3584 
Q 2894 3584 3203 3211 
Q 3513 2838 3513 2113 
z
" transform="scale(0.015625)"/>
      <path id="DejaVuSans-3d" d="M 678 2906 
L 4684 2906 
L 4684 2381 
L 678 2381 
L 678 2906 
z
M 678 1631 
L 4684 1631 
L 4684 1100 
L 678 1100 
L 678 1631 
z
" transform="scale(0.015625)"/>
      <path id="DejaVuSans-33" d="M 2597 2516 
Q 3050 2419 3304 2112 
Q 3559 1806 3559 1356 
Q 3559 666 3084 287 
Q 2609 -91 1734 -91 
Q 1441 -91 1130 -33 
Q 819 25 488 141 
L 488 750 
Q 750 597 1062 519 
Q 1375 441 1716 441 
Q 2309 441 2620 675 
Q 2931 909 2931 1356 
Q 2931 1769 2642 2001 
Q 2353 2234 1838 2234 
L 1294 2234 
L 1294 2753 
L 1863 2753 
Q 2328 2753 2575 2939 
Q 2822 3125 2822 3475 
Q 2822 3834 2567 4026 
Q 2313 4219 1838 4219 
Q 1578 4219 1281 4162 
Q 984 4106 628 3988 
L 628 4550 
Q 988 4650 1302 4700 
Q 1616 4750 1894 4750 
Q 2613 4750 3031 4423 
Q 3450 4097 3450 3541 
Q 3450 3153 3228 2886 
Q 3006 2619 2597 2516 
z
" transform="scale(0.015625)"/>
     </defs>
     <use xlink:href="#DejaVuSans-6d"/>
     <use xlink:href="#DejaVuSans-69" transform="translate(97.412109 0)"/>
     <use xlink:href="#DejaVuSans-6e" transform="translate(125.195312 0)"/>
     <use xlink:href="#DejaVuSans-3d" transform="translate(188.574219 0)"/>
     <use xlink:href="#DejaVuSans-33" transform="translate(272.363281 0)"/>
     <use xlink:href="#DejaVuSans-32" transform="translate(335.986328 0)"/>
    </g>
   </g>
   <g id="text_7">
    <!-- max=95 -->
    <g style="fill: #293552" transform="translate(48.593766 45.003958) scale(0.1 -0.1)">
     <defs>
      <path id="DejaVuSans-61" d="M 2194 1759 
Q 1497 1759 1228 1600 
Q 959 1441 959 1056 
Q 959 750 1161 570 
Q 1363 391 1709 391 
Q 2188 391 2477 730 
Q 2766 1069 2766 1631 
L 2766 1759 
L 2194 1759 
z
M 3341 1997 
L 3341 0 
L 2766 0 
L 2766 531 
Q 2569 213 2275 61 
Q 1981 -91 1556 -91 
Q 1019 -91 701 211 
Q 384 513 384 1019 
Q 384 1609 779 1909 
Q 1175 2209 1959 2209 
L 2766 2209 
L 2766 2266 
Q 2766 2663 2505 2880 
Q 2244 3097 1772 3097 
Q 1472 3097 1187 3025 
Q 903 2953 641 2809 
L 641 3341 
Q 956 3463 1253 3523 
Q 1550 3584 1831 3584 
Q 2591 3584 2966 3190 
Q 3341 2797 3341 1997 
z
" transform="scale(0.015625)"/>
      <path id="DejaVuSans-78" d="M 3513 3500 
L 2247 1797 
L 3578 0 
L 2900 0 
L 1881 1375 
L 863 0 
L 184 0 
L 1544 1831 
L 300 3500 
L 978 3500 
L 1906 2253 
L 2834 3500 
L 3513 3500 
z
" transform="scale(0.015625)"/>
      <path id="DejaVuSans-39" d="M 703 97 
L 703 672 
Q 941 559 1184 500 
Q 1428 441 1663 441 
Q 2288 441 2617 861 
Q 2947 1281 2994 2138 
Q 2813 1869 2534 1725 
Q 2256 1581 1919 1581 
Q 1219 1581 811 2004 
Q 403 2428 403 3163 
Q 403 3881 828 4315 
Q 1253 4750 1959 4750 
Q 2769 4750 3195 4129 
Q 3622 3509 3622 2328 
Q 3622 1225 3098 567 
Q 2575 -91 1691 -91 
Q 1453 -91 1209 -44 
Q 966 3 703 97 
z
M 1959 2075 
Q 2384 2075 2632 2365 
Q 2881 2656 2881 3163 
Q 2881 3666 2632 3958 
Q 2384 4250 1959 4250 
Q 1534 4250 1286 3958 
Q 1038 3666 1038 3163 
Q 1038 2656 1286 2365 
Q 1534 2075 1959 2075 
z
" transform="scale(0.015625)"/>
      <path id="DejaVuSans-35" d="M 691 4666 
L 3169 4666 
L 3169 4134 
L 1269 4134 
L 1269 2991 
Q 1406 3038 1543 3061 
Q 1681 3084 1819 3084 
Q 2600 3084 3056 2656 
Q 3513 2228 3513 1497 
Q 3513 744 3044 326 
Q 2575 -91 1722 -91 
Q 1428 -91 1123 -41 
Q 819 9 494 109 
L 494 744 
Q 775 591 1075 516 
Q 1375 441 1709 441 
Q 2250 441 2565 725 
Q 2881 1009 2881 1497 
Q 2881 1984 2565 2268 
Q 2250 2553 1709 2553 
Q 1456 2553 1204 2497 
Q 953 2441 691 2322 
L 691 4666 
z
" transform="scale(0.015625)"/>
     </defs>
     <use xlink:href="#DejaVuSans-6d"/>
     <use xlink:href="#DejaVuSans-61" transform="translate(97.412109 0)"/>
     <use xlink:href="#DejaVuSans-78" transform="translate(158.691406 0)"/>
     <use xlink:href="#DejaVuSans-3d" transform="translate(217.871094 0)"/>
     <use xlink:href="#DejaVuSans-39" transform="translate(301.660156 0)"/>
     <use xlink:href="#DejaVuSans-35" transform="translate(365.283203 0)"/>
    </g>
   </g>
   <g id="text_8">
    <!-- negative 3 -->
    <g style="fill: #293552" transform="translate(64.823127 14.798437) scale(0.1 -0.1)">
     <defs>
      <path id="DejaVuSans-Bold-6e" d="M 4056 2131 
L 4056 0 
L 2931 0 
L 2931 347 
L 2931 1631 
Q 2931 2084 2911 2256 
Q 2891 2428 2841 2509 
Q 2775 2619 2662 2680 
Q 2550 2741 2406 2741 
Q 2056 2741 1856 2470 
Q 1656 2200 1656 1722 
L 1656 0 
L 538 0 
L 538 3500 
L 1656 3500 
L 1656 2988 
Q 1909 3294 2193 3439 
Q 2478 3584 2822 3584 
Q 3428 3584 3742 3212 
Q 4056 2841 4056 2131 
z
" transform="scale(0.015625)"/>
      <path id="DejaVuSans-Bold-65" d="M 4031 1759 
L 4031 1441 
L 1416 1441 
Q 1456 1047 1700 850 
Q 1944 653 2381 653 
Q 2734 653 3104 758 
Q 3475 863 3866 1075 
L 3866 213 
Q 3469 63 3072 -14 
Q 2675 -91 2278 -91 
Q 1328 -91 801 392 
Q 275 875 275 1747 
Q 275 2603 792 3093 
Q 1309 3584 2216 3584 
Q 3041 3584 3536 3087 
Q 4031 2591 4031 1759 
z
M 2881 2131 
Q 2881 2450 2695 2645 
Q 2509 2841 2209 2841 
Q 1884 2841 1681 2658 
Q 1478 2475 1428 2131 
L 2881 2131 
z
" transform="scale(0.015625)"/>
      <path id="DejaVuSans-Bold-67" d="M 2919 594 
Q 2688 288 2409 144 
Q 2131 0 1766 0 
Q 1125 0 706 504 
Q 288 1009 288 1791 
Q 288 2575 706 3076 
Q 1125 3578 1766 3578 
Q 2131 3578 2409 3434 
Q 2688 3291 2919 2981 
L 2919 3500 
L 4044 3500 
L 4044 353 
Q 4044 -491 3511 -936 
Q 2978 -1381 1966 -1381 
Q 1638 -1381 1331 -1331 
Q 1025 -1281 716 -1178 
L 716 -306 
Q 1009 -475 1290 -558 
Q 1572 -641 1856 -641 
Q 2406 -641 2662 -400 
Q 2919 -159 2919 353 
L 2919 594 
z
M 2181 2772 
Q 1834 2772 1640 2515 
Q 1447 2259 1447 1791 
Q 1447 1309 1634 1061 
Q 1822 813 2181 813 
Q 2531 813 2725 1069 
Q 2919 1325 2919 1791 
Q 2919 2259 2725 2515 
Q 2531 2772 2181 2772 
z
" transform="scale(0.015625)"/>
      <path id="DejaVuSans-Bold-61" d="M 2106 1575 
Q 1756 1575 1579 1456 
Q 1403 1338 1403 1106 
Q 1403 894 1545 773 
Q 1688 653 1941 653 
Q 2256 653 2472 879 
Q 2688 1106 2688 1447 
L 2688 1575 
L 2106 1575 
z
M 3816 1997 
L 3816 0 
L 2688 0 
L 2688 519 
Q 2463 200 2181 54 
Q 1900 -91 1497 -91 
Q 953 -91 614 226 
Q 275 544 275 1050 
Q 275 1666 698 1953 
Q 1122 2241 2028 2241 
L 2688 2241 
L 2688 2328 
Q 2688 2594 2478 2717 
Q 2269 2841 1825 2841 
Q 1466 2841 1156 2769 
Q 847 2697 581 2553 
L 581 3406 
Q 941 3494 1303 3539 
Q 1666 3584 2028 3584 
Q 2975 3584 3395 3211 
Q 3816 2838 3816 1997 
z
" transform="scale(0.015625)"/>
      <path id="DejaVuSans-Bold-74" d="M 1759 4494 
L 1759 3500 
L 2913 3500 
L 2913 2700 
L 1759 2700 
L 1759 1216 
Q 1759 972 1856 886 
Q 1953 800 2241 800 
L 2816 800 
L 2816 0 
L 1856 0 
Q 1194 0 917 276 
Q 641 553 641 1216 
L 641 2700 
L 84 2700 
L 84 3500 
L 641 3500 
L 641 4494 
L 1759 4494 
z
" transform="scale(0.015625)"/>
      <path id="DejaVuSans-Bold-69" d="M 538 3500 
L 1656 3500 
L 1656 0 
L 538 0 
L 538 3500 
z
M 538 4863 
L 1656 4863 
L 1656 3950 
L 538 3950 
L 538 4863 
z
" transform="scale(0.015625)"/>
      <path id="DejaVuSans-Bold-76" d="M 97 3500 
L 1216 3500 
L 2088 1081 
L 2956 3500 
L 4078 3500 
L 2700 0 
L 1472 0 
L 97 3500 
z
" transform="scale(0.015625)"/>
      <path id="DejaVuSans-Bold-20" transform="scale(0.015625)"/>
      <path id="DejaVuSans-Bold-33" d="M 2981 2516 
Q 3453 2394 3698 2092 
Q 3944 1791 3944 1325 
Q 3944 631 3412 270 
Q 2881 -91 1863 -91 
Q 1503 -91 1142 -33 
Q 781 25 428 141 
L 428 1069 
Q 766 900 1098 814 
Q 1431 728 1753 728 
Q 2231 728 2486 893 
Q 2741 1059 2741 1369 
Q 2741 1688 2480 1852 
Q 2219 2016 1709 2016 
L 1228 2016 
L 1228 2791 
L 1734 2791 
Q 2188 2791 2409 2933 
Q 2631 3075 2631 3366 
Q 2631 3634 2415 3781 
Q 2200 3928 1806 3928 
Q 1516 3928 1219 3862 
Q 922 3797 628 3669 
L 628 4550 
Q 984 4650 1334 4700 
Q 1684 4750 2022 4750 
Q 2931 4750 3382 4451 
Q 3834 4153 3834 3553 
Q 3834 3144 3618 2883 
Q 3403 2622 2981 2516 
z
" transform="scale(0.015625)"/>
     </defs>
     <use xlink:href="#DejaVuSans-Bold-6e"/>
     <use xlink:href="#DejaVuSans-Bold-65" transform="translate(71.191406 0)"/>
     <use xlink:href="#DejaVuSans-Bold-67" transform="translate(139.013672 0)"/>
     <use xlink:href="#DejaVuSans-Bold-61" transform="translate(210.595703 0)"/>
     <use xlink:href="#DejaVuSans-Bold-74" transform="translate(278.076172 0)"/>
     <use xlink:href="#DejaVuSans-Bold-69" transform="translate(325.878906 0)"/>
     <use xlink:href="#DejaVuSans-Bold-76" transform="translate(360.15625 0)"/>
     <use xlink:href="#DejaVuSans-Bold-65" transform="translate(425.341797 0)"/>
     <use xlink:href="#DejaVuSans-Bold-20" transform="translate(493.164062 0)"/>
     <use xlink:href="#DejaVuSans-Bold-33" transform="translate(527.978516 0)"/>
    </g>
   </g>
  </g>
  <g id="axes_2">
   <g id="patch_5">
    <path d="M 158.44125 130.904691 
L 268.547504 130.904691 
L 268.547504 20.798437 
L 158.44125 20.798437 
L 158.44125 130.904691 
z
" style="fill: none"/>
   </g>
   <g id="matplotlib.axis_3">
    <g id="xtick_3">
     <g id="line2d_8"/>
     <g id="text_9">
      <!-- 0 -->
      <g style="fill: #293552" transform="translate(160.90108 140.483441) scale(0.08 -0.08)">
       <use xlink:href="#DejaVuSans-30"/>
      </g>
     </g>
    </g>
    <g id="xtick_4">
     <g id="line2d_9"/>
     <g id="text_10">
      <!-- 127 -->
      <g style="fill: #293552" transform="translate(255.907674 140.483441) scale(0.08 -0.08)">
       <use xlink:href="#DejaVuSans-31"/>
       <use xlink:href="#DejaVuSans-32" transform="translate(63.623047 0)"/>
       <use xlink:href="#DejaVuSans-37" transform="translate(127.246094 0)"/>
      </g>
     </g>
    </g>
   </g>
   <g id="matplotlib.axis_4">
    <g id="ytick_3">
     <g id="line2d_10"/>
    </g>
    <g id="ytick_4">
     <g id="line2d_11"/>
    </g>
   </g>
   <g id="line2d_12">
    <path d="M 163.44608 100.678673 
L 169.751377 100.678673 
L 170.539539 99.89051 
L 180.785647 99.89051 
L 181.573809 99.102348 
L 190.243593 99.102348 
L 191.031755 98.314186 
L 197.337053 98.314186 
L 198.125215 97.526024 
L 203.64235 97.526024 
L 204.430512 96.737862 
L 209.159485 96.737862 
L 209.947647 95.9497 
L 213.888458 95.9497 
L 214.67662 95.161537 
L 217.829269 95.161537 
L 218.617431 94.373375 
L 221.77008 94.373375 
L 222.558242 93.585213 
L 224.922728 93.585213 
L 225.71089 92.797051 
L 227.287215 92.797051 
L 228.075377 92.008889 
L 229.651701 92.008889 
L 230.439863 91.220727 
L 232.016188 91.220727 
L 232.80435 90.432564 
L 234.380674 90.432564 
L 235.168836 89.644402 
L 235.956999 89.644402 
L 236.745161 88.85624 
L 237.533323 88.85624 
L 238.321485 88.068078 
L 239.109647 88.068078 
L 239.897809 87.279916 
L 240.685972 87.279916 
L 241.474134 86.491754 
L 242.262296 86.491754 
L 243.83862 84.915429 
L 244.626782 84.915429 
L 246.991269 82.550943 
L 247.779431 82.550943 
L 250.93208 79.398294 
L 251.720242 77.82197 
L 254.084728 75.457483 
L 255.661053 72.304835 
L 256.449215 71.516673 
L 258.025539 68.364024 
L 258.813701 65.999537 
L 259.601863 64.423213 
L 261.96635 57.329754 
L 263.542674 51.024456 
L 263.542674 51.024456 
" clip-path="url(#p1cd2f60527)" style="fill: none; stroke: #efa231; stroke-width: 1.5; stroke-linecap: square"/>
   </g>
   <g id="line2d_13">
    <path d="M 158.44125 100.678673 
L 268.547504 100.678673 
" clip-path="url(#p1cd2f60527)" style="fill: none; stroke-dasharray: 3.7,1.6; stroke-dashoffset: 0; stroke: #cebace"/>
   </g>
   <g id="line2d_14">
    <path d="M 158.44125 51.024456 
L 268.547504 51.024456 
" clip-path="url(#p1cd2f60527)" style="fill: none; stroke-dasharray: 3.7,1.6; stroke-dashoffset: 0; stroke: #cebace"/>
   </g>
   <g id="patch_6">
    <path d="M 158.44125 130.904691 
L 158.44125 20.798437 
" style="fill: none; stroke: #293552; stroke-width: 0.8; stroke-linejoin: miter; stroke-linecap: square"/>
   </g>
   <g id="patch_7">
    <path d="M 158.44125 130.904691 
L 268.547504 130.904691 
" style="fill: none; stroke: #293552; stroke-width: 0.8; stroke-linejoin: miter; stroke-linecap: square"/>
   </g>
   <g id="text_11">
    <!-- min=32 -->
    <g style="fill: #293552" transform="translate(219.640926 112.217921) scale(0.1 -0.1)">
     <use xlink:href="#DejaVuSans-6d"/>
     <use xlink:href="#DejaVuSans-69" transform="translate(97.412109 0)"/>
     <use xlink:href="#DejaVuSans-6e" transform="translate(125.195312 0)"/>
     <use xlink:href="#DejaVuSans-3d" transform="translate(188.574219 0)"/>
     <use xlink:href="#DejaVuSans-33" transform="translate(272.363281 0)"/>
     <use xlink:href="#DejaVuSans-32" transform="translate(335.986328 0)"/>
    </g>
   </g>
   <g id="text_12">
    <!-- max=95 -->
    <g style="fill: #293552" transform="translate(167.386891 45.003958) scale(0.1 -0.1)">
     <use xlink:href="#DejaVuSans-6d"/>
     <use xlink:href="#DejaVuSans-61" transform="translate(97.412109 0)"/>
     <use xlink:href="#DejaVuSans-78" transform="translate(158.691406 0)"/>
     <use xlink:href="#DejaVuSans-3d" transform="translate(217.871094 0)"/>
     <use xlink:href="#DejaVuSans-39" transform="translate(301.660156 0)"/>
     <use xlink:href="#DejaVuSans-35" transform="translate(365.283203 0)"/>
    </g>
   </g>
   <g id="text_13">
    <!-- negative 2 -->
    <g style="fill: #293552" transform="translate(183.616252 14.798437) scale(0.1 -0.1)">
     <defs>
      <path id="DejaVuSans-Bold-32" d="M 1844 884 
L 3897 884 
L 3897 0 
L 506 0 
L 506 884 
L 2209 2388 
Q 2438 2594 2547 2791 
Q 2656 2988 2656 3200 
Q 2656 3528 2436 3728 
Q 2216 3928 1850 3928 
Q 1569 3928 1234 3808 
Q 900 3688 519 3450 
L 519 4475 
Q 925 4609 1322 4679 
Q 1719 4750 2100 4750 
Q 2938 4750 3402 4381 
Q 3866 4013 3866 3353 
Q 3866 2972 3669 2642 
Q 3472 2313 2841 1759 
L 1844 884 
z
" transform="scale(0.015625)"/>
     </defs>
     <use xlink:href="#DejaVuSans-Bold-6e"/>
     <use xlink:href="#DejaVuSans-Bold-65" transform="translate(71.191406 0)"/>
     <use xlink:href="#DejaVuSans-Bold-67" transform="translate(139.013672 0)"/>
     <use xlink:href="#DejaVuSans-Bold-61" transform="translate(210.595703 0)"/>
     <use xlink:href="#DejaVuSans-Bold-74" transform="translate(278.076172 0)"/>
     <use xlink:href="#DejaVuSans-Bold-69" transform="translate(325.878906 0)"/>
     <use xlink:href="#DejaVuSans-Bold-76" transform="translate(360.15625 0)"/>
     <use xlink:href="#DejaVuSans-Bold-65" transform="translate(425.341797 0)"/>
     <use xlink:href="#DejaVuSans-Bold-20" transform="translate(493.164062 0)"/>
     <use xlink:href="#DejaVuSans-Bold-32" transform="translate(527.978516 0)"/>
    </g>
   </g>
  </g>
  <g id="axes_3">
   <g id="patch_8">
    <path d="M 277.234375 130.904691 
L 387.340629 130.904691 
L 387.340629 20.798437 
L 277.234375 20.798437 
L 277.234375 130.904691 
z
" style="fill: none"/>
   </g>
   <g id="matplotlib.axis_5">
    <g id="xtick_5">
     <g id="line2d_15"/>
     <g id="text_14">
      <!-- 0 -->
      <g style="fill: #293552" transform="translate(279.694205 140.483441) scale(0.08 -0.08)">
       <use xlink:href="#DejaVuSans-30"/>
      </g>
     </g>
    </g>
    <g id="xtick_6">
     <g id="line2d_16"/>
     <g id="text_15">
      <!-- 127 -->
      <g style="fill: #293552" transform="translate(374.700799 140.483441) scale(0.08 -0.08)">
       <use xlink:href="#DejaVuSans-31"/>
       <use xlink:href="#DejaVuSans-32" transform="translate(63.623047 0)"/>
       <use xlink:href="#DejaVuSans-37" transform="translate(127.246094 0)"/>
      </g>
     </g>
    </g>
   </g>
   <g id="matplotlib.axis_6">
    <g id="ytick_5">
     <g id="line2d_17"/>
    </g>
    <g id="ytick_6">
     <g id="line2d_18"/>
    </g>
   </g>
   <g id="line2d_19">
    <path d="M 282.239205 100.678673 
L 283.815529 100.678673 
L 284.603691 99.89051 
L 288.544502 99.89051 
L 289.332664 99.102348 
L 292.485313 99.102348 
L 293.273475 98.314186 
L 296.426124 98.314186 
L 297.214286 97.526024 
L 299.578772 97.526024 
L 300.366934 96.737862 
L 303.519583 96.737862 
L 304.307745 95.9497 
L 306.672232 95.9497 
L 307.460394 95.161537 
L 309.82488 95.161537 
L 310.613043 94.373375 
L 312.977529 94.373375 
L 313.765691 93.585213 
L 315.342016 93.585213 
L 316.130178 92.797051 
L 318.494664 92.797051 
L 319.282826 92.008889 
L 320.859151 92.008889 
L 321.647313 91.220727 
L 323.223637 91.220727 
L 324.011799 90.432564 
L 325.588124 90.432564 
L 326.376286 89.644402 
L 327.95261 89.644402 
L 328.740772 88.85624 
L 330.317097 88.85624 
L 331.105259 88.068078 
L 332.681583 88.068078 
L 333.469745 87.279916 
L 334.257907 87.279916 
L 335.04607 86.491754 
L 336.622394 86.491754 
L 337.410556 85.703591 
L 338.198718 85.703591 
L 338.98688 84.915429 
L 339.775043 84.915429 
L 340.563205 84.127267 
L 341.351367 84.127267 
L 342.139529 83.339105 
L 343.715853 83.339105 
L 344.504015 82.550943 
L 345.292178 82.550943 
L 346.08034 81.762781 
L 346.868502 81.762781 
L 348.444826 80.186456 
L 349.232988 80.186456 
L 350.021151 79.398294 
L 350.809313 79.398294 
L 351.597475 78.610132 
L 352.385637 78.610132 
L 353.961961 77.033808 
L 354.750124 77.033808 
L 355.538286 76.245646 
L 356.326448 76.245646 
L 357.902772 74.669321 
L 358.690934 74.669321 
L 361.055421 72.304835 
L 361.843583 72.304835 
L 364.20807 69.940348 
L 364.996232 69.940348 
L 370.513367 64.423213 
L 371.301529 64.423213 
L 372.877853 62.846889 
L 373.666015 61.270564 
L 378.394988 56.541592 
L 379.183151 54.965267 
L 380.759475 53.388943 
L 381.547637 51.812619 
L 382.335799 51.024456 
L 382.335799 51.024456 
" clip-path="url(#pe40bd46f60)" style="fill: none; stroke: #efa231; stroke-width: 1.5; stroke-linecap: square"/>
   </g>
   <g id="line2d_20">
    <path d="M 277.234375 100.678673 
L 387.340629 100.678673 
" clip-path="url(#pe40bd46f60)" style="fill: none; stroke-dasharray: 3.7,1.6; stroke-dashoffset: 0; stroke: #cebace"/>
   </g>
   <g id="line2d_21">
    <path d="M 277.234375 51.024456 
L 387.340629 51.024456 
" clip-path="url(#pe40bd46f60)" style="fill: none; stroke-dasharray: 3.7,1.6; stroke-dashoffset: 0; stroke: #cebace"/>
   </g>
   <g id="patch_9">
    <path d="M 277.234375 130.904691 
L 277.234375 20.798437 
" style="fill: none; stroke: #293552; stroke-width: 0.8; stroke-linejoin: miter; stroke-linecap: square"/>
   </g>
   <g id="patch_10">
    <path d="M 277.234375 130.904691 
L 387.340629 130.904691 
" style="fill: none; stroke: #293552; stroke-width: 0.8; stroke-linejoin: miter; stroke-linecap: square"/>
   </g>
   <g id="text_16">
    <!-- min=32 -->
    <g style="fill: #293552" transform="translate(338.434051 112.217921) scale(0.1 -0.1)">
     <use xlink:href="#DejaVuSans-6d"/>
     <use xlink:href="#DejaVuSans-69" transform="translate(97.412109 0)"/>
     <use xlink:href="#DejaVuSans-6e" transform="translate(125.195312 0)"/>
     <use xlink:href="#DejaVuSans-3d" transform="translate(188.574219 0)"/>
     <use xlink:href="#DejaVuSans-33" transform="translate(272.363281 0)"/>
     <use xlink:href="#DejaVuSans-32" transform="translate(335.986328 0)"/>
    </g>
   </g>
   <g id="text_17">
    <!-- max=95 -->
    <g style="fill: #293552" transform="translate(286.180016 45.003958) scale(0.1 -0.1)">
     <use xlink:href="#DejaVuSans-6d"/>
     <use xlink:href="#DejaVuSans-61" transform="translate(97.412109 0)"/>
     <use xlink:href="#DejaVuSans-78" transform="translate(158.691406 0)"/>
     <use xlink:href="#DejaVuSans-3d" transform="translate(217.871094 0)"/>
     <use xlink:href="#DejaVuSans-39" transform="translate(301.660156 0)"/>
     <use xlink:href="#DejaVuSans-35" transform="translate(365.283203 0)"/>
    </g>
   </g>
   <g id="text_18">
    <!-- negative 1 -->
    <g style="fill: #293552" transform="translate(302.409377 14.798437) scale(0.1 -0.1)">
     <defs>
      <path id="DejaVuSans-Bold-31" d="M 750 831 
L 1813 831 
L 1813 3847 
L 722 3622 
L 722 4441 
L 1806 4666 
L 2950 4666 
L 2950 831 
L 4013 831 
L 4013 0 
L 750 0 
L 750 831 
z
" transform="scale(0.015625)"/>
     </defs>
     <use xlink:href="#DejaVuSans-Bold-6e"/>
     <use xlink:href="#DejaVuSans-Bold-65" transform="translate(71.191406 0)"/>
     <use xlink:href="#DejaVuSans-Bold-67" transform="translate(139.013672 0)"/>
     <use xlink:href="#DejaVuSans-Bold-61" transform="translate(210.595703 0)"/>
     <use xlink:href="#DejaVuSans-Bold-74" transform="translate(278.076172 0)"/>
     <use xlink:href="#DejaVuSans-Bold-69" transform="translate(325.878906 0)"/>
     <use xlink:href="#DejaVuSans-Bold-76" transform="translate(360.15625 0)"/>
     <use xlink:href="#DejaVuSans-Bold-65" transform="translate(425.341797 0)"/>
     <use xlink:href="#DejaVuSans-Bold-20" transform="translate(493.164062 0)"/>
     <use xlink:href="#DejaVuSans-Bold-31" transform="translate(527.978516 0)"/>
    </g>
   </g>
  </g>
  <g id="axes_4">
   <g id="patch_11">
    <path d="M 396.0275 130.904691 
L 506.133754 130.904691 
L 506.133754 20.798437 
L 396.0275 20.798437 
L 396.0275 130.904691 
z
" style="fill: none"/>
   </g>
   <g id="matplotlib.axis_7">
    <g id="xtick_7">
     <g id="line2d_22"/>
     <g id="text_19">
      <!-- 0 -->
      <g style="fill: #293552" transform="translate(398.48733 140.483441) scale(0.08 -0.08)">
       <use xlink:href="#DejaVuSans-30"/>
      </g>
     </g>
    </g>
    <g id="xtick_8">
     <g id="line2d_23"/>
     <g id="text_20">
      <!-- 127 -->
      <g style="fill: #293552" transform="translate(493.493924 140.483441) scale(0.08 -0.08)">
       <use xlink:href="#DejaVuSans-31"/>
       <use xlink:href="#DejaVuSans-32" transform="translate(63.623047 0)"/>
       <use xlink:href="#DejaVuSans-37" transform="translate(127.246094 0)"/>
      </g>
     </g>
    </g>
    <g id="text_21">
     <!-- input velocity -->
     <g style="fill: #293552" transform="translate(417.088439 153.745629) scale(0.1 -0.1)">
      <use xlink:href="#DejaVuSans-69"/>
      <use xlink:href="#DejaVuSans-6e" transform="translate(27.783203 0)"/>
      <use xlink:href="#DejaVuSans-70" transform="translate(91.162109 0)"/>
      <use xlink:href="#DejaVuSans-75" transform="translate(154.638672 0)"/>
      <use xlink:href="#DejaVuSans-74" transform="translate(218.017578 0)"/>
      <use xlink:href="#DejaVuSans-20" transform="translate(257.226562 0)"/>
      <use xlink:href="#DejaVuSans-76" transform="translate(289.013672 0)"/>
      <use xlink:href="#DejaVuSans-65" transform="translate(348.193359 0)"/>
      <use xlink:href="#DejaVuSans-6c" transform="translate(409.716797 0)"/>
      <use xlink:href="#DejaVuSans-6f" transform="translate(437.5 0)"/>
      <use xlink:href="#DejaVuSans-63" transform="translate(498.681641 0)"/>
      <use xlink:href="#DejaVuSans-69" transform="translate(553.662109 0)"/>
      <use xlink:href="#DejaVuSans-74" transform="translate(581.445312 0)"/>
      <use xlink:href="#DejaVuSans-79" transform="translate(620.654297 0)"/>
     </g>
    </g>
   </g>
   <g id="matplotlib.axis_8">
    <g id="ytick_7">
     <g id="line2d_24"/>
    </g>
    <g id="ytick_8">
     <g id="line2d_25"/>
    </g>
   </g>
   <g id="line2d_26">
    <path d="M 401.03233 100.678673 
L 401.820492 100.678673 
L 402.608654 99.89051 
L 403.396816 99.89051 
L 404.184978 99.102348 
L 404.973141 99.102348 
L 405.761303 98.314186 
L 406.549465 98.314186 
L 407.337627 97.526024 
L 408.125789 97.526024 
L 408.913951 96.737862 
L 409.702113 96.737862 
L 410.490276 95.9497 
L 411.278438 95.9497 
L 412.0666 95.161537 
L 412.854762 95.161537 
L 413.642924 94.373375 
L 414.431086 94.373375 
L 415.219249 93.585213 
L 416.007411 93.585213 
L 416.795573 92.797051 
L 417.583735 92.797051 
L 418.371897 92.008889 
L 419.160059 92.008889 
L 419.948222 91.220727 
L 420.736384 91.220727 
L 421.524546 90.432564 
L 422.312708 90.432564 
L 423.10087 89.644402 
L 423.889032 89.644402 
L 424.677195 88.85624 
L 425.465357 88.85624 
L 426.253519 88.068078 
L 427.041681 88.068078 
L 427.829843 87.279916 
L 428.618005 87.279916 
L 429.406168 86.491754 
L 430.19433 86.491754 
L 430.982492 85.703591 
L 431.770654 85.703591 
L 432.558816 84.915429 
L 433.346978 84.915429 
L 434.135141 84.127267 
L 434.923303 84.127267 
L 435.711465 83.339105 
L 436.499627 83.339105 
L 437.287789 82.550943 
L 438.075951 82.550943 
L 438.864113 81.762781 
L 439.652276 81.762781 
L 440.440438 80.974619 
L 441.2286 80.974619 
L 442.016762 80.186456 
L 442.804924 80.186456 
L 443.593086 79.398294 
L 444.381249 79.398294 
L 445.169411 78.610132 
L 445.957573 78.610132 
L 446.745735 77.82197 
L 447.533897 77.82197 
L 448.322059 77.033808 
L 449.110222 77.033808 
L 449.898384 76.245646 
L 450.686546 76.245646 
L 451.474708 75.457483 
L 452.26287 75.457483 
L 453.051032 74.669321 
L 453.839195 74.669321 
L 454.627357 73.881159 
L 455.415519 73.881159 
L 456.203681 73.092997 
L 456.991843 73.092997 
L 457.780005 72.304835 
L 458.568168 72.304835 
L 459.35633 71.516673 
L 460.144492 71.516673 
L 460.932654 70.72851 
L 461.720816 70.72851 
L 462.508978 69.940348 
L 463.29714 69.940348 
L 464.085303 69.152186 
L 464.873465 69.152186 
L 465.661627 68.364024 
L 466.449789 68.364024 
L 467.237951 67.575862 
L 468.026113 67.575862 
L 468.814276 66.7877 
L 469.602438 66.7877 
L 470.3906 65.999537 
L 471.178762 65.999537 
L 471.966924 65.211375 
L 472.755086 65.211375 
L 473.543249 64.423213 
L 474.331411 64.423213 
L 475.119573 63.635051 
L 475.907735 63.635051 
L 476.695897 62.846889 
L 477.484059 62.846889 
L 478.272222 62.058727 
L 479.060384 62.058727 
L 479.848546 61.270564 
L 480.636708 61.270564 
L 481.42487 60.482402 
L 482.213032 60.482402 
L 483.001195 59.69424 
L 483.789357 59.69424 
L 484.577519 58.906078 
L 485.365681 58.906078 
L 486.153843 58.117916 
L 486.942005 58.117916 
L 487.730167 57.329754 
L 488.51833 57.329754 
L 489.306492 56.541592 
L 490.094654 56.541592 
L 490.882816 55.753429 
L 491.670978 55.753429 
L 492.45914 54.965267 
L 493.247303 54.965267 
L 494.035465 54.177105 
L 494.823627 54.177105 
L 495.611789 53.388943 
L 496.399951 53.388943 
L 497.188113 52.600781 
L 497.976276 52.600781 
L 498.764438 51.812619 
L 499.5526 51.812619 
L 500.340762 51.024456 
L 501.128924 51.024456 
L 501.128924 51.024456 
" clip-path="url(#p5ef8656507)" style="fill: none; stroke: #efa231; stroke-width: 1.5; stroke-linecap: square"/>
   </g>
   <g id="line2d_27">
    <path d="M 396.0275 100.678673 
L 506.133754 100.678673 
" clip-path="url(#p5ef8656507)" style="fill: none; stroke-dasharray: 3.7,1.6; stroke-dashoffset: 0; stroke: #cebace"/>
   </g>
   <g id="line2d_28">
    <path d="M 396.0275 51.024456 
L 506.133754 51.024456 
" clip-path="url(#p5ef8656507)" style="fill: none; stroke-dasharray: 3.7,1.6; stroke-dashoffset: 0; stroke: #cebace"/>
   </g>
   <g id="patch_12">
    <path d="M 396.0275 130.904691 
L 396.0275 20.798437 
" style="fill: none; stroke: #293552; stroke-width: 0.8; stroke-linejoin: miter; stroke-linecap: square"/>
   </g>
   <g id="patch_13">
    <path d="M 396.0275 130.904691 
L 506.133754 130.904691 
" style="fill: none; stroke: #293552; stroke-width: 0.8; stroke-linejoin: miter; stroke-linecap: square"/>
   </g>
   <g id="text_22">
    <!-- min=32 -->
    <g style="fill: #293552" transform="translate(457.227176 112.217921) scale(0.1 -0.1)">
     <use xlink:href="#DejaVuSans-6d"/>
     <use xlink:href="#DejaVuSans-69" transform="translate(97.412109 0)"/>
     <use xlink:href="#DejaVuSans-6e" transform="translate(125.195312 0)"/>
     <use xlink:href="#DejaVuSans-3d" transform="translate(188.574219 0)"/>
     <use xlink:href="#DejaVuSans-33" transform="translate(272.363281 0)"/>
     <use xlink:href="#DejaVuSans-32" transform="translate(335.986328 0)"/>
    </g>
   </g>
   <g id="text_23">
    <!-- max=95 -->
    <g style="fill: #293552" transform="translate(404.973141 45.003958) scale(0.1 -0.1)">
     <use xlink:href="#DejaVuSans-6d"/>
     <use xlink:href="#DejaVuSans-61" transform="translate(97.412109 0)"/>
     <use xlink:href="#DejaVuSans-78" transform="translate(158.691406 0)"/>
     <use xlink:href="#DejaVuSans-3d" transform="translate(217.871094 0)"/>
     <use xlink:href="#DejaVuSans-39" transform="translate(301.660156 0)"/>
     <use xlink:href="#DejaVuSans-35" transform="translate(365.283203 0)"/>
    </g>
   </g>
   <g id="text_24">
    <!-- linear -->
    <g style="fill: #293552" transform="translate(434.861877 14.798437) scale(0.1 -0.1)">
     <defs>
      <path id="DejaVuSans-Bold-6c" d="M 538 4863 
L 1656 4863 
L 1656 0 
L 538 0 
L 538 4863 
z
" transform="scale(0.015625)"/>
      <path id="DejaVuSans-Bold-72" d="M 3138 2547 
Q 2991 2616 2845 2648 
Q 2700 2681 2553 2681 
Q 2122 2681 1889 2404 
Q 1656 2128 1656 1613 
L 1656 0 
L 538 0 
L 538 3500 
L 1656 3500 
L 1656 2925 
Q 1872 3269 2151 3426 
Q 2431 3584 2822 3584 
Q 2878 3584 2943 3579 
Q 3009 3575 3134 3559 
L 3138 2547 
z
" transform="scale(0.015625)"/>
     </defs>
     <use xlink:href="#DejaVuSans-Bold-6c"/>
     <use xlink:href="#DejaVuSans-Bold-69" transform="translate(34.277344 0)"/>
     <use xlink:href="#DejaVuSans-Bold-6e" transform="translate(68.554688 0)"/>
     <use xlink:href="#DejaVuSans-Bold-65" transform="translate(139.746094 0)"/>
     <use xlink:href="#DejaVuSans-Bold-61" transform="translate(207.568359 0)"/>
     <use xlink:href="#DejaVuSans-Bold-72" transform="translate(275.048828 0)"/>
    </g>
   </g>
  </g>
  <g id="axes_5">
   <g id="patch_14">
    <path d="M 514.820625 130.904691 
L 624.926879 130.904691 
L 624.926879 20.798437 
L 514.820625 20.798437 
L 514.820625 130.904691 
z
" style="fill: none"/>
   </g>
   <g id="matplotlib.axis_9">
    <g id="xtick_9">
     <g id="line2d_29"/>
     <g id="text_25">
      <!-- 0 -->
      <g style="fill: #293552" transform="translate(517.280455 140.483441) scale(0.08 -0.08)">
       <use xlink:href="#DejaVuSans-30"/>
      </g>
     </g>
    </g>
    <g id="xtick_10">
     <g id="line2d_30"/>
     <g id="text_26">
      <!-- 127 -->
      <g style="fill: #293552" transform="translate(612.287049 140.483441) scale(0.08 -0.08)">
       <use xlink:href="#DejaVuSans-31"/>
       <use xlink:href="#DejaVuSans-32" transform="translate(63.623047 0)"/>
       <use xlink:href="#DejaVuSans-37" transform="translate(127.246094 0)"/>
      </g>
     </g>
    </g>
   </g>
   <g id="matplotlib.axis_10">
    <g id="ytick_9">
     <g id="line2d_31"/>
    </g>
    <g id="ytick_10">
     <g id="line2d_32"/>
    </g>
   </g>
   <g id="line2d_33">
    <path d="M 519.825455 100.678673 
L 520.613617 99.89051 
L 521.401779 98.314186 
L 522.978103 96.737862 
L 523.766266 95.161537 
L 528.495238 90.432564 
L 529.283401 88.85624 
L 530.859725 87.279916 
L 531.647887 87.279916 
L 537.165022 81.762781 
L 537.953184 81.762781 
L 540.317671 79.398294 
L 541.105833 79.398294 
L 543.47032 77.033808 
L 544.258482 77.033808 
L 545.834806 75.457483 
L 546.622968 75.457483 
L 547.41113 74.669321 
L 548.199293 74.669321 
L 549.775617 73.092997 
L 550.563779 73.092997 
L 551.351941 72.304835 
L 552.140103 72.304835 
L 552.928266 71.516673 
L 553.716428 71.516673 
L 555.292752 69.940348 
L 556.080914 69.940348 
L 556.869076 69.152186 
L 557.657238 69.152186 
L 558.445401 68.364024 
L 560.021725 68.364024 
L 560.809887 67.575862 
L 561.598049 67.575862 
L 562.386211 66.7877 
L 563.174374 66.7877 
L 563.962536 65.999537 
L 564.750698 65.999537 
L 565.53886 65.211375 
L 567.115184 65.211375 
L 567.903347 64.423213 
L 568.691509 64.423213 
L 569.479671 63.635051 
L 571.055995 63.635051 
L 571.844157 62.846889 
L 573.420482 62.846889 
L 574.208644 62.058727 
L 575.784968 62.058727 
L 576.57313 61.270564 
L 578.149455 61.270564 
L 578.937617 60.482402 
L 580.513941 60.482402 
L 581.302103 59.69424 
L 582.878428 59.69424 
L 583.66659 58.906078 
L 586.031076 58.906078 
L 586.819238 58.117916 
L 588.395563 58.117916 
L 589.183725 57.329754 
L 591.548211 57.329754 
L 592.336374 56.541592 
L 594.70086 56.541592 
L 595.489022 55.753429 
L 597.853509 55.753429 
L 598.641671 54.965267 
L 601.79432 54.965267 
L 602.582482 54.177105 
L 604.946968 54.177105 
L 605.73513 53.388943 
L 608.887779 53.388943 
L 609.675941 52.600781 
L 612.82859 52.600781 
L 613.616752 51.812619 
L 617.557563 51.812619 
L 618.345725 51.024456 
L 619.922049 51.024456 
L 619.922049 51.024456 
" clip-path="url(#pece8898ea5)" style="fill: none; stroke: #efa231; stroke-width: 1.5; stroke-linecap: square"/>
   </g>
   <g id="line2d_34">
    <path d="M 514.820625 100.678673 
L 624.926879 100.678673 
" clip-path="url(#pece8898ea5)" style="fill: none; stroke-dasharray: 3.7,1.6; stroke-dashoffset: 0; stroke: #cebace"/>
   </g>
   <g id="line2d_35">
    <path d="M 514.820625 51.024456 
L 624.926879 51.024456 
" clip-path="url(#pece8898ea5)" style="fill: none; stroke-dasharray: 3.7,1.6; stroke-dashoffset: 0; stroke: #cebace"/>
   </g>
   <g id="patch_15">
    <path d="M 514.820625 130.904691 
L 514.820625 20.798437 
" style="fill: none; stroke: #293552; stroke-width: 0.8; stroke-linejoin: miter; stroke-linecap: square"/>
   </g>
   <g id="patch_16">
    <path d="M 514.820625 130.904691 
L 624.926879 130.904691 
" style="fill: none; stroke: #293552; stroke-width: 0.8; stroke-linejoin: miter; stroke-linecap: square"/>
   </g>
   <g id="text_27">
    <!-- min=32 -->
    <g style="fill: #293552" transform="translate(576.020301 112.217921) scale(0.1 -0.1)">
     <use xlink:href="#DejaVuSans-6d"/>
     <use xlink:href="#DejaVuSans-69" transform="translate(97.412109 0)"/>
     <use xlink:href="#DejaVuSans-6e" transform="translate(125.195312 0)"/>
     <use xlink:href="#DejaVuSans-3d" transform="translate(188.574219 0)"/>
     <use xlink:href="#DejaVuSans-33" transform="translate(272.363281 0)"/>
     <use xlink:href="#DejaVuSans-32" transform="translate(335.986328 0)"/>
    </g>
   </g>
   <g id="text_28">
    <!-- max=95 -->
    <g style="fill: #293552" transform="translate(523.766266 45.003958) scale(0.1 -0.1)">
     <use xlink:href="#DejaVuSans-6d"/>
     <use xlink:href="#DejaVuSans-61" transform="translate(97.412109 0)"/>
     <use xlink:href="#DejaVuSans-78" transform="translate(158.691406 0)"/>
     <use xlink:href="#DejaVuSans-3d" transform="translate(217.871094 0)"/>
     <use xlink:href="#DejaVuSans-39" transform="translate(301.660156 0)"/>
     <use xlink:href="#DejaVuSans-35" transform="translate(365.283203 0)"/>
    </g>
   </g>
   <g id="text_29">
    <!-- positive 1 -->
    <g style="fill: #293552" transform="translate(542.195627 14.798437) scale(0.1 -0.1)">
     <defs>
      <path id="DejaVuSans-Bold-70" d="M 1656 506 
L 1656 -1331 
L 538 -1331 
L 538 3500 
L 1656 3500 
L 1656 2988 
Q 1888 3294 2169 3439 
Q 2450 3584 2816 3584 
Q 3463 3584 3878 3070 
Q 4294 2556 4294 1747 
Q 4294 938 3878 423 
Q 3463 -91 2816 -91 
Q 2450 -91 2169 54 
Q 1888 200 1656 506 
z
M 2400 2772 
Q 2041 2772 1848 2508 
Q 1656 2244 1656 1747 
Q 1656 1250 1848 986 
Q 2041 722 2400 722 
Q 2759 722 2948 984 
Q 3138 1247 3138 1747 
Q 3138 2247 2948 2509 
Q 2759 2772 2400 2772 
z
" transform="scale(0.015625)"/>
      <path id="DejaVuSans-Bold-6f" d="M 2203 2784 
Q 1831 2784 1636 2517 
Q 1441 2250 1441 1747 
Q 1441 1244 1636 976 
Q 1831 709 2203 709 
Q 2569 709 2762 976 
Q 2956 1244 2956 1747 
Q 2956 2250 2762 2517 
Q 2569 2784 2203 2784 
z
M 2203 3584 
Q 3106 3584 3614 3096 
Q 4122 2609 4122 1747 
Q 4122 884 3614 396 
Q 3106 -91 2203 -91 
Q 1297 -91 786 396 
Q 275 884 275 1747 
Q 275 2609 786 3096 
Q 1297 3584 2203 3584 
z
" transform="scale(0.015625)"/>
      <path id="DejaVuSans-Bold-73" d="M 3272 3391 
L 3272 2541 
Q 2913 2691 2578 2766 
Q 2244 2841 1947 2841 
Q 1628 2841 1473 2761 
Q 1319 2681 1319 2516 
Q 1319 2381 1436 2309 
Q 1553 2238 1856 2203 
L 2053 2175 
Q 2913 2066 3209 1816 
Q 3506 1566 3506 1031 
Q 3506 472 3093 190 
Q 2681 -91 1863 -91 
Q 1516 -91 1145 -36 
Q 775 19 384 128 
L 384 978 
Q 719 816 1070 734 
Q 1422 653 1784 653 
Q 2113 653 2278 743 
Q 2444 834 2444 1013 
Q 2444 1163 2330 1236 
Q 2216 1309 1875 1350 
L 1678 1375 
Q 931 1469 631 1722 
Q 331 1975 331 2491 
Q 331 3047 712 3315 
Q 1094 3584 1881 3584 
Q 2191 3584 2531 3537 
Q 2872 3491 3272 3391 
z
" transform="scale(0.015625)"/>
     </defs>
     <use xlink:href="#DejaVuSans-Bold-70"/>
     <use xlink:href="#DejaVuSans-Bold-6f" transform="translate(71.582031 0)"/>
     <use xlink:href="#DejaVuSans-Bold-73" transform="translate(140.283203 0)"/>
     <use xlink:href="#DejaVuSans-Bold-69" transform="translate(199.804688 0)"/>
     <use xlink:href="#DejaVuSans-Bold-74" transform="translate(234.082031 0)"/>
     <use xlink:href="#DejaVuSans-Bold-69" transform="translate(281.884766 0)"/>
     <use xlink:href="#DejaVuSans-Bold-76" transform="translate(316.162109 0)"/>
     <use xlink:href="#DejaVuSans-Bold-65" transform="translate(381.347656 0)"/>
     <use xlink:href="#DejaVuSans-Bold-20" transform="translate(449.169922 0)"/>
     <use xlink:href="#DejaVuSans-Bold-31" transform="translate(483.984375 0)"/>
    </g>
   </g>
  </g>
  <g id="axes_6">
   <g id="patch_17">
    <path d="M 633.61375 130.904691 
L 743.720004 130.904691 
L 743.720004 20.798437 
L 633.61375 20.798437 
L 633.61375 130.904691 
z
" style="fill: none"/>
   </g>
   <g id="matplotlib.axis_11">
    <g id="xtick_11">
     <g id="line2d_36"/>
     <g id="text_30">
      <!-- 0 -->
      <g style="fill: #293552" transform="translate(636.07358 140.483441) scale(0.08 -0.08)">
       <use xlink:href="#DejaVuSans-30"/>
      </g>
     </g>
    </g>
    <g id="xtick_12">
     <g id="line2d_37"/>
     <g id="text_31">
      <!-- 127 -->
      <g style="fill: #293552" transform="translate(731.080174 140.483441) scale(0.08 -0.08)">
       <use xlink:href="#DejaVuSans-31"/>
       <use xlink:href="#DejaVuSans-32" transform="translate(63.623047 0)"/>
       <use xlink:href="#DejaVuSans-37" transform="translate(127.246094 0)"/>
      </g>
     </g>
    </g>
   </g>
   <g id="matplotlib.axis_12">
    <g id="ytick_11">
     <g id="line2d_38"/>
    </g>
    <g id="ytick_12">
     <g id="line2d_39"/>
    </g>
   </g>
   <g id="line2d_40">
    <path d="M 638.61858 100.678673 
L 640.194904 94.373375 
L 642.559391 87.279916 
L 643.347553 85.703591 
L 644.135715 83.339105 
L 645.712039 80.186456 
L 646.500201 79.398294 
L 648.076526 76.245646 
L 650.441012 73.881159 
L 651.229174 72.304835 
L 654.381823 69.152186 
L 655.169985 69.152186 
L 657.534472 66.7877 
L 658.322634 66.7877 
L 659.898958 65.211375 
L 660.68712 65.211375 
L 661.475282 64.423213 
L 662.263445 64.423213 
L 663.051607 63.635051 
L 663.839769 63.635051 
L 664.627931 62.846889 
L 665.416093 62.846889 
L 666.204255 62.058727 
L 666.992418 62.058727 
L 667.78058 61.270564 
L 669.356904 61.270564 
L 670.145066 60.482402 
L 671.721391 60.482402 
L 672.509553 59.69424 
L 674.085877 59.69424 
L 674.874039 58.906078 
L 676.450363 58.906078 
L 677.238526 58.117916 
L 679.603012 58.117916 
L 680.391174 57.329754 
L 683.543823 57.329754 
L 684.331985 56.541592 
L 687.484634 56.541592 
L 688.272796 55.753429 
L 692.213607 55.753429 
L 693.001769 54.965267 
L 697.730742 54.965267 
L 698.518904 54.177105 
L 704.036039 54.177105 
L 704.824201 53.388943 
L 711.129499 53.388943 
L 711.917661 52.600781 
L 720.587445 52.600781 
L 721.375607 51.812619 
L 731.621715 51.812619 
L 732.409877 51.024456 
L 738.715174 51.024456 
L 738.715174 51.024456 
" clip-path="url(#p8b3accfc75)" style="fill: none; stroke: #efa231; stroke-width: 1.5; stroke-linecap: square"/>
   </g>
   <g id="line2d_41">
    <path d="M 633.61375 100.678673 
L 743.720004 100.678673 
" clip-path="url(#p8b3accfc75)" style="fill: none; stroke-dasharray: 3.7,1.6; stroke-dashoffset: 0; stroke: #cebace"/>
   </g>
   <g id="line2d_42">
    <path d="M 633.61375 51.024456 
L 743.720004 51.024456 
" clip-path="url(#p8b3accfc75)" style="fill: none; stroke-dasharray: 3.7,1.6; stroke-dashoffset: 0; stroke: #cebace"/>
   </g>
   <g id="patch_18">
    <path d="M 633.61375 130.904691 
L 633.61375 20.798437 
" style="fill: none; stroke: #293552; stroke-width: 0.8; stroke-linejoin: miter; stroke-linecap: square"/>
   </g>
   <g id="patch_19">
    <path d="M 633.61375 130.904691 
L 743.720004 130.904691 
" style="fill: none; stroke: #293552; stroke-width: 0.8; stroke-linejoin: miter; stroke-linecap: square"/>
   </g>
   <g id="text_32">
    <!-- min=32 -->
    <g style="fill: #293552" transform="translate(694.813426 112.217921) scale(0.1 -0.1)">
     <use xlink:href="#DejaVuSans-6d"/>
     <use xlink:href="#DejaVuSans-69" transform="translate(97.412109 0)"/>
     <use xlink:href="#DejaVuSans-6e" transform="translate(125.195312 0)"/>
     <use xlink:href="#DejaVuSans-3d" transform="translate(188.574219 0)"/>
     <use xlink:href="#DejaVuSans-33" transform="translate(272.363281 0)"/>
     <use xlink:href="#DejaVuSans-32" transform="translate(335.986328 0)"/>
    </g>
   </g>
   <g id="text_33">
    <!-- max=95 -->
    <g style="fill: #293552" transform="translate(642.559391 45.003958) scale(0.1 -0.1)">
     <use xlink:href="#DejaVuSans-6d"/>
     <use xlink:href="#DejaVuSans-61" transform="translate(97.412109 0)"/>
     <use xlink:href="#DejaVuSans-78" transform="translate(158.691406 0)"/>
     <use xlink:href="#DejaVuSans-3d" transform="translate(217.871094 0)"/>
     <use xlink:href="#DejaVuSans-39" transform="translate(301.660156 0)"/>
     <use xlink:href="#DejaVuSans-35" transform="translate(365.283203 0)"/>
    </g>
   </g>
   <g id="text_34">
    <!-- positive 2 -->
    <g style="fill: #293552" transform="translate(660.988752 14.798437) scale(0.1 -0.1)">
     <use xlink:href="#DejaVuSans-Bold-70"/>
     <use xlink:href="#DejaVuSans-Bold-6f" transform="translate(71.582031 0)"/>
     <use xlink:href="#DejaVuSans-Bold-73" transform="translate(140.283203 0)"/>
     <use xlink:href="#DejaVuSans-Bold-69" transform="translate(199.804688 0)"/>
     <use xlink:href="#DejaVuSans-Bold-74" transform="translate(234.082031 0)"/>
     <use xlink:href="#DejaVuSans-Bold-69" transform="translate(281.884766 0)"/>
     <use xlink:href="#DejaVuSans-Bold-76" transform="translate(316.162109 0)"/>
     <use xlink:href="#DejaVuSans-Bold-65" transform="translate(381.347656 0)"/>
     <use xlink:href="#DejaVuSans-Bold-20" transform="translate(449.169922 0)"/>
     <use xlink:href="#DejaVuSans-Bold-32" transform="translate(483.984375 0)"/>
    </g>
   </g>
  </g>
  <g id="axes_7">
   <g id="patch_20">
    <path d="M 752.406875 130.904691 
L 862.513129 130.904691 
L 862.513129 20.798437 
L 752.406875 20.798437 
L 752.406875 130.904691 
z
" style="fill: none"/>
   </g>
   <g id="matplotlib.axis_13">
    <g id="xtick_13">
     <g id="line2d_43"/>
     <g id="text_35">
      <!-- 0 -->
      <g style="fill: #293552" transform="translate(754.866705 140.483441) scale(0.08 -0.08)">
       <use xlink:href="#DejaVuSans-30"/>
      </g>
     </g>
    </g>
    <g id="xtick_14">
     <g id="line2d_44"/>
     <g id="text_36">
      <!-- 127 -->
      <g style="fill: #293552" transform="translate(849.873299 140.483441) scale(0.08 -0.08)">
       <use xlink:href="#DejaVuSans-31"/>
       <use xlink:href="#DejaVuSans-32" transform="translate(63.623047 0)"/>
       <use xlink:href="#DejaVuSans-37" transform="translate(127.246094 0)"/>
      </g>
     </g>
    </g>
   </g>
   <g id="matplotlib.axis_14">
    <g id="ytick_13">
     <g id="line2d_45"/>
    </g>
    <g id="ytick_14">
     <g id="line2d_46"/>
    </g>
   </g>
   <g id="line2d_47">
    <path d="M 757.411705 100.678673 
L 758.199867 86.491754 
L 758.988029 78.610132 
L 759.776191 73.881159 
L 760.564353 69.940348 
L 762.140678 65.211375 
L 762.92884 63.635051 
L 763.717002 62.846889 
L 764.505164 61.270564 
L 766.869651 58.906078 
L 767.657813 58.906078 
L 769.234137 57.329754 
L 770.022299 57.329754 
L 770.810461 56.541592 
L 772.386786 56.541592 
L 773.174948 55.753429 
L 774.751272 55.753429 
L 775.539434 54.965267 
L 777.903921 54.965267 
L 778.692083 54.177105 
L 782.632894 54.177105 
L 783.421056 53.388943 
L 789.726353 53.388943 
L 790.514516 52.600781 
L 802.336948 52.600781 
L 803.12511 51.812619 
L 829.134461 51.812619 
L 829.922624 51.024456 
L 857.508299 51.024456 
L 857.508299 51.024456 
" clip-path="url(#pa4c4f2f740)" style="fill: none; stroke: #efa231; stroke-width: 1.5; stroke-linecap: square"/>
   </g>
   <g id="line2d_48">
    <path d="M 752.406875 100.678673 
L 862.513129 100.678673 
" clip-path="url(#pa4c4f2f740)" style="fill: none; stroke-dasharray: 3.7,1.6; stroke-dashoffset: 0; stroke: #cebace"/>
   </g>
   <g id="line2d_49">
    <path d="M 752.406875 51.024456 
L 862.513129 51.024456 
" clip-path="url(#pa4c4f2f740)" style="fill: none; stroke-dasharray: 3.7,1.6; stroke-dashoffset: 0; stroke: #cebace"/>
   </g>
   <g id="patch_21">
    <path d="M 752.406875 130.904691 
L 752.406875 20.798437 
" style="fill: none; stroke: #293552; stroke-width: 0.8; stroke-linejoin: miter; stroke-linecap: square"/>
   </g>
   <g id="patch_22">
    <path d="M 752.406875 130.904691 
L 862.513129 130.904691 
" style="fill: none; stroke: #293552; stroke-width: 0.8; stroke-linejoin: miter; stroke-linecap: square"/>
   </g>
   <g id="text_37">
    <!-- min=32 -->
    <g style="fill: #293552" transform="translate(813.606551 112.217921) scale(0.1 -0.1)">
     <use xlink:href="#DejaVuSans-6d"/>
     <use xlink:href="#DejaVuSans-69" transform="translate(97.412109 0)"/>
     <use xlink:href="#DejaVuSans-6e" transform="translate(125.195312 0)"/>
     <use xlink:href="#DejaVuSans-3d" transform="translate(188.574219 0)"/>
     <use xlink:href="#DejaVuSans-33" transform="translate(272.363281 0)"/>
     <use xlink:href="#DejaVuSans-32" transform="translate(335.986328 0)"/>
    </g>
   </g>
   <g id="text_38">
    <!-- max=95 -->
    <g style="fill: #293552" transform="translate(761.352516 45.003958) scale(0.1 -0.1)">
     <use xlink:href="#DejaVuSans-6d"/>
     <use xlink:href="#DejaVuSans-61" transform="translate(97.412109 0)"/>
     <use xlink:href="#DejaVuSans-78" transform="translate(158.691406 0)"/>
     <use xlink:href="#DejaVuSans-3d" transform="translate(217.871094 0)"/>
     <use xlink:href="#DejaVuSans-39" transform="translate(301.660156 0)"/>
     <use xlink:href="#DejaVuSans-35" transform="translate(365.283203 0)"/>
    </g>
   </g>
   <g id="text_39">
    <!-- positive 3 -->
    <g style="fill: #293552" transform="translate(779.781877 14.798437) scale(0.1 -0.1)">
     <use xlink:href="#DejaVuSans-Bold-70"/>
     <use xlink:href="#DejaVuSans-Bold-6f" transform="translate(71.582031 0)"/>
     <use xlink:href="#DejaVuSans-Bold-73" transform="translate(140.283203 0)"/>
     <use xlink:href="#DejaVuSans-Bold-69" transform="translate(199.804688 0)"/>
     <use xlink:href="#DejaVuSans-Bold-74" transform="translate(234.082031 0)"/>
     <use xlink:href="#DejaVuSans-Bold-69" transform="translate(281.884766 0)"/>
     <use xlink:href="#DejaVuSans-Bold-76" transform="translate(316.162109 0)"/>
     <use xlink:href="#DejaVuSans-Bold-65" transform="translate(381.347656 0)"/>
     <use xlink:href="#DejaVuSans-Bold-20" transform="translate(449.169922 0)"/>
     <use xlink:href="#DejaVuSans-Bold-33" transform="translate(483.984375 0)"/>
    </g>
   </g>
  </g>
 </g>
 <defs>
  <clipPath id="p923e76a2af">
   <rect x="39.648125" y="20.798437" width="110.106254" height="110.106254"/>
  </clipPath>
  <clipPath id="p1cd2f60527">
   <rect x="158.44125" y="20.798437" width="110.106254" height="110.106254"/>
  </clipPath>
  <clipPath id="pe40bd46f60">
   <rect x="277.234375" y="20.798437" width="110.106254" height="110.106254"/>
  </clipPath>
  <clipPath id="p5ef8656507">
   <rect x="396.0275" y="20.798437" width="110.106254" height="110.106254"/>
  </clipPath>
  <clipPath id="pece8898ea5">
   <rect x="514.820625" y="20.798437" width="110.106254" height="110.106254"/>
  </clipPath>
  <clipPath id="p8b3accfc75">
   <rect x="633.61375" y="20.798437" width="110.106254" height="110.106254"/>
  </clipPath>
  <clipPath id="pa4c4f2f740">
   <rect x="752.406875" y="20.798437" width="110.106254" height="110.106254"/>
  </clipPath>
 </defs>
</svg>
