<?xml version="1.0" encoding="UTF-8"?>
<?xml-stylesheet href="https://cdnjs.cloudflare.com/ajax/libs/font-awesome/6.6.0/css/all.min.css" type="text/css"?>
<svg aria-roledescription="xychart" role="graphics-document document" viewBox="0 0 300 300" style="max-width: 100%;" xmlns="http://www.w3.org/2000/svg" width="100%" id="graph-div" height="100%" xmlns:xlink="http://www.w3.org/1999/xlink"><style>#graph-div{font-family:"trebuchet ms",verdana,arial,sans-serif;font-size:16px;fill:#333;}#graph-div .error-icon{fill:#552222;}#graph-div .error-text{fill:#552222;stroke:#552222;}#graph-div .edge-thickness-normal{stroke-width:1px;}#graph-div .edge-thickness-thick{stroke-width:3.5px;}#graph-div .edge-pattern-solid{stroke-dasharray:0;}#graph-div .edge-thickness-invisible{stroke-width:0;fill:none;}#graph-div .edge-pattern-dashed{stroke-dasharray:3;}#graph-div .edge-pattern-dotted{stroke-dasharray:2;}#graph-div .marker{fill:#333333;stroke:#333333;}#graph-div .marker.cross{stroke:#333333;}#graph-div svg{font-family:"trebuchet ms",verdana,arial,sans-serif;font-size:16px;}#graph-div p{margin:0;}#graph-div :root{--mermaid-font-family:"trebuchet ms",verdana,arial,sans-serif;}</style><g></g><g class="main"><rect fill="white" class="background" height="300" width="300"></rect><g class="chart-title"><text transform="translate(150, 18) rotate(0)" text-anchor="middle" dominant-baseline="middle" font-size="14" fill="#131300" y="0" x="0">velocity curves: threshold = 16</text></g><g class="plot"><g class="line-plot-0"><path stroke-width="2" stroke="#94ffef" fill="none" d="M58.732,247.4L60.569,247.4L62.405,247.4L64.242,247.4L66.078,247.4L67.914,247.4L69.751,247.4L71.587,247.4L73.424,247.4L75.26,247.4L77.096,247.4L78.933,247.4L80.769,247.4L82.606,247.4L84.442,247.4L86.278,69.494L88.115,67.877L89.951,66.26L91.788,64.643L93.624,63.025L95.461,61.408L97.297,61.408L99.133,59.791L100.97,59.791L102.806,58.173L104.643,58.173L106.479,56.556L108.315,56.556L110.152,56.556L111.988,54.939L113.825,54.939L115.661,54.939L117.497,53.321L119.334,53.321L121.17,53.321L123.007,51.704L124.843,51.704L126.679,51.704L128.516,51.704L130.352,51.704L132.189,50.087L134.025,50.087L135.861,50.087L137.698,50.087L139.534,50.087L141.371,50.087L143.207,48.469L145.043,48.469L146.88,48.469L148.716,48.469L150.553,48.469L152.389,48.469L154.225,48.469L156.062,48.469L157.898,46.852L159.735,46.852L161.571,46.852L163.408,46.852L165.244,46.852L167.08,46.852L168.917,46.852L170.753,46.852L172.59,46.852L174.426,46.852L176.262,45.235L178.099,45.235L179.935,45.235L181.772,45.235L183.608,45.235L185.444,45.235L187.281,45.235L189.117,45.235L190.954,45.235L192.79,45.235L194.626,45.235L196.463,45.235L198.299,45.235L200.136,45.235L201.972,45.235L203.808,45.235L205.645,45.235L207.481,43.617L209.318,43.617L211.154,43.617L212.99,43.617L214.827,43.617L216.663,43.617L218.5,43.617L220.336,43.617L222.172,43.617L224.009,43.617L225.845,43.617L227.682,43.617L229.518,43.617L231.354,43.617L233.191,43.617L235.027,43.617L236.864,43.617L238.7,43.617L240.537,43.617L242.373,43.617L244.209,43.617L246.046,43.617L247.882,43.617L249.719,43.617L251.555,43.617L253.391,43.617L255.228,42L257.064,42L258.901,42L260.737,42L262.573,42L264.41,42L266.246,42L268.083,42L269.919,42L271.755,42L273.592,42L275.428,42L277.265,42L279.101,42L280.937,42L282.774,42L284.61,42L286.447,42L288.283,42L290.119,42L291.956,42"></path></g><g class="line-plot-1"><path stroke-width="2" stroke="#94ba84" fill="none" d="M58.732,247.4L60.569,247.4L62.405,247.4L64.242,247.4L66.078,247.4L67.914,247.4L69.751,247.4L71.587,247.4L73.424,247.4L75.26,247.4L77.096,247.4L78.933,247.4L80.769,247.4L82.606,247.4L84.442,247.4L86.278,135.805L88.115,130.953L89.951,127.718L91.788,124.483L93.624,121.249L95.461,118.014L97.297,116.397L99.133,113.162L100.97,109.928L102.806,108.31L104.643,106.693L106.479,103.458L108.315,101.841L110.152,100.224L111.988,98.606L113.825,96.989L115.661,95.372L117.497,93.754L119.334,92.137L121.17,90.52L123.007,88.902L124.843,87.285L126.679,85.668L128.516,84.05L130.352,82.433L132.189,82.433L134.025,80.816L135.861,79.198L137.698,79.198L139.534,77.581L141.371,75.964L143.207,75.964L145.043,74.346L146.88,74.346L148.716,72.729L150.553,72.729L152.389,71.112L154.225,71.112L156.062,69.494L157.898,69.494L159.735,67.877L161.571,67.877L163.408,66.26L165.244,66.26L167.08,64.643L168.917,64.643L170.753,64.643L172.59,63.025L174.426,63.025L176.262,63.025L178.099,61.408L179.935,61.408L181.772,59.791L183.608,59.791L185.444,59.791L187.281,59.791L189.117,58.173L190.954,58.173L192.79,58.173L194.626,56.556L196.463,56.556L198.299,56.556L200.136,56.556L201.972,54.939L203.808,54.939L205.645,54.939L207.481,54.939L209.318,53.321L211.154,53.321L212.99,53.321L214.827,53.321L216.663,51.704L218.5,51.704L220.336,51.704L222.172,51.704L224.009,51.704L225.845,50.087L227.682,50.087L229.518,50.087L231.354,50.087L233.191,50.087L235.027,48.469L236.864,48.469L238.7,48.469L240.537,48.469L242.373,48.469L244.209,48.469L246.046,46.852L247.882,46.852L249.719,46.852L251.555,46.852L253.391,46.852L255.228,46.852L257.064,45.235L258.901,45.235L260.737,45.235L262.573,45.235L264.41,45.235L266.246,45.235L268.083,45.235L269.919,43.617L271.755,43.617L273.592,43.617L275.428,43.617L277.265,43.617L279.101,43.617L280.937,43.617L282.774,43.617L284.61,42L286.447,42L288.283,42L290.119,42L291.956,42"></path></g><g class="line-plot-2"><path stroke-width="2" stroke="#317173" fill="none" d="M58.732,247.4L60.569,247.4L62.405,247.4L64.242,247.4L66.078,247.4L67.914,247.4L69.751,247.4L71.587,247.4L73.424,247.4L75.26,247.4L77.096,247.4L78.933,247.4L80.769,247.4L82.606,247.4L84.442,247.4L86.278,190.794L88.115,187.559L89.951,184.324L91.788,181.09L93.624,177.855L95.461,176.238L97.297,173.003L99.133,169.769L100.97,168.151L102.806,164.917L104.643,163.299L106.479,160.065L108.315,158.447L110.152,155.213L111.988,153.595L113.825,150.361L115.661,148.743L117.497,147.126L119.334,143.891L121.17,142.274L123.007,140.657L124.843,139.039L126.679,135.805L128.516,134.187L130.352,132.57L132.189,130.953L134.025,129.335L135.861,127.718L137.698,124.483L139.534,122.866L141.371,121.249L143.207,119.631L145.043,118.014L146.88,116.397L148.716,114.78L150.553,113.162L152.389,111.545L154.225,111.545L156.062,109.928L157.898,108.31L159.735,106.693L161.571,105.076L163.408,103.458L165.244,101.841L167.08,100.224L168.917,100.224L170.753,98.606L172.59,96.989L174.426,95.372L176.262,93.754L178.099,93.754L179.935,92.137L181.772,90.52L183.608,90.52L185.444,88.902L187.281,87.285L189.117,85.668L190.954,85.668L192.79,84.05L194.626,82.433L196.463,82.433L198.299,80.816L200.136,79.198L201.972,79.198L203.808,77.581L205.645,77.581L207.481,75.964L209.318,74.346L211.154,74.346L212.99,72.729L214.827,72.729L216.663,71.112L218.5,71.112L220.336,69.494L222.172,67.877L224.009,67.877L225.845,66.26L227.682,66.26L229.518,64.643L231.354,64.643L233.191,63.025L235.027,63.025L236.864,61.408L238.7,61.408L240.537,59.791L242.373,59.791L244.209,58.173L246.046,58.173L247.882,58.173L249.719,56.556L251.555,56.556L253.391,54.939L255.228,54.939L257.064,53.321L258.901,53.321L260.737,51.704L262.573,51.704L264.41,51.704L266.246,50.087L268.083,50.087L269.919,48.469L271.755,48.469L273.592,48.469L275.428,46.852L277.265,46.852L279.101,46.852L280.937,45.235L282.774,45.235L284.61,43.617L286.447,43.617L288.283,43.617L290.119,42L291.956,42"></path></g><g class="line-plot-3"><path stroke-width="2" stroke="#000000" fill="none" d="M58.732,247.4L60.569,247.4L62.405,247.4L64.242,247.4L66.078,247.4L67.914,247.4L69.751,247.4L71.587,247.4L73.424,247.4L75.26,247.4L77.096,247.4L78.933,247.4L80.769,247.4L82.606,247.4L84.442,247.4L86.278,223.14L88.115,221.523L89.951,219.906L91.788,218.288L93.624,216.671L95.461,215.054L97.297,213.436L99.133,211.819L100.97,210.202L102.806,208.584L104.643,206.967L106.479,205.35L108.315,203.732L110.152,202.115L111.988,200.498L113.825,198.88L115.661,197.263L117.497,195.646L119.334,194.028L121.17,192.411L123.007,190.794L124.843,189.176L126.679,187.559L128.516,185.942L130.352,184.324L132.189,182.707L134.025,181.09L135.861,179.472L137.698,177.855L139.534,176.238L141.371,174.62L143.207,173.003L145.043,171.386L146.88,169.769L148.716,168.151L150.553,166.534L152.389,164.917L154.225,163.299L156.062,161.682L157.898,160.065L159.735,158.447L161.571,156.83L163.408,155.213L165.244,153.595L167.08,151.978L168.917,150.361L170.753,148.743L172.59,147.126L174.426,145.509L176.262,143.891L178.099,142.274L179.935,140.657L181.772,139.039L183.608,137.422L185.444,135.805L187.281,134.187L189.117,132.57L190.954,130.953L192.79,129.335L194.626,127.718L196.463,126.101L198.299,124.483L200.136,122.866L201.972,121.249L203.808,119.631L205.645,118.014L207.481,116.397L209.318,114.78L211.154,113.162L212.99,111.545L214.827,109.928L216.663,108.31L218.5,106.693L220.336,105.076L222.172,103.458L224.009,101.841L225.845,100.224L227.682,98.606L229.518,96.989L231.354,95.372L233.191,93.754L235.027,92.137L236.864,90.52L238.7,88.902L240.537,87.285L242.373,85.668L244.209,84.05L246.046,82.433L247.882,80.816L249.719,79.198L251.555,77.581L253.391,75.964L255.228,74.346L257.064,72.729L258.901,71.112L260.737,69.494L262.573,67.877L264.41,66.26L266.246,64.643L268.083,63.025L269.919,61.408L271.755,59.791L273.592,58.173L275.428,56.556L277.265,54.939L279.101,53.321L280.937,51.704L282.774,50.087L284.61,48.469L286.447,46.852L288.283,45.235L290.119,43.617L291.956,42"></path></g><g class="line-plot-4"><path stroke-width="2" stroke="#293552" fill="none" d="M58.732,247.4L60.569,247.4L62.405,247.4L64.242,247.4L66.078,247.4L67.914,247.4L69.751,247.4L71.587,247.4L73.424,247.4L75.26,247.4L77.096,247.4L78.933,247.4L80.769,247.4L82.606,247.4L84.442,247.4L86.278,237.696L88.115,237.696L89.951,237.696L91.788,236.079L93.624,236.079L95.461,234.461L97.297,234.461L99.133,232.844L100.97,232.844L102.806,231.227L104.643,231.227L106.479,231.227L108.315,229.609L110.152,229.609L111.988,227.992L113.825,227.992L115.661,226.375L117.497,226.375L119.334,224.757L121.17,224.757L123.007,223.14L124.843,223.14L126.679,221.523L128.516,221.523L130.352,219.906L132.189,218.288L134.025,218.288L135.861,216.671L137.698,216.671L139.534,215.054L141.371,215.054L143.207,213.436L145.043,211.819L146.88,211.819L148.716,210.202L150.553,210.202L152.389,208.584L154.225,206.967L156.062,206.967L157.898,205.35L159.735,203.732L161.571,203.732L163.408,202.115L165.244,200.498L167.08,198.88L168.917,198.88L170.753,197.263L172.59,195.646L174.426,195.646L176.262,194.028L178.099,192.411L179.935,190.794L181.772,189.176L183.608,189.176L185.444,187.559L187.281,185.942L189.117,184.324L190.954,182.707L192.79,181.09L194.626,179.472L196.463,177.855L198.299,177.855L200.136,176.238L201.972,174.62L203.808,173.003L205.645,171.386L207.481,169.769L209.318,168.151L211.154,166.534L212.99,164.917L214.827,161.682L216.663,160.065L218.5,158.447L220.336,156.83L222.172,155.213L224.009,153.595L225.845,150.361L227.682,148.743L229.518,147.126L231.354,145.509L233.191,142.274L235.027,140.657L236.864,139.039L238.7,135.805L240.537,134.187L242.373,130.953L244.209,129.335L246.046,126.101L247.882,124.483L249.719,121.249L251.555,119.631L253.391,116.397L255.228,113.162L257.064,111.545L258.901,108.31L260.737,105.076L262.573,101.841L264.41,98.606L266.246,95.372L268.083,92.137L269.919,88.902L271.755,85.668L273.592,82.433L275.428,79.198L277.265,75.964L279.101,71.112L280.937,67.877L282.774,63.025L284.61,59.791L286.447,54.939L288.283,51.704L290.119,46.852L291.956,42"></path></g><g class="line-plot-5"><path stroke-width="2" stroke="#efa231" fill="none" d="M58.732,247.4L60.569,247.4L62.405,247.4L64.242,247.4L66.078,247.4L67.914,247.4L69.751,247.4L71.587,247.4L73.424,247.4L75.26,247.4L77.096,247.4L78.933,247.4L80.769,247.4L82.606,247.4L84.442,247.4L86.278,244.165L88.115,244.165L89.951,244.165L91.788,244.165L93.624,244.165L95.461,242.548L97.297,242.548L99.133,242.548L100.97,242.548L102.806,242.548L104.643,242.548L106.479,240.931L108.315,240.931L110.152,240.931L111.988,240.931L113.825,240.931L115.661,240.931L117.497,239.313L119.334,239.313L121.17,239.313L123.007,239.313L124.843,239.313L126.679,237.696L128.516,237.696L130.352,237.696L132.189,237.696L134.025,237.696L135.861,236.079L137.698,236.079L139.534,236.079L141.371,236.079L143.207,234.461L145.043,234.461L146.88,234.461L148.716,234.461L150.553,232.844L152.389,232.844L154.225,232.844L156.062,232.844L157.898,231.227L159.735,231.227L161.571,231.227L163.408,229.609L165.244,229.609L167.08,229.609L168.917,229.609L170.753,227.992L172.59,227.992L174.426,226.375L176.262,226.375L178.099,226.375L179.935,224.757L181.772,224.757L183.608,224.757L185.444,223.14L187.281,223.14L189.117,221.523L190.954,221.523L192.79,219.906L194.626,219.906L196.463,218.288L198.299,218.288L200.136,216.671L201.972,216.671L203.808,215.054L205.645,215.054L207.481,213.436L209.318,213.436L211.154,211.819L212.99,210.202L214.827,210.202L216.663,208.584L218.5,206.967L220.336,206.967L222.172,205.35L224.009,203.732L225.845,202.115L227.682,200.498L229.518,198.88L231.354,197.263L233.191,195.646L235.027,194.028L236.864,192.411L238.7,190.794L240.537,189.176L242.373,187.559L244.209,185.942L246.046,182.707L247.882,181.09L249.719,179.472L251.555,176.238L253.391,173.003L255.228,171.386L257.064,168.151L258.901,164.917L260.737,161.682L262.573,158.447L264.41,153.595L266.246,150.361L268.083,145.509L269.919,142.274L271.755,135.805L273.592,130.953L275.428,126.101L277.265,119.631L279.101,113.162L280.937,105.076L282.774,96.989L284.61,88.902L286.447,79.198L288.283,67.877L290.119,54.939L291.956,42"></path></g><g class="line-plot-6"><path stroke-width="2" stroke="#cebace" fill="none" d="M58.732,247.4L60.569,247.4L62.405,247.4L64.242,247.4L66.078,247.4L67.914,247.4L69.751,247.4L71.587,247.4L73.424,247.4L75.26,247.4L77.096,247.4L78.933,247.4L80.769,247.4L82.606,247.4L84.442,247.4L86.278,247.4L88.115,247.4L89.951,247.4L91.788,247.4L93.624,247.4L95.461,247.4L97.297,245.783L99.133,245.783L100.97,245.783L102.806,245.783L104.643,245.783L106.479,245.783L108.315,245.783L110.152,245.783L111.988,245.783L113.825,245.783L115.661,245.783L117.497,245.783L119.334,245.783L121.17,245.783L123.007,245.783L124.843,245.783L126.679,245.783L128.516,245.783L130.352,245.783L132.189,245.783L134.025,245.783L135.861,245.783L137.698,245.783L139.534,245.783L141.371,245.783L143.207,245.783L145.043,244.165L146.88,244.165L148.716,244.165L150.553,244.165L152.389,244.165L154.225,244.165L156.062,244.165L157.898,244.165L159.735,244.165L161.571,244.165L163.408,244.165L165.244,244.165L167.08,244.165L168.917,244.165L170.753,244.165L172.59,244.165L174.426,244.165L176.262,242.548L178.099,242.548L179.935,242.548L181.772,242.548L183.608,242.548L185.444,242.548L187.281,242.548L189.117,242.548L190.954,242.548L192.79,242.548L194.626,240.931L196.463,240.931L198.299,240.931L200.136,240.931L201.972,240.931L203.808,240.931L205.645,240.931L207.481,240.931L209.318,239.313L211.154,239.313L212.99,239.313L214.827,239.313L216.663,239.313L218.5,239.313L220.336,237.696L222.172,237.696L224.009,237.696L225.845,237.696L227.682,237.696L229.518,236.079L231.354,236.079L233.191,236.079L235.027,234.461L236.864,234.461L238.7,234.461L240.537,232.844L242.373,232.844L244.209,232.844L246.046,231.227L247.882,231.227L249.719,229.609L251.555,229.609L253.391,227.992L255.228,227.992L257.064,226.375L258.901,224.757L260.737,223.14L262.573,221.523L264.41,219.906L266.246,218.288L268.083,216.671L269.919,213.436L271.755,211.819L273.592,208.584L275.428,203.732L277.265,198.88L279.101,194.028L280.937,187.559L282.774,179.472L284.61,168.151L286.447,153.595L288.283,132.57L290.119,100.224L291.956,42"></path></g><g class="bar-plot-7"><rect stroke-width="0" stroke="#ffffff" fill="#ffffff" height="211.39999961853027" width="15.28386754989624" y="42" x="51.090489053726195"></rect><rect stroke-width="0" stroke="#ffffff" fill="#ffffff" height="211.39999961853027" width="15.28386754989624" y="42" x="52.92689406440014"></rect><rect stroke-width="0" stroke="#ffffff" fill="#ffffff" height="211.39999961853027" width="15.28386754989624" y="42" x="54.76329907507409"></rect><rect stroke-width="0" stroke="#ffffff" fill="#ffffff" height="211.39999961853027" width="15.28386754989624" y="42" x="56.59970408574802"></rect><rect stroke-width="0" stroke="#ffffff" fill="#ffffff" height="211.39999961853027" width="15.28386754989624" y="42" x="58.43610909642198"></rect><rect stroke-width="0" stroke="#ffffff" fill="#ffffff" height="211.39999961853027" width="15.28386754989624" y="42" x="60.27251410709591"></rect><rect stroke-width="0" stroke="#ffffff" fill="#ffffff" height="211.39999961853027" width="15.28386754989624" y="42" x="62.10891911776985"></rect><rect stroke-width="0" stroke="#ffffff" fill="#ffffff" height="211.39999961853027" width="15.28386754989624" y="42" x="63.94532412844381"></rect><rect stroke-width="0" stroke="#ffffff" fill="#ffffff" height="211.39999961853027" width="15.28386754989624" y="42" x="65.78172913911774"></rect><rect stroke-width="0" stroke="#ffffff" fill="#ffffff" height="211.39999961853027" width="15.28386754989624" y="42" x="67.61813414979169"></rect><rect stroke-width="0" stroke="#ffffff" fill="#ffffff" height="211.39999961853027" width="15.28386754989624" y="42" x="69.45453916046564"></rect><rect stroke-width="0" stroke="#ffffff" fill="#ffffff" height="211.39999961853027" width="15.28386754989624" y="42" x="71.29094417113959"></rect><rect stroke-width="0" stroke="#ffffff" fill="#ffffff" height="211.39999961853027" width="15.28386754989624" y="42" x="73.12734918181351"></rect><rect stroke-width="0" stroke="#ffffff" fill="#ffffff" height="6" width="15.28386754989624" y="247.39999961853027" x="74.96375419248747"></rect><rect stroke-width="0" stroke="#ffffff" fill="#ffffff" height="6" width="15.28386754989624" y="247.39999961853027" x="76.8001592031614"></rect><rect stroke-width="0" stroke="#ffffff" fill="#ffffff" height="6" width="15.28386754989624" y="247.39999961853027" x="78.63656421383536"></rect><rect stroke-width="0" stroke="#ffffff" fill="#ffffff" height="6" width="15.28386754989624" y="247.39999961853027" x="80.4729692245093"></rect><rect stroke-width="0" stroke="#ffffff" fill="#ffffff" height="6" width="15.28386754989624" y="247.39999961853027" x="82.30937423518324"></rect><rect stroke-width="0" stroke="#ffffff" fill="#ffffff" height="6" width="15.28386754989624" y="247.39999961853027" x="84.14577924585718"></rect><rect stroke-width="0" stroke="#ffffff" fill="#ffffff" height="6" width="15.28386754989624" y="247.39999961853027" x="85.98218425653113"></rect><rect stroke-width="0" stroke="#ffffff" fill="#ffffff" height="6" width="15.28386754989624" y="247.39999961853027" x="87.81858926720508"></rect><rect stroke-width="0" stroke="#ffffff" fill="#ffffff" height="6" width="15.28386754989624" y="247.39999961853027" x="89.65499427787901"></rect><rect stroke-width="0" stroke="#ffffff" fill="#ffffff" height="6" width="15.28386754989624" y="247.39999961853027" x="91.49139928855297"></rect><rect stroke-width="0" stroke="#ffffff" fill="#ffffff" height="6" width="15.28386754989624" y="247.39999961853027" x="93.3278042992269"></rect><rect stroke-width="0" stroke="#ffffff" fill="#ffffff" height="6" width="15.28386754989624" y="247.39999961853027" x="95.16420930990084"></rect><rect stroke-width="0" stroke="#ffffff" fill="#ffffff" height="6" width="15.28386754989624" y="247.39999961853027" x="97.0006143205748"></rect><rect stroke-width="0" stroke="#ffffff" fill="#ffffff" height="6" width="15.28386754989624" y="247.39999961853027" x="98.83701933124874"></rect><rect stroke-width="0" stroke="#ffffff" fill="#ffffff" height="6" width="15.28386754989624" y="247.39999961853027" x="100.67342434192267"></rect><rect stroke-width="0" stroke="#ffffff" fill="#ffffff" height="6" width="15.28386754989624" y="247.39999961853027" x="102.50982935259663"></rect><rect stroke-width="0" stroke="#ffffff" fill="#ffffff" height="6" width="15.28386754989624" y="247.39999961853027" x="104.34623436327057"></rect><rect stroke-width="0" stroke="#ffffff" fill="#ffffff" height="6" width="15.28386754989624" y="247.39999961853027" x="106.18263937394451"></rect><rect stroke-width="0" stroke="#ffffff" fill="#ffffff" height="6" width="15.28386754989624" y="247.39999961853027" x="108.01904438461844"></rect><rect stroke-width="0" stroke="#ffffff" fill="#ffffff" height="6" width="15.28386754989624" y="247.39999961853027" x="109.8554493952924"></rect><rect stroke-width="0" stroke="#ffffff" fill="#ffffff" height="6" width="15.28386754989624" y="247.39999961853027" x="111.69185440596634"></rect><rect stroke-width="0" stroke="#ffffff" fill="#ffffff" height="6" width="15.28386754989624" y="247.39999961853027" x="113.52825941664028"></rect><rect stroke-width="0" stroke="#ffffff" fill="#ffffff" height="6" width="15.28386754989624" y="247.39999961853027" x="115.36466442731422"></rect><rect stroke-width="0" stroke="#ffffff" fill="#ffffff" height="6" width="15.28386754989624" y="247.39999961853027" x="117.20106943798817"></rect><rect stroke-width="0" stroke="#ffffff" fill="#ffffff" height="6" width="15.28386754989624" y="247.39999961853027" x="119.0374744486621"></rect><rect stroke-width="0" stroke="#ffffff" fill="#ffffff" height="6" width="15.28386754989624" y="247.39999961853027" x="120.87387945933605"></rect><rect stroke-width="0" stroke="#ffffff" fill="#ffffff" height="6" width="15.28386754989624" y="247.39999961853027" x="122.71028447001001"></rect><rect stroke-width="0" stroke="#ffffff" fill="#ffffff" height="6" width="15.28386754989624" y="247.39999961853027" x="124.54668948068394"></rect><rect stroke-width="0" stroke="#ffffff" fill="#ffffff" height="6" width="15.28386754989624" y="247.39999961853027" x="126.38309449135787"></rect><rect stroke-width="0" stroke="#ffffff" fill="#ffffff" height="6" width="15.28386754989624" y="247.39999961853027" x="128.21949950203182"></rect><rect stroke-width="0" stroke="#ffffff" fill="#ffffff" height="6" width="15.28386754989624" y="247.39999961853027" x="130.05590451270578"></rect><rect stroke-width="0" stroke="#ffffff" fill="#ffffff" height="6" width="15.28386754989624" y="247.39999961853027" x="131.8923095233797"></rect><rect stroke-width="0" stroke="#ffffff" fill="#ffffff" height="6" width="15.28386754989624" y="247.39999961853027" x="133.72871453405364"></rect><rect stroke-width="0" stroke="#ffffff" fill="#ffffff" height="6" width="15.28386754989624" y="247.39999961853027" x="135.5651195447276"></rect><rect stroke-width="0" stroke="#ffffff" fill="#ffffff" height="6" width="15.28386754989624" y="247.39999961853027" x="137.40152455540155"></rect><rect stroke-width="0" stroke="#ffffff" fill="#ffffff" height="6" width="15.28386754989624" y="247.39999961853027" x="139.23792956607548"></rect><rect stroke-width="0" stroke="#ffffff" fill="#ffffff" height="6" width="15.28386754989624" y="247.39999961853027" x="141.0743345767494"></rect><rect stroke-width="0" stroke="#ffffff" fill="#ffffff" height="6" width="15.28386754989624" y="247.39999961853027" x="142.9107395874234"></rect><rect stroke-width="0" stroke="#ffffff" fill="#ffffff" height="6" width="15.28386754989624" y="247.39999961853027" x="144.74714459809732"></rect><rect stroke-width="0" stroke="#ffffff" fill="#ffffff" height="6" width="15.28386754989624" y="247.39999961853027" x="146.58354960877128"></rect><rect stroke-width="0" stroke="#ffffff" fill="#ffffff" height="6" width="15.28386754989624" y="247.39999961853027" x="148.4199546194452"></rect><rect stroke-width="0" stroke="#ffffff" fill="#ffffff" height="6" width="15.28386754989624" y="247.39999961853027" x="150.25635963011914"></rect><rect stroke-width="0" stroke="#ffffff" fill="#ffffff" height="6" width="15.28386754989624" y="247.39999961853027" x="152.0927646407931"></rect><rect stroke-width="0" stroke="#ffffff" fill="#ffffff" height="6" width="15.28386754989624" y="247.39999961853027" x="153.92916965146705"></rect><rect stroke-width="0" stroke="#ffffff" fill="#ffffff" height="6" width="15.28386754989624" y="247.39999961853027" x="155.76557466214098"></rect><rect stroke-width="0" stroke="#ffffff" fill="#ffffff" height="6" width="15.28386754989624" y="247.39999961853027" x="157.60197967281493"></rect><rect stroke-width="0" stroke="#ffffff" fill="#ffffff" height="6" width="15.28386754989624" y="247.39999961853027" x="159.43838468348886"></rect><rect stroke-width="0" stroke="#ffffff" fill="#ffffff" height="6" width="15.28386754989624" y="247.39999961853027" x="161.27478969416282"></rect><rect stroke-width="0" stroke="#ffffff" fill="#ffffff" height="6" width="15.28386754989624" y="247.39999961853027" x="163.11119470483675"></rect><rect stroke-width="0" stroke="#ffffff" fill="#ffffff" height="6" width="15.28386754989624" y="247.39999961853027" x="164.94759971551068"></rect><rect stroke-width="0" stroke="#ffffff" fill="#ffffff" height="6" width="15.28386754989624" y="247.39999961853027" x="166.78400472618463"></rect><rect stroke-width="0" stroke="#ffffff" fill="#ffffff" height="6" width="15.28386754989624" y="247.39999961853027" x="168.6204097368586"></rect><rect stroke-width="0" stroke="#ffffff" fill="#ffffff" height="6" width="15.28386754989624" y="247.39999961853027" x="170.45681474753255"></rect><rect stroke-width="0" stroke="#ffffff" fill="#ffffff" height="6" width="15.28386754989624" y="247.39999961853027" x="172.29321975820648"></rect><rect stroke-width="0" stroke="#ffffff" fill="#ffffff" height="6" width="15.28386754989624" y="247.39999961853027" x="174.1296247688804"></rect><rect stroke-width="0" stroke="#ffffff" fill="#ffffff" height="6" width="15.28386754989624" y="247.39999961853027" x="175.96602977955436"></rect><rect stroke-width="0" stroke="#ffffff" fill="#ffffff" height="6" width="15.28386754989624" y="247.39999961853027" x="177.80243479022832"></rect><rect stroke-width="0" stroke="#ffffff" fill="#ffffff" height="6" width="15.28386754989624" y="247.39999961853027" x="179.63883980090225"></rect><rect stroke-width="0" stroke="#ffffff" fill="#ffffff" height="6" width="15.28386754989624" y="247.39999961853027" x="181.47524481157618"></rect><rect stroke-width="0" stroke="#ffffff" fill="#ffffff" height="6" width="15.28386754989624" y="247.39999961853027" x="183.31164982225013"></rect><rect stroke-width="0" stroke="#ffffff" fill="#ffffff" height="6" width="15.28386754989624" y="247.39999961853027" x="185.14805483292406"></rect><rect stroke-width="0" stroke="#ffffff" fill="#ffffff" height="6" width="15.28386754989624" y="247.39999961853027" x="186.984459843598"></rect><rect stroke-width="0" stroke="#ffffff" fill="#ffffff" height="6" width="15.28386754989624" y="247.39999961853027" x="188.82086485427195"></rect><rect stroke-width="0" stroke="#ffffff" fill="#ffffff" height="6" width="15.28386754989624" y="247.39999961853027" x="190.65726986494593"></rect><rect stroke-width="0" stroke="#ffffff" fill="#ffffff" height="6" width="15.28386754989624" y="247.39999961853027" x="192.49367487561986"></rect><rect stroke-width="0" stroke="#ffffff" fill="#ffffff" height="6" width="15.28386754989624" y="247.39999961853027" x="194.33007988629382"></rect><rect stroke-width="0" stroke="#ffffff" fill="#ffffff" height="6" width="15.28386754989624" y="247.39999961853027" x="196.16648489696775"></rect><rect stroke-width="0" stroke="#ffffff" fill="#ffffff" height="6" width="15.28386754989624" y="247.39999961853027" x="198.00288990764167"></rect><rect stroke-width="0" stroke="#ffffff" fill="#ffffff" height="6" width="15.28386754989624" y="247.39999961853027" x="199.83929491831563"></rect><rect stroke-width="0" stroke="#ffffff" fill="#ffffff" height="6" width="15.28386754989624" y="247.39999961853027" x="201.67569992898956"></rect><rect stroke-width="0" stroke="#ffffff" fill="#ffffff" height="6" width="15.28386754989624" y="247.39999961853027" x="203.5121049396635"></rect><rect stroke-width="0" stroke="#ffffff" fill="#ffffff" height="6" width="15.28386754989624" y="247.39999961853027" x="205.34850995033744"></rect><rect stroke-width="0" stroke="#ffffff" fill="#ffffff" height="6" width="15.28386754989624" y="247.39999961853027" x="207.1849149610114"></rect><rect stroke-width="0" stroke="#ffffff" fill="#ffffff" height="6" width="15.28386754989624" y="247.39999961853027" x="209.02131997168533"></rect><rect stroke-width="0" stroke="#ffffff" fill="#ffffff" height="6" width="15.28386754989624" y="247.39999961853027" x="210.8577249823593"></rect><rect stroke-width="0" stroke="#ffffff" fill="#ffffff" height="6" width="15.28386754989624" y="247.39999961853027" x="212.69412999303324"></rect><rect stroke-width="0" stroke="#ffffff" fill="#ffffff" height="6" width="15.28386754989624" y="247.39999961853027" x="214.53053500370717"></rect><rect stroke-width="0" stroke="#ffffff" fill="#ffffff" height="6" width="15.28386754989624" y="247.39999961853027" x="216.3669400143811"></rect><rect stroke-width="0" stroke="#ffffff" fill="#ffffff" height="6" width="15.28386754989624" y="247.39999961853027" x="218.20334502505506"></rect><rect stroke-width="0" stroke="#ffffff" fill="#ffffff" height="6" width="15.28386754989624" y="247.39999961853027" x="220.039750035729"></rect><rect stroke-width="0" stroke="#ffffff" fill="#ffffff" height="6" width="15.28386754989624" y="247.39999961853027" x="221.87615504640294"></rect><rect stroke-width="0" stroke="#ffffff" fill="#ffffff" height="6" width="15.28386754989624" y="247.39999961853027" x="223.7125600570769"></rect><rect stroke-width="0" stroke="#ffffff" fill="#ffffff" height="6" width="15.28386754989624" y="247.39999961853027" x="225.54896506775083"></rect><rect stroke-width="0" stroke="#ffffff" fill="#ffffff" height="6" width="15.28386754989624" y="247.39999961853027" x="227.38537007842476"></rect><rect stroke-width="0" stroke="#ffffff" fill="#ffffff" height="6" width="15.28386754989624" y="247.39999961853027" x="229.2217750890987"></rect><rect stroke-width="0" stroke="#ffffff" fill="#ffffff" height="6" width="15.28386754989624" y="247.39999961853027" x="231.05818009977264"></rect><rect stroke-width="0" stroke="#ffffff" fill="#ffffff" height="6" width="15.28386754989624" y="247.39999961853027" x="232.8945851104466"></rect><rect stroke-width="0" stroke="#ffffff" fill="#ffffff" height="6" width="15.28386754989624" y="247.39999961853027" x="234.73099012112056"></rect><rect stroke-width="0" stroke="#ffffff" fill="#ffffff" height="6" width="15.28386754989624" y="247.39999961853027" x="236.5673951317945"></rect><rect stroke-width="0" stroke="#ffffff" fill="#ffffff" height="6" width="15.28386754989624" y="247.39999961853027" x="238.40380014246844"></rect><rect stroke-width="0" stroke="#ffffff" fill="#ffffff" height="6" width="15.28386754989624" y="247.39999961853027" x="240.24020515314237"></rect><rect stroke-width="0" stroke="#ffffff" fill="#ffffff" height="6" width="15.28386754989624" y="247.39999961853027" x="242.07661016381633"></rect><rect stroke-width="0" stroke="#ffffff" fill="#ffffff" height="6" width="15.28386754989624" y="247.39999961853027" x="243.91301517449025"></rect><rect stroke-width="0" stroke="#ffffff" fill="#ffffff" height="6" width="15.28386754989624" y="247.39999961853027" x="245.74942018516418"></rect><rect stroke-width="0" stroke="#ffffff" fill="#ffffff" height="6" width="15.28386754989624" y="247.39999961853027" x="247.58582519583814"></rect><rect stroke-width="0" stroke="#ffffff" fill="#ffffff" height="6" width="15.28386754989624" y="247.39999961853027" x="249.42223020651207"></rect><rect stroke-width="0" stroke="#ffffff" fill="#ffffff" height="6" width="15.28386754989624" y="247.39999961853027" x="251.25863521718603"></rect><rect stroke-width="0" stroke="#ffffff" fill="#ffffff" height="6" width="15.28386754989624" y="247.39999961853027" x="253.09504022785998"></rect><rect stroke-width="0" stroke="#ffffff" fill="#ffffff" height="6" width="15.28386754989624" y="247.39999961853027" x="254.93144523853394"></rect><rect stroke-width="0" stroke="#ffffff" fill="#ffffff" height="6" width="15.28386754989624" y="247.39999961853027" x="256.76785024920787"></rect><rect stroke-width="0" stroke="#ffffff" fill="#ffffff" height="6" width="15.28386754989624" y="247.39999961853027" x="258.60425525988177"></rect><rect stroke-width="0" stroke="#ffffff" fill="#ffffff" height="6" width="15.28386754989624" y="247.39999961853027" x="260.4406602705557"></rect><rect stroke-width="0" stroke="#ffffff" fill="#ffffff" height="6" width="15.28386754989624" y="247.39999961853027" x="262.2770652812296"></rect><rect stroke-width="0" stroke="#ffffff" fill="#ffffff" height="6" width="15.28386754989624" y="247.39999961853027" x="264.11347029190364"></rect><rect stroke-width="0" stroke="#ffffff" fill="#ffffff" height="6" width="15.28386754989624" y="247.39999961853027" x="265.94987530257754"></rect><rect stroke-width="0" stroke="#ffffff" fill="#ffffff" height="6" width="15.28386754989624" y="247.39999961853027" x="267.78628031325155"></rect><rect stroke-width="0" stroke="#ffffff" fill="#ffffff" height="6" width="15.28386754989624" y="247.39999961853027" x="269.62268532392545"></rect><rect stroke-width="0" stroke="#ffffff" fill="#ffffff" height="6" width="15.28386754989624" y="247.39999961853027" x="271.4590903345994"></rect><rect stroke-width="0" stroke="#ffffff" fill="#ffffff" height="6" width="15.28386754989624" y="247.39999961853027" x="273.2954953452733"></rect><rect stroke-width="0" stroke="#ffffff" fill="#ffffff" height="6" width="15.28386754989624" y="247.39999961853027" x="275.13190035594727"></rect><rect stroke-width="0" stroke="#ffffff" fill="#ffffff" height="6" width="15.28386754989624" y="247.39999961853027" x="276.96830536662117"></rect><rect stroke-width="0" stroke="#ffffff" fill="#ffffff" height="6" width="15.28386754989624" y="247.39999961853027" x="278.8047103772951"></rect><rect stroke-width="0" stroke="#ffffff" fill="#ffffff" height="6" width="15.28386754989624" y="247.39999961853027" x="280.64111538796914"></rect><rect stroke-width="0" stroke="#ffffff" fill="#ffffff" height="6" width="15.28386754989624" y="247.39999961853027" x="282.47752039864304"></rect><rect stroke-width="0" stroke="#ffffff" fill="#ffffff" height="6" width="15.28386754989624" y="247.39999961853027" x="284.313925409317"></rect></g></g><g class="bottom-axis"><g class="axis-line"><path stroke-width="1" stroke="#131300" fill="none" d="M 50.68828201293945,253.89999961853027 L 300,253.89999961853027"></path></g><g class="label"><text transform="translate(58.732422828674316, 259.3999996185303) rotate(0)" text-anchor="middle" dominant-baseline="text-before-edge" font-size="10" fill="#131300" y="0" x="0">0</text><text transform="translate(77.09647293541376, 259.3999996185303) rotate(0)" text-anchor="middle" dominant-baseline="text-before-edge" font-size="10" fill="#131300" y="0" x="0">10</text><text transform="translate(95.4605230421532, 259.3999996185303) rotate(0)" text-anchor="middle" dominant-baseline="text-before-edge" font-size="10" fill="#131300" y="0" x="0">20</text><text transform="translate(113.82457314889263, 259.3999996185303) rotate(0)" text-anchor="middle" dominant-baseline="text-before-edge" font-size="10" fill="#131300" y="0" x="0">30</text><text transform="translate(132.18862325563205, 259.3999996185303) rotate(0)" text-anchor="middle" dominant-baseline="text-before-edge" font-size="10" fill="#131300" y="0" x="0">40</text><text transform="translate(150.5526733623715, 259.3999996185303) rotate(0)" text-anchor="middle" dominant-baseline="text-before-edge" font-size="10" fill="#131300" y="0" x="0">50</text><text transform="translate(168.91672346911093, 259.3999996185303) rotate(0)" text-anchor="middle" dominant-baseline="text-before-edge" font-size="10" fill="#131300" y="0" x="0">60</text><text transform="translate(187.28077357585036, 259.3999996185303) rotate(0)" text-anchor="middle" dominant-baseline="text-before-edge" font-size="10" fill="#131300" y="0" x="0">70</text><text transform="translate(205.6448236825898, 259.3999996185303) rotate(0)" text-anchor="middle" dominant-baseline="text-before-edge" font-size="10" fill="#131300" y="0" x="0">80</text><text transform="translate(224.00887378932921, 259.3999996185303) rotate(0)" text-anchor="middle" dominant-baseline="text-before-edge" font-size="10" fill="#131300" y="0" x="0">90</text><text transform="translate(242.37292389606867, 259.3999996185303) rotate(0)" text-anchor="middle" dominant-baseline="text-before-edge" font-size="10" fill="#131300" y="0" x="0">100</text><text transform="translate(260.7369740028081, 259.3999996185303) rotate(0)" text-anchor="middle" dominant-baseline="text-before-edge" font-size="10" fill="#131300" y="0" x="0">110</text><text transform="translate(279.10102410954755, 259.3999996185303) rotate(0)" text-anchor="middle" dominant-baseline="text-before-edge" font-size="10" fill="#131300" y="0" x="0">120</text></g><g class="title"><text transform="translate(175.34414100646973, 281.3999996185303) rotate(0)" text-anchor="middle" dominant-baseline="text-before-edge" font-size="12" fill="#131300" y="0" x="0">input</text></g></g><g class="left-axis"><g class="axisl-line"><path stroke-width="1" stroke="#131300" fill="none" d="M 50.18828201293945,36 L 50.18828201293945,253.39999961853027"></path></g><g class="label"><text transform="translate(44.68828201293945, 53.3212598214938) rotate(0)" text-anchor="end" dominant-baseline="middle" font-size="10" fill="#131300" y="0" x="0">120</text><text transform="translate(44.68828201293945, 69.49448813791349) rotate(0)" text-anchor="end" dominant-baseline="middle" font-size="10" fill="#131300" y="0" x="0">110</text><text transform="translate(44.68828201293945, 85.6677164543332) rotate(0)" text-anchor="end" dominant-baseline="middle" font-size="10" fill="#131300" y="0" x="0">100</text><text transform="translate(44.68828201293945, 101.84094477075293) rotate(0)" text-anchor="end" dominant-baseline="middle" font-size="10" fill="#131300" y="0" x="0">90</text><text transform="translate(44.68828201293945, 118.01417308717262) rotate(0)" text-anchor="end" dominant-baseline="middle" font-size="10" fill="#131300" y="0" x="0">80</text><text transform="translate(44.68828201293945, 134.18740140359233) rotate(0)" text-anchor="end" dominant-baseline="middle" font-size="10" fill="#131300" y="0" x="0">70</text><text transform="translate(44.68828201293945, 150.36062972001204) rotate(0)" text-anchor="end" dominant-baseline="middle" font-size="10" fill="#131300" y="0" x="0">60</text><text transform="translate(44.68828201293945, 166.53385803643175) rotate(0)" text-anchor="end" dominant-baseline="middle" font-size="10" fill="#131300" y="0" x="0">50</text><text transform="translate(44.68828201293945, 182.70708635285146) rotate(0)" text-anchor="end" dominant-baseline="middle" font-size="10" fill="#131300" y="0" x="0">40</text><text transform="translate(44.68828201293945, 198.88031466927114) rotate(0)" text-anchor="end" dominant-baseline="middle" font-size="10" fill="#131300" y="0" x="0">30</text><text transform="translate(44.68828201293945, 215.05354298569088) rotate(0)" text-anchor="end" dominant-baseline="middle" font-size="10" fill="#131300" y="0" x="0">20</text><text transform="translate(44.68828201293945, 231.22677130211056) rotate(0)" text-anchor="end" dominant-baseline="middle" font-size="10" fill="#131300" y="0" x="0">10</text><text transform="translate(44.68828201293945, 247.39999961853027) rotate(0)" text-anchor="end" dominant-baseline="middle" font-size="10" fill="#131300" y="0" x="0">0</text></g><g class="title"><text transform="translate(5, 144.69999980926514) rotate(270)" text-anchor="middle" dominant-baseline="text-before-edge" font-size="12" fill="#131300" y="0" x="0">output</text></g></g></g><g class="mermaid-tmp-group"></g></svg>