<?xml version="1.0" encoding="UTF-8"?>
<?xml-stylesheet href="https://cdnjs.cloudflare.com/ajax/libs/font-awesome/6.6.0/css/all.min.css" type="text/css"?>
<svg aria-roledescription="xychart" role="graphics-document document" viewBox="0 0 300 300" style="max-width: 100%;" xmlns="http://www.w3.org/2000/svg" width="100%" id="graph-div" height="100%" xmlns:xlink="http://www.w3.org/1999/xlink"><style>#graph-div{font-family:"trebuchet ms",verdana,arial,sans-serif;font-size:16px;fill:#333;}#graph-div .error-icon{fill:#552222;}#graph-div .error-text{fill:#552222;stroke:#552222;}#graph-div .edge-thickness-normal{stroke-width:1px;}#graph-div .edge-thickness-thick{stroke-width:3.5px;}#graph-div .edge-pattern-solid{stroke-dasharray:0;}#graph-div .edge-thickness-invisible{stroke-width:0;fill:none;}#graph-div .edge-pattern-dashed{stroke-dasharray:3;}#graph-div .edge-pattern-dotted{stroke-dasharray:2;}#graph-div .marker{fill:#333333;stroke:#333333;}#graph-div .marker.cross{stroke:#333333;}#graph-div svg{font-family:"trebuchet ms",verdana,arial,sans-serif;font-size:16px;}#graph-div p{margin:0;}#graph-div :root{--mermaid-font-family:"trebuchet ms",verdana,arial,sans-serif;}</style><g></g><g class="main"><rect fill="white" class="background" height="300" width="300"></rect><g class="chart-title"><text transform="translate(150, 18) rotate(0)" text-anchor="middle" dominant-baseline="middle" font-size="14" fill="#131300" y="0" x="0">velocity curves: min = 32, max = 95</text></g><g class="plot"><g class="line-plot-0"><path stroke-width="2" stroke="#ffffff" fill="none" d="M58.732,247.4L60.569,245.783L62.405,244.165L64.242,242.548L66.078,240.931L67.914,239.313L69.751,237.696L71.587,236.079L73.424,234.461L75.26,232.844L77.096,231.227L78.933,229.609L80.769,227.992L82.606,226.375L84.442,224.757L86.278,223.14L88.115,221.523L89.951,219.906L91.788,218.288L93.624,216.671L95.461,215.054L97.297,213.436L99.133,211.819L100.97,210.202L102.806,208.584L104.643,206.967L106.479,205.35L108.315,203.732L110.152,202.115L111.988,200.498L113.825,198.88L115.661,197.263L117.497,195.646L119.334,194.028L121.17,192.411L123.007,190.794L124.843,189.176L126.679,187.559L128.516,185.942L130.352,184.324L132.189,182.707L134.025,181.09L135.861,179.472L137.698,177.855L139.534,176.238L141.371,174.62L143.207,173.003L145.043,171.386L146.88,169.769L148.716,168.151L150.553,166.534L152.389,164.917L154.225,163.299L156.062,161.682L157.898,160.065L159.735,158.447L161.571,156.83L163.408,155.213L165.244,153.595L167.08,151.978L168.917,150.361L170.753,148.743L172.59,147.126L174.426,145.509L176.262,143.891L178.099,142.274L179.935,140.657L181.772,139.039L183.608,137.422L185.444,135.805L187.281,134.187L189.117,132.57L190.954,130.953L192.79,129.335L194.626,127.718L196.463,126.101L198.299,124.483L200.136,122.866L201.972,121.249L203.808,119.631L205.645,118.014L207.481,116.397L209.318,114.78L211.154,113.162L212.99,111.545L214.827,109.928L216.663,108.31L218.5,106.693L220.336,105.076L222.172,103.458L224.009,101.841L225.845,100.224L227.682,98.606L229.518,96.989L231.354,95.372L233.191,93.754L235.027,92.137L236.864,90.52L238.7,88.902L240.537,87.285L242.373,85.668L244.209,84.05L246.046,82.433L247.882,80.816L249.719,79.198L251.555,77.581L253.391,75.964L255.228,74.346L257.064,72.729L258.901,71.112L260.737,69.494L262.573,67.877L264.41,66.26L266.246,64.643L268.083,63.025L269.919,61.408L271.755,59.791L273.592,58.173L275.428,56.556L277.265,54.939L279.101,53.321L280.937,51.704L282.774,50.087L284.61,48.469L286.447,46.852L288.283,45.235L290.119,43.617L291.956,42"></path></g><g class="line-plot-1"><path stroke-width="2" stroke="#94ffef" fill="none" d="M58.732,195.646L60.569,166.534L62.405,150.361L64.242,140.657L66.078,132.57L67.914,127.718L69.751,122.866L71.587,119.631L73.424,118.014L75.26,114.78L77.096,113.162L78.933,111.545L80.769,109.928L82.606,109.928L84.442,108.31L86.278,106.693L88.115,106.693L89.951,105.076L91.788,105.076L93.624,105.076L95.461,103.458L97.297,103.458L99.133,103.458L100.97,101.841L102.806,101.841L104.643,101.841L106.479,101.841L108.315,100.224L110.152,100.224L111.988,100.224L113.825,100.224L115.661,100.224L117.497,100.224L119.334,98.606L121.17,98.606L123.007,98.606L124.843,98.606L126.679,98.606L128.516,98.606L130.352,98.606L132.189,98.606L134.025,98.606L135.861,96.989L137.698,96.989L139.534,96.989L141.371,96.989L143.207,96.989L145.043,96.989L146.88,96.989L148.716,96.989L150.553,96.989L152.389,96.989L154.225,96.989L156.062,96.989L157.898,96.989L159.735,96.989L161.571,96.989L163.408,96.989L165.244,95.372L167.08,95.372L168.917,95.372L170.753,95.372L172.59,95.372L174.426,95.372L176.262,95.372L178.099,95.372L179.935,95.372L181.772,95.372L183.608,95.372L185.444,95.372L187.281,95.372L189.117,95.372L190.954,95.372L192.79,95.372L194.626,95.372L196.463,95.372L198.299,95.372L200.136,95.372L201.972,95.372L203.808,95.372L205.645,95.372L207.481,95.372L209.318,95.372L211.154,95.372L212.99,95.372L214.827,95.372L216.663,95.372L218.5,95.372L220.336,95.372L222.172,95.372L224.009,95.372L225.845,95.372L227.682,93.754L229.518,93.754L231.354,93.754L233.191,93.754L235.027,93.754L236.864,93.754L238.7,93.754L240.537,93.754L242.373,93.754L244.209,93.754L246.046,93.754L247.882,93.754L249.719,93.754L251.555,93.754L253.391,93.754L255.228,93.754L257.064,93.754L258.901,93.754L260.737,93.754L262.573,93.754L264.41,93.754L266.246,93.754L268.083,93.754L269.919,93.754L271.755,93.754L273.592,93.754L275.428,93.754L277.265,93.754L279.101,93.754L280.937,93.754L282.774,93.754L284.61,93.754L286.447,93.754L288.283,93.754L290.119,93.754L291.956,93.754"></path></g><g class="line-plot-2"><path stroke-width="2" stroke="#94ba84" fill="none" d="M58.732,195.646L60.569,189.176L62.405,182.707L64.242,177.855L66.078,173.003L67.914,168.151L69.751,164.917L71.587,160.065L73.424,156.83L75.26,153.595L77.096,151.978L78.933,148.743L80.769,145.509L82.606,143.891L84.442,142.274L86.278,140.657L88.115,137.422L89.951,135.805L91.788,134.187L93.624,132.57L95.461,130.953L97.297,130.953L99.133,129.335L100.97,127.718L102.806,126.101L104.643,126.101L106.479,124.483L108.315,122.866L110.152,122.866L111.988,121.249L113.825,121.249L115.661,119.631L117.497,119.631L119.334,118.014L121.17,118.014L123.007,116.397L124.843,116.397L126.679,114.78L128.516,114.78L130.352,114.78L132.189,113.162L134.025,113.162L135.861,113.162L137.698,111.545L139.534,111.545L141.371,111.545L143.207,109.928L145.043,109.928L146.88,109.928L148.716,108.31L150.553,108.31L152.389,108.31L154.225,108.31L156.062,106.693L157.898,106.693L159.735,106.693L161.571,106.693L163.408,106.693L165.244,105.076L167.08,105.076L168.917,105.076L170.753,105.076L172.59,105.076L174.426,103.458L176.262,103.458L178.099,103.458L179.935,103.458L181.772,103.458L183.608,103.458L185.444,101.841L187.281,101.841L189.117,101.841L190.954,101.841L192.79,101.841L194.626,101.841L196.463,101.841L198.299,100.224L200.136,100.224L201.972,100.224L203.808,100.224L205.645,100.224L207.481,100.224L209.318,100.224L211.154,100.224L212.99,98.606L214.827,98.606L216.663,98.606L218.5,98.606L220.336,98.606L222.172,98.606L224.009,98.606L225.845,98.606L227.682,98.606L229.518,96.989L231.354,96.989L233.191,96.989L235.027,96.989L236.864,96.989L238.7,96.989L240.537,96.989L242.373,96.989L244.209,96.989L246.046,96.989L247.882,96.989L249.719,96.989L251.555,95.372L253.391,95.372L255.228,95.372L257.064,95.372L258.901,95.372L260.737,95.372L262.573,95.372L264.41,95.372L266.246,95.372L268.083,95.372L269.919,95.372L271.755,95.372L273.592,95.372L275.428,95.372L277.265,93.754L279.101,93.754L280.937,93.754L282.774,93.754L284.61,93.754L286.447,93.754L288.283,93.754L290.119,93.754L291.956,93.754"></path></g><g class="line-plot-3"><path stroke-width="2" stroke="#317173" fill="none" d="M58.732,195.646L60.569,194.028L62.405,190.794L64.242,189.176L66.078,187.559L67.914,184.324L69.751,182.707L71.587,181.09L73.424,179.472L75.26,177.855L77.096,176.238L78.933,174.62L80.769,171.386L82.606,169.769L84.442,168.151L86.278,168.151L88.115,166.534L89.951,164.917L91.788,163.299L93.624,161.682L95.461,160.065L97.297,158.447L99.133,156.83L100.97,156.83L102.806,155.213L104.643,153.595L106.479,151.978L108.315,151.978L110.152,150.361L111.988,148.743L113.825,147.126L115.661,147.126L117.497,145.509L119.334,143.891L121.17,143.891L123.007,142.274L124.843,142.274L126.679,140.657L128.516,139.039L130.352,139.039L132.189,137.422L134.025,137.422L135.861,135.805L137.698,135.805L139.534,134.187L141.371,132.57L143.207,132.57L145.043,130.953L146.88,130.953L148.716,129.335L150.553,129.335L152.389,129.335L154.225,127.718L156.062,127.718L157.898,126.101L159.735,126.101L161.571,124.483L163.408,124.483L165.244,122.866L167.08,122.866L168.917,122.866L170.753,121.249L172.59,121.249L174.426,119.631L176.262,119.631L178.099,119.631L179.935,118.014L181.772,118.014L183.608,118.014L185.444,116.397L187.281,116.397L189.117,116.397L190.954,114.78L192.79,114.78L194.626,114.78L196.463,113.162L198.299,113.162L200.136,113.162L201.972,111.545L203.808,111.545L205.645,111.545L207.481,109.928L209.318,109.928L211.154,109.928L212.99,109.928L214.827,108.31L216.663,108.31L218.5,108.31L220.336,106.693L222.172,106.693L224.009,106.693L225.845,106.693L227.682,105.076L229.518,105.076L231.354,105.076L233.191,105.076L235.027,103.458L236.864,103.458L238.7,103.458L240.537,103.458L242.373,101.841L244.209,101.841L246.046,101.841L247.882,101.841L249.719,101.841L251.555,100.224L253.391,100.224L255.228,100.224L257.064,100.224L258.901,98.606L260.737,98.606L262.573,98.606L264.41,98.606L266.246,98.606L268.083,96.989L269.919,96.989L271.755,96.989L273.592,96.989L275.428,96.989L277.265,95.372L279.101,95.372L280.937,95.372L282.774,95.372L284.61,95.372L286.447,95.372L288.283,93.754L290.119,93.754L291.956,93.754"></path></g><g class="line-plot-4"><path stroke-width="2" stroke="#000000" fill="none" d="M58.732,195.646L60.569,195.646L62.405,194.028L64.242,194.028L66.078,192.411L67.914,192.411L69.751,190.794L71.587,190.794L73.424,189.176L75.26,189.176L77.096,187.559L78.933,187.559L80.769,185.942L82.606,185.942L84.442,184.324L86.278,184.324L88.115,182.707L89.951,182.707L91.788,181.09L93.624,181.09L95.461,179.472L97.297,179.472L99.133,177.855L100.97,177.855L102.806,176.238L104.643,176.238L106.479,174.62L108.315,174.62L110.152,173.003L111.988,173.003L113.825,171.386L115.661,171.386L117.497,169.769L119.334,169.769L121.17,168.151L123.007,168.151L124.843,166.534L126.679,166.534L128.516,164.917L130.352,164.917L132.189,163.299L134.025,163.299L135.861,161.682L137.698,161.682L139.534,160.065L141.371,160.065L143.207,158.447L145.043,158.447L146.88,156.83L148.716,156.83L150.553,155.213L152.389,155.213L154.225,153.595L156.062,153.595L157.898,151.978L159.735,151.978L161.571,150.361L163.408,150.361L165.244,148.743L167.08,148.743L168.917,147.126L170.753,147.126L172.59,145.509L174.426,145.509L176.262,143.891L178.099,143.891L179.935,142.274L181.772,142.274L183.608,140.657L185.444,140.657L187.281,139.039L189.117,139.039L190.954,137.422L192.79,137.422L194.626,135.805L196.463,135.805L198.299,134.187L200.136,134.187L201.972,132.57L203.808,132.57L205.645,130.953L207.481,130.953L209.318,129.335L211.154,129.335L212.99,127.718L214.827,127.718L216.663,126.101L218.5,126.101L220.336,124.483L222.172,124.483L224.009,122.866L225.845,122.866L227.682,121.249L229.518,121.249L231.354,119.631L233.191,119.631L235.027,118.014L236.864,118.014L238.7,116.397L240.537,116.397L242.373,114.78L244.209,114.78L246.046,113.162L247.882,113.162L249.719,111.545L251.555,111.545L253.391,109.928L255.228,109.928L257.064,108.31L258.901,108.31L260.737,106.693L262.573,106.693L264.41,105.076L266.246,105.076L268.083,103.458L269.919,103.458L271.755,101.841L273.592,101.841L275.428,100.224L277.265,100.224L279.101,98.606L280.937,98.606L282.774,96.989L284.61,96.989L286.447,95.372L288.283,95.372L290.119,93.754L291.956,93.754"></path></g><g class="line-plot-5"><path stroke-width="2" stroke="#293552" fill="none" d="M58.732,195.646L60.569,195.646L62.405,195.646L64.242,194.028L66.078,194.028L67.914,194.028L69.751,194.028L71.587,194.028L73.424,194.028L75.26,192.411L77.096,192.411L78.933,192.411L80.769,192.411L82.606,192.411L84.442,190.794L86.278,190.794L88.115,190.794L89.951,190.794L91.788,190.794L93.624,189.176L95.461,189.176L97.297,189.176L99.133,189.176L100.97,187.559L102.806,187.559L104.643,187.559L106.479,187.559L108.315,187.559L110.152,185.942L111.988,185.942L113.825,185.942L115.661,185.942L117.497,184.324L119.334,184.324L121.17,184.324L123.007,184.324L124.843,182.707L126.679,182.707L128.516,182.707L130.352,182.707L132.189,181.09L134.025,181.09L135.861,181.09L137.698,179.472L139.534,179.472L141.371,179.472L143.207,179.472L145.043,177.855L146.88,177.855L148.716,177.855L150.553,176.238L152.389,176.238L154.225,176.238L156.062,174.62L157.898,174.62L159.735,174.62L161.571,173.003L163.408,173.003L165.244,173.003L167.08,171.386L168.917,171.386L170.753,171.386L172.59,169.769L174.426,169.769L176.262,169.769L178.099,168.151L179.935,168.151L181.772,166.534L183.608,166.534L185.444,166.534L187.281,164.917L189.117,164.917L190.954,163.299L192.79,163.299L194.626,161.682L196.463,161.682L198.299,160.065L200.136,160.065L201.972,160.065L203.808,158.447L205.645,158.447L207.481,156.83L209.318,156.83L211.154,155.213L212.99,153.595L214.827,153.595L216.663,151.978L218.5,151.978L220.336,150.361L222.172,150.361L224.009,148.743L225.845,147.126L227.682,147.126L229.518,145.509L231.354,145.509L233.191,143.891L235.027,142.274L236.864,142.274L238.7,140.657L240.537,139.039L242.373,137.422L244.209,137.422L246.046,135.805L247.882,134.187L249.719,132.57L251.555,132.57L253.391,130.953L255.228,129.335L257.064,127.718L258.901,126.101L260.737,124.483L262.573,122.866L264.41,121.249L266.246,121.249L268.083,119.631L269.919,118.014L271.755,114.78L273.592,113.162L275.428,111.545L277.265,109.928L279.101,108.31L280.937,106.693L282.774,105.076L284.61,101.841L286.447,100.224L288.283,98.606L290.119,95.372L291.956,93.754"></path></g><g class="line-plot-6"><path stroke-width="2" stroke="#efa231" fill="none" d="M58.732,195.646L60.569,195.646L62.405,195.646L64.242,195.646L66.078,195.646L67.914,195.646L69.751,195.646L71.587,195.646L73.424,195.646L75.26,194.028L77.096,194.028L78.933,194.028L80.769,194.028L82.606,194.028L84.442,194.028L86.278,194.028L88.115,194.028L89.951,194.028L91.788,194.028L93.624,194.028L95.461,194.028L97.297,194.028L99.133,194.028L100.97,192.411L102.806,192.411L104.643,192.411L106.479,192.411L108.315,192.411L110.152,192.411L111.988,192.411L113.825,192.411L115.661,192.411L117.497,192.411L119.334,192.411L121.17,192.411L123.007,190.794L124.843,190.794L126.679,190.794L128.516,190.794L130.352,190.794L132.189,190.794L134.025,190.794L135.861,190.794L137.698,190.794L139.534,189.176L141.371,189.176L143.207,189.176L145.043,189.176L146.88,189.176L148.716,189.176L150.553,189.176L152.389,189.176L154.225,187.559L156.062,187.559L157.898,187.559L159.735,187.559L161.571,187.559L163.408,187.559L165.244,187.559L167.08,185.942L168.917,185.942L170.753,185.942L172.59,185.942L174.426,185.942L176.262,185.942L178.099,184.324L179.935,184.324L181.772,184.324L183.608,184.324L185.444,184.324L187.281,182.707L189.117,182.707L190.954,182.707L192.79,182.707L194.626,182.707L196.463,181.09L198.299,181.09L200.136,181.09L201.972,181.09L203.808,179.472L205.645,179.472L207.481,179.472L209.318,177.855L211.154,177.855L212.99,177.855L214.827,176.238L216.663,176.238L218.5,176.238L220.336,174.62L222.172,174.62L224.009,174.62L225.845,173.003L227.682,173.003L229.518,171.386L231.354,171.386L233.191,169.769L235.027,169.769L236.864,168.151L238.7,168.151L240.537,166.534L242.373,166.534L244.209,164.917L246.046,163.299L247.882,163.299L249.719,161.682L251.555,160.065L253.391,158.447L255.228,158.447L257.064,156.83L258.901,155.213L260.737,153.595L262.573,151.978L264.41,148.743L266.246,147.126L268.083,145.509L269.919,143.891L271.755,140.657L273.592,137.422L275.428,135.805L277.265,132.57L279.101,129.335L280.937,124.483L282.774,121.249L284.61,116.397L286.447,111.545L288.283,106.693L290.119,100.224L291.956,93.754"></path></g><g class="line-plot-7"><path stroke-width="2" stroke="#cebace" fill="none" d="M58.732,195.646L60.569,195.646L62.405,195.646L64.242,195.646L66.078,195.646L67.914,195.646L69.751,195.646L71.587,195.646L73.424,195.646L75.26,195.646L77.096,195.646L78.933,195.646L80.769,195.646L82.606,195.646L84.442,195.646L86.278,195.646L88.115,195.646L89.951,195.646L91.788,195.646L93.624,195.646L95.461,195.646L97.297,195.646L99.133,195.646L100.97,195.646L102.806,195.646L104.643,195.646L106.479,195.646L108.315,195.646L110.152,195.646L111.988,195.646L113.825,195.646L115.661,195.646L117.497,195.646L119.334,195.646L121.17,195.646L123.007,195.646L124.843,194.028L126.679,194.028L128.516,194.028L130.352,194.028L132.189,194.028L134.025,194.028L135.861,194.028L137.698,194.028L139.534,194.028L141.371,194.028L143.207,194.028L145.043,194.028L146.88,194.028L148.716,194.028L150.553,194.028L152.389,194.028L154.225,194.028L156.062,194.028L157.898,194.028L159.735,194.028L161.571,194.028L163.408,194.028L165.244,194.028L167.08,194.028L168.917,194.028L170.753,194.028L172.59,194.028L174.426,194.028L176.262,194.028L178.099,194.028L179.935,194.028L181.772,194.028L183.608,194.028L185.444,194.028L187.281,192.411L189.117,192.411L190.954,192.411L192.79,192.411L194.626,192.411L196.463,192.411L198.299,192.411L200.136,192.411L201.972,192.411L203.808,192.411L205.645,192.411L207.481,192.411L209.318,192.411L211.154,192.411L212.99,192.411L214.827,192.411L216.663,190.794L218.5,190.794L220.336,190.794L222.172,190.794L224.009,190.794L225.845,190.794L227.682,190.794L229.518,190.794L231.354,190.794L233.191,189.176L235.027,189.176L236.864,189.176L238.7,189.176L240.537,189.176L242.373,189.176L244.209,187.559L246.046,187.559L247.882,187.559L249.719,187.559L251.555,185.942L253.391,185.942L255.228,185.942L257.064,184.324L258.901,184.324L260.737,184.324L262.573,182.707L264.41,182.707L266.246,181.09L268.083,179.472L269.919,179.472L271.755,177.855L273.592,176.238L275.428,174.62L277.265,171.386L279.101,169.769L280.937,166.534L282.774,161.682L284.61,156.83L286.447,148.743L288.283,139.039L290.119,122.866L291.956,93.754"></path></g></g><g class="bottom-axis"><g class="axis-line"><path stroke-width="1" stroke="#131300" fill="none" d="M 50.68828201293945,253.89999961853027 L 300,253.89999961853027"></path></g><g class="label"><text transform="translate(58.732422828674316, 259.3999996185303) rotate(0)" text-anchor="middle" dominant-baseline="text-before-edge" font-size="10" fill="#131300" y="0" x="0">0</text><text transform="translate(77.09647293541376, 259.3999996185303) rotate(0)" text-anchor="middle" dominant-baseline="text-before-edge" font-size="10" fill="#131300" y="0" x="0">10</text><text transform="translate(95.4605230421532, 259.3999996185303) rotate(0)" text-anchor="middle" dominant-baseline="text-before-edge" font-size="10" fill="#131300" y="0" x="0">20</text><text transform="translate(113.82457314889263, 259.3999996185303) rotate(0)" text-anchor="middle" dominant-baseline="text-before-edge" font-size="10" fill="#131300" y="0" x="0">30</text><text transform="translate(132.18862325563205, 259.3999996185303) rotate(0)" text-anchor="middle" dominant-baseline="text-before-edge" font-size="10" fill="#131300" y="0" x="0">40</text><text transform="translate(150.5526733623715, 259.3999996185303) rotate(0)" text-anchor="middle" dominant-baseline="text-before-edge" font-size="10" fill="#131300" y="0" x="0">50</text><text transform="translate(168.91672346911093, 259.3999996185303) rotate(0)" text-anchor="middle" dominant-baseline="text-before-edge" font-size="10" fill="#131300" y="0" x="0">60</text><text transform="translate(187.28077357585036, 259.3999996185303) rotate(0)" text-anchor="middle" dominant-baseline="text-before-edge" font-size="10" fill="#131300" y="0" x="0">70</text><text transform="translate(205.6448236825898, 259.3999996185303) rotate(0)" text-anchor="middle" dominant-baseline="text-before-edge" font-size="10" fill="#131300" y="0" x="0">80</text><text transform="translate(224.00887378932921, 259.3999996185303) rotate(0)" text-anchor="middle" dominant-baseline="text-before-edge" font-size="10" fill="#131300" y="0" x="0">90</text><text transform="translate(242.37292389606867, 259.3999996185303) rotate(0)" text-anchor="middle" dominant-baseline="text-before-edge" font-size="10" fill="#131300" y="0" x="0">100</text><text transform="translate(260.7369740028081, 259.3999996185303) rotate(0)" text-anchor="middle" dominant-baseline="text-before-edge" font-size="10" fill="#131300" y="0" x="0">110</text><text transform="translate(279.10102410954755, 259.3999996185303) rotate(0)" text-anchor="middle" dominant-baseline="text-before-edge" font-size="10" fill="#131300" y="0" x="0">120</text></g><g class="title"><text transform="translate(175.34414100646973, 281.3999996185303) rotate(0)" text-anchor="middle" dominant-baseline="text-before-edge" font-size="12" fill="#131300" y="0" x="0">input</text></g></g><g class="left-axis"><g class="axisl-line"><path stroke-width="1" stroke="#131300" fill="none" d="M 50.18828201293945,36 L 50.18828201293945,253.39999961853027"></path></g><g class="label"><text transform="translate(44.68828201293945, 53.3212598214938) rotate(0)" text-anchor="end" dominant-baseline="middle" font-size="10" fill="#131300" y="0" x="0">120</text><text transform="translate(44.68828201293945, 69.49448813791349) rotate(0)" text-anchor="end" dominant-baseline="middle" font-size="10" fill="#131300" y="0" x="0">110</text><text transform="translate(44.68828201293945, 85.6677164543332) rotate(0)" text-anchor="end" dominant-baseline="middle" font-size="10" fill="#131300" y="0" x="0">100</text><text transform="translate(44.68828201293945, 101.84094477075293) rotate(0)" text-anchor="end" dominant-baseline="middle" font-size="10" fill="#131300" y="0" x="0">90</text><text transform="translate(44.68828201293945, 118.01417308717262) rotate(0)" text-anchor="end" dominant-baseline="middle" font-size="10" fill="#131300" y="0" x="0">80</text><text transform="translate(44.68828201293945, 134.18740140359233) rotate(0)" text-anchor="end" dominant-baseline="middle" font-size="10" fill="#131300" y="0" x="0">70</text><text transform="translate(44.68828201293945, 150.36062972001204) rotate(0)" text-anchor="end" dominant-baseline="middle" font-size="10" fill="#131300" y="0" x="0">60</text><text transform="translate(44.68828201293945, 166.53385803643175) rotate(0)" text-anchor="end" dominant-baseline="middle" font-size="10" fill="#131300" y="0" x="0">50</text><text transform="translate(44.68828201293945, 182.70708635285146) rotate(0)" text-anchor="end" dominant-baseline="middle" font-size="10" fill="#131300" y="0" x="0">40</text><text transform="translate(44.68828201293945, 198.88031466927114) rotate(0)" text-anchor="end" dominant-baseline="middle" font-size="10" fill="#131300" y="0" x="0">30</text><text transform="translate(44.68828201293945, 215.05354298569088) rotate(0)" text-anchor="end" dominant-baseline="middle" font-size="10" fill="#131300" y="0" x="0">20</text><text transform="translate(44.68828201293945, 231.22677130211056) rotate(0)" text-anchor="end" dominant-baseline="middle" font-size="10" fill="#131300" y="0" x="0">10</text><text transform="translate(44.68828201293945, 247.39999961853027) rotate(0)" text-anchor="end" dominant-baseline="middle" font-size="10" fill="#131300" y="0" x="0">0</text></g><g class="title"><text transform="translate(5, 144.69999980926514) rotate(270)" text-anchor="middle" dominant-baseline="text-before-edge" font-size="12" fill="#131300" y="0" x="0">output</text></g></g></g><g class="mermaid-tmp-group"></g></svg>