<?xml version="1.0" encoding="UTF-8" standalone="no"?>
<!-- Created with Inkscape (http://www.inkscape.org/) -->

<svg
   width="90.203156mm"
   height="11.087892mm"
   viewBox="0 0 90.203156 11.087892"
   version="1.1"
   id="svg1"
   inkscape:version="1.3.2 (091e20e, 2023-11-25, custom)"
   sodipodi:docname="black_logo.svg"
   xmlns:inkscape="http://www.inkscape.org/namespaces/inkscape"
   xmlns:sodipodi="http://sodipodi.sourceforge.net/DTD/sodipodi-0.dtd"
   xmlns="http://www.w3.org/2000/svg"
   xmlns:svg="http://www.w3.org/2000/svg">
  <sodipodi:namedview
     id="namedview1"
     pagecolor="#ffffff"
     bordercolor="#000000"
     borderopacity="0.25"
     inkscape:showpageshadow="2"
     inkscape:pageopacity="0.0"
     inkscape:pagecheckerboard="0"
     inkscape:deskcolor="#d1d1d1"
     inkscape:document-units="mm"
     inkscape:zoom="1.8194454"
     inkscape:cx="277.2823"
     inkscape:cy="55.236612"
     inkscape:window-width="1920"
     inkscape:window-height="991"
     inkscape:window-x="-9"
     inkscape:window-y="-9"
     inkscape:window-maximized="1"
     inkscape:current-layer="layer1" />
  <defs
     id="defs1" />
  <g
     inkscape:label="Layer 1"
     inkscape:groupmode="layer"
     id="layer1">
    <path
       id="rect1"
       style="fill:#000000;fill-opacity:1;stroke-width:0.130345"
       d="M 0 0 L 0 7.6527629 L 90.20328 7.6527629 L 90.20328 0 L 0 0 z M 1.7895549 0.79375 L 5.7722575 0.79375 C 6.0488359 0.79375 6.2817858 0.84328334 6.4714396 0.94206136 C 6.6689956 1.0408394 6.7680623 1.159306 6.7680623 1.2975952 L 6.7680623 2.8189494 L 4.7764526 2.8189494 L 4.7764526 1.811259 L 2.7853597 1.811259 L 2.7853597 5.8415039 L 4.7764526 5.8415039 L 4.7764526 4.8338135 L 6.7680623 4.8338135 L 6.7680623 6.3551676 C 6.7680623 6.4934569 6.6689956 6.6119235 6.4714396 6.7107015 C 6.2817858 6.8094795 6.0488359 6.8584961 5.7722575 6.8584961 L 1.7895549 6.8584961 C 1.5129764 6.8584961 1.2760432 6.8094795 1.0784871 6.7107015 C 0.88883337 6.6119235 0.79375 6.4934569 0.79375 6.3551676 L 0.79375 1.2975952 C 0.79375 1.159306 0.88883337 1.0408394 1.0784871 0.94206136 C 1.2760432 0.84328334 1.5129764 0.79375 1.7895549 0.79375 z M 8.3917358 0.79375 L 10.418486 0.79375 L 10.418486 3.3222778 L 12.410095 3.3222778 L 12.410095 0.79375 L 14.401188 0.79375 L 14.401188 6.8584961 L 8.5219604 6.8584961 L 8.5219604 5.8513224 L 12.504663 5.8513224 L 12.504663 4.3103312 L 8.3917358 4.3103312 L 8.3917358 0.79375 z M 16.061035 0.79375 L 18.052128 0.79375 L 18.052128 3.3222778 L 21.039543 3.3222778 C 21.316121 3.3222778 21.549071 3.3718112 21.738725 3.4705892 C 21.936281 3.5693672 22.034831 3.6878338 22.034831 3.826123 L 22.034831 6.3551676 C 22.034831 6.4934569 21.936281 6.6119235 21.738725 6.7107015 C 21.549071 6.8094795 21.316121 6.8584961 21.039543 6.8584961 L 16.061035 6.8584961 L 16.061035 0.79375 z M 25.780855 0.79375 L 27.582296 0.79375 L 27.582296 1.9595703 L 28.376562 1.9595703 C 28.550412 2.0056666 28.700745 2.0482165 28.827181 2.0877279 C 28.961519 2.1206539 29.064053 2.1535038 29.135173 2.1864299 C 29.285316 2.2522819 29.451065 2.3777319 29.632817 2.5621175 L 29.632817 4.942334 C 29.585406 5.0213564 29.538123 5.0908064 29.490706 5.1500732 C 29.443296 5.202755 29.380078 5.2517716 29.301054 5.2978678 C 29.22993 5.3439641 29.135364 5.3870308 29.016833 5.4265422 C 28.8983 5.4660536 28.75195 5.5053702 28.578101 5.5448812 L 27.641724 5.5448812 L 27.641724 6.8584961 L 25.721427 6.8584961 L 25.721427 5.5448812 L 24.78505 5.5448812 C 24.484766 5.4329328 24.255282 5.3376162 24.097237 5.2585937 C 23.939192 5.1795713 23.79336 5.074038 23.659021 4.942334 L 23.659021 2.6308472 C 23.753848 2.5188988 23.840448 2.4300488 23.91947 2.3641968 C 24.006394 2.2983448 24.085544 2.2455781 24.156665 2.2060669 C 24.235687 2.1665554 24.338738 2.1272388 24.465173 2.0877279 C 24.591609 2.0482164 24.745409 2.0056665 24.927161 1.9595703 L 25.780855 1.9595703 L 25.780855 0.79375 z M 37.633879 0.79375 L 42.149882 0.79375 C 42.402754 0.826676 42.612321 0.8627593 42.778267 0.90227051 C 42.944215 0.94178171 43.066664 0.98484841 43.145687 1.0309448 C 43.303732 1.1494784 43.446098 1.333645 43.572534 1.5838826 L 43.572534 6.0885173 C 43.398684 6.3585104 43.232935 6.5329771 43.07489 6.6119995 C 43.003767 6.6449255 42.881316 6.6842421 42.707471 6.7303385 C 42.541523 6.76985 42.320007 6.8123999 42.043429 6.8584961 L 37.633879 6.8584961 L 37.633879 0.79375 z M 46.263326 0.79375 L 51.241833 0.79375 L 51.241833 6.8584961 L 49.250224 6.8584961 L 49.250224 4.3299683 L 47.259131 6.8584961 L 45.267521 6.8584961 L 47.259131 4.3299683 L 46.263326 4.3299683 C 45.986748 4.3299683 45.749814 4.2804349 45.552258 4.1816569 C 45.362604 4.0828789 45.267521 3.9644122 45.267521 3.826123 L 45.267521 1.2975952 C 45.267521 1.159306 45.362604 1.0408394 45.552258 0.94206136 C 45.749814 0.84328334 45.986748 0.79375 46.263326 0.79375 z M 52.901164 0.79375 L 54.892257 0.79375 L 54.892257 5.8415039 L 56.883866 5.8415039 L 56.883866 0.79375 L 58.875476 0.79375 L 58.875476 6.3846232 C 58.875476 6.5163272 58.776409 6.6283272 58.578853 6.72052 C 58.381297 6.8127128 58.148347 6.8584961 57.879671 6.8584961 L 53.896969 6.8584961 C 53.62039 6.8584961 53.38294 6.8094795 53.185384 6.7107015 C 52.995731 6.6119235 52.901164 6.4934569 52.901164 6.3551676 L 52.901164 0.79375 z M 60.534806 0.79375 L 62.525899 0.79375 L 63.521704 2.8189494 L 64.517509 0.79375 L 66.508602 0.79375 L 66.508602 6.8584961 L 64.517509 6.8584961 L 64.517509 3.826123 L 63.521704 4.3299683 L 62.525899 3.826123 L 62.525899 6.8584961 L 60.534806 6.8584961 L 60.534806 0.79375 z M 68.168449 0.79375 L 70.159542 0.79375 L 71.155347 2.8189494 L 72.151152 0.79375 L 74.142244 0.79375 L 74.142244 6.8584961 L 72.151152 6.8584961 L 72.151152 3.826123 L 71.155347 4.3299683 L 70.159542 3.826123 L 70.159542 6.8584961 L 68.168449 6.8584961 L 68.168449 0.79375 z M 76.79738 0.79375 L 80.780082 0.79375 C 81.056661 0.79375 81.290128 0.84328334 81.479781 0.94206136 C 81.677337 1.0408394 81.775887 1.159306 81.775887 1.2975952 L 81.775887 2.8189494 L 81.775887 4.2705404 L 77.793184 4.2705404 L 77.793184 5.8415039 L 79.784794 5.8415039 L 79.784794 4.8338135 L 81.775887 4.8338135 L 81.775887 6.3551676 C 81.775887 6.4934569 81.677337 6.6119235 81.479781 6.7107015 C 81.290128 6.8094795 81.056661 6.8584961 80.780082 6.8584961 L 76.79738 6.8584961 C 76.520801 6.8584961 76.283868 6.8094795 76.086312 6.7107015 C 75.896658 6.6119235 75.801575 6.4934569 75.801575 6.3551676 L 75.801575 1.2975952 C 75.801575 1.159306 75.896658 1.0408394 76.086312 0.94206136 C 76.283868 0.84328334 76.520801 0.79375 76.79738 0.79375 z M 84.431022 0.79375 L 89.40953 0.79375 L 89.40953 6.8584961 L 87.41792 6.8584961 L 87.41792 4.3299683 L 85.426827 6.8584961 L 83.435217 6.8584961 L 85.426827 4.3299683 L 84.431022 4.3299683 C 84.154444 4.3299683 83.91751 4.2804349 83.719954 4.1816569 C 83.530301 4.0828789 83.435217 3.9644122 83.435217 3.826123 L 83.435217 1.2975952 C 83.435217 1.159306 83.530301 1.0408394 83.719954 0.94206136 C 83.91751 0.84328334 84.154444 0.79375 84.431022 0.79375 z M 39.625488 1.811259 L 39.625488 5.8415039 L 41.616581 5.8415039 L 41.616581 1.811259 L 39.625488 1.811259 z M 47.259131 1.811259 L 47.259131 3.3222778 L 49.250224 3.3222778 L 49.250224 1.811259 L 47.259131 1.811259 z M 77.793184 1.811259 L 77.793184 3.3817057 L 79.784794 3.3817057 L 79.784794 1.811259 L 77.793184 1.811259 z M 85.426827 1.811259 L 85.426827 3.3222778 L 87.41792 3.3222778 L 87.41792 1.811259 L 85.426827 1.811259 z M 25.650114 2.7987956 L 25.650114 4.7051392 L 27.641724 4.7051392 L 27.641724 2.7987956 L 25.650114 2.7987956 z M 30.960384 3.3326131 L 36.270654 3.3326131 L 36.270654 4.5077352 L 30.960384 4.5077352 L 30.960384 3.3326131 z M 18.052128 4.3299683 L 18.052128 5.8415039 L 20.043738 5.8415039 L 20.043738 4.3299683 L 18.052128 4.3299683 z " />
    <path
       d="M 1.5648078,9.2965808 H 2.3472123 V 12.156083 H 1.5648078 V 10.963848 H 0.78240322 v 1.192235 H -1.3065338e-6 V 9.2965808 H 0.78240322 V 10.488816 H 1.5648078 Z m 3.7816177,2.6359582 q 0,0.09314 -0.1164292,0.158344 -0.1164293,0.0652 -0.2747731,0.0652 h -1.564809 q -0.163001,0 -0.2794302,-0.06986 -0.1117721,-0.06986 -0.1117721,-0.167659 V 9.2965808 H 3.7816164 V 11.676395 H 4.564021 V 9.2965808 H 5.3464255 Z M 7.5632342,9.2965808 7.1720319,10.251301 6.7808297,9.2965808 H 5.9984251 v 2.8595022 h 0.7824046 v -1.429751 l 0.3912022,0.237516 0.3912023,-0.237516 v 1.429751 H 8.3456387 V 9.2965808 Z M 10.548476,9.6551829 H 9.7660714 V 11.378336 H 10.548476 Z M 8.9836668,9.2919237 H 11.344852 V 12.156083 H 10.599705 V 11.853367 H 9.7660714 v 0.302716 H 8.9836668 Z m 3.4043872,0.00466 q -0.163001,0 -0.27943,0.069858 -0.111772,0.069857 -0.111772,0.1676581 v 2.6219865 h 0.796376 V 9.7716122 h 0.768433 v 2.3844708 h 0.782404 V 9.5340965 q 0,-0.097801 -0.116429,-0.1676581 -0.111772,-0.069858 -0.274773,-0.069858 z m 3.404387,0 V 12.156083 H 15.010036 V 9.2965808 Z m 2.999222,0 v 0.4796885 l -1.564809,1.9001257 h 0.782404 v -0.475032 h 0.782405 v 0.95472 H 16.444449 V 11.676395 L 18.009258,9.7762693 H 17.226854 V 10.251301 H 16.444449 V 9.2965808 Z m 2.999212,0.9547202 v 0.684604 h -1.564809 v 0.74049 h 0.782404 v -0.475032 h 0.782405 v 0.717204 q 0,0.0978 -0.116429,0.167659 -0.111772,0.06986 -0.274773,0.06986 h -1.564809 q -0.163001,0 -0.279431,-0.06986 -0.111772,-0.06986 -0.111772,-0.167659 V 9.5340965 q 0,-0.097801 0.111772,-0.1676581 0.11643,-0.069858 0.279431,-0.069858 h 1.564809 q 0.163001,0 0.274773,0.069858 0.116429,0.069857 0.116429,0.1676581 z M 21.00847,10.516759 V 9.7762693 H 20.226066 V 10.516759 Z M 25.484005,9.7809265 V 12.156083 H 24.729543 V 9.7809265 H 23.970424 V 9.2965808 h 2.272699 V 9.7809265 Z M 28.49719,9.2965808 h 0.782405 V 12.156083 H 28.49719 v -1.192235 h -0.782404 v 1.192235 H 26.932381 V 9.2965808 h 0.782405 v 1.1922352 h 0.782404 z m 3.273986,0.5495461 q 0.102457,0.0326 0.176972,0.060543 0.07917,0.023286 0.121086,0.046572 0.08849,0.046572 0.195602,0.1769722 v 1.122378 q -0.02794,0.05589 -0.05589,0.0978 -0.02794,0.03726 -0.07451,0.06986 -0.04192,0.0326 -0.111772,0.06054 -0.06986,0.02794 -0.172315,0.05589 h -0.367917 v 0.619403 H 30.72797 V 11.53668 h -0.367917 q -0.176972,-0.07917 -0.270116,-0.135058 -0.09314,-0.05589 -0.172315,-0.14903 v -1.089778 q 0.05589,-0.07917 0.102458,-0.125743 0.05123,-0.046572 0.09314,-0.074515 0.04657,-0.027943 0.121087,-0.055886 0.07451,-0.027943 0.181629,-0.060543 h 0.335316 V 9.2965808 h 0.70789 V 9.8461269 Z M 30.700027,11.14082 h 0.782404 v -0.898834 h -0.782404 z m 2.230781,-1.8442392 v 0.4796885 l 1.564809,1.9001257 h -0.782405 v -0.475032 h -0.782404 v 0.95472 h 2.347213 V 11.676395 L 33.713212,9.7762693 h 0.782405 v 0.4750317 h 0.782404 V 9.2965808 Z m 5.346427,0.9547202 v 0.684604 h -1.564809 v 0.74049 h 0.782405 v -0.475032 h 0.782404 v 0.717204 q 0,0.0978 -0.116429,0.167659 -0.111772,0.06986 -0.274773,0.06986 h -1.564809 q -0.163001,0 -0.27943,-0.06986 -0.111772,-0.06986 -0.111772,-0.167659 V 9.5340965 q 0,-0.097801 0.111772,-0.1676581 0.116429,-0.069858 0.27943,-0.069858 h 1.564809 q 0.163001,0 0.274773,0.069858 0.116429,0.069857 0.116429,0.1676581 z m -0.782404,0.265458 V 9.7762693 h -0.782405 v 0.7404897 z m 4.699078,-1.2201782 q 0.14903,0.023286 0.24683,0.051229 0.0978,0.027943 0.144373,0.060543 0.09314,0.083829 0.167658,0.2608015 v 2.1236696 q -0.102458,0.190944 -0.195601,0.24683 -0.04192,0.02329 -0.144373,0.05589 -0.0978,0.02794 -0.260801,0.06054 H 40.419528 V 9.2965808 Z m -0.991977,0.4796885 v 1.9001257 h 0.782405 V 9.7762693 Z m 2.999214,1.1875787 -0.782404,1.192235 h 0.782404 l 0.782405,-1.192235 v 1.192235 h 0.782404 V 9.2965808 h -1.956011 q -0.163001,0 -0.27943,0.069858 -0.111772,0.069857 -0.111772,0.1676581 v 1.1922355 q 0,0.0978 0.111772,0.167658 0.116429,0.06986 0.27943,0.06986 z m 0,-0.475032 V 9.7762693 h 0.782405 v 0.7125467 z m 4.56402,1.443723 q 0,0.09314 -0.116429,0.158344 -0.11643,0.0652 -0.274773,0.0652 h -1.56481 q -0.163,0 -0.27943,-0.06986 -0.111772,-0.06986 -0.111772,-0.167659 V 9.2965808 h 0.782405 v 2.3798142 h 0.782404 V 9.2965808 h 0.782405 z M 50.981975,9.2965808 50.590773,10.251301 50.199571,9.2965808 h -0.782405 v 2.8595022 h 0.782405 v -1.429751 l 0.391202,0.237516 0.391202,-0.237516 v 1.429751 H 51.76438 V 9.2965808 Z m 5.271911,0.9547202 H 55.471481 V 9.7762693 h -0.782404 v 1.9001257 h 0.782404 v -0.475032 h 0.782405 v 0.717204 q 0,0.0978 -0.11643,0.167659 -0.111772,0.06986 -0.274773,0.06986 h -1.564809 q -0.163001,0 -0.27943,-0.06986 -0.111772,-0.06986 -0.111772,-0.167659 V 9.5340965 q 0,-0.097801 0.111772,-0.1676581 0.116429,-0.069858 0.27943,-0.069858 h 1.564809 q 0.163001,0 0.274773,0.069858 0.11643,0.069857 0.11643,0.1676581 z m 2.491582,-0.4051741 q 0.102458,0.0326 0.176973,0.060543 0.07917,0.023286 0.121086,0.046572 0.08849,0.046572 0.195601,0.1769722 v 1.122378 q -0.02794,0.05589 -0.05589,0.0978 -0.02794,0.03726 -0.07451,0.06986 -0.04191,0.0326 -0.111772,0.06054 -0.06986,0.02794 -0.172316,0.05589 h -0.367916 v 0.619403 H 57.702262 V 11.53668 h -0.367916 q -0.176973,-0.07917 -0.270116,-0.135058 -0.09314,-0.05589 -0.172315,-0.14903 v -1.089778 q 0.05589,-0.07917 0.102458,-0.125743 0.05123,-0.046572 0.09314,-0.074515 0.04657,-0.027943 0.121086,-0.055886 0.07451,-0.027943 0.18163,-0.060543 h 0.335316 V 9.2965808 h 0.70789 V 9.8461269 Z M 57.674319,11.14082 h 0.782405 V 10.241986 H 57.674319 Z M 61.46991,9.2965808 61.078707,10.251301 60.687505,9.2965808 H 59.9051 v 2.8595022 h 0.782405 v -1.429751 l 0.391202,0.237516 0.391203,-0.237516 v 1.429751 h 0.782404 V 9.2965808 Z m 3.781614,0.2375157 v 1.1922355 q 0,0.0978 -0.116429,0.167658 -0.111772,0.06986 -0.274773,0.06986 h -1.173607 v 1.192235 H 62.904311 V 9.2965808 h 1.956011 q 0.163001,0 0.274773,0.069858 0.116429,0.069857 0.116429,0.1676581 z M 63.686715,9.7762693 V 10.488816 H 64.46912 V 9.7762693 Z m 4.564024,2.1562697 q 0,0.09314 -0.11643,0.158344 -0.116429,0.0652 -0.274773,0.0652 h -1.564809 q -0.163001,0 -0.27943,-0.06986 -0.111772,-0.06986 -0.111772,-0.167659 V 9.2965808 h 0.782405 v 2.3798142 h 0.782404 V 9.2965808 h 0.782405 z M 70.453577,9.7809265 V 12.156083 H 69.699115 V 9.7809265 H 68.939997 V 9.2965808 h 2.272698 v 0.4843457 z m 3.79559,0.4703745 v 0.684604 h -1.564809 v 0.74049 h 0.782404 v -0.475032 h 0.782405 v 0.717204 q 0,0.0978 -0.116429,0.167659 -0.111772,0.06986 -0.274773,0.06986 h -1.564809 q -0.163001,0 -0.279431,-0.06986 -0.111772,-0.06986 -0.111772,-0.167659 V 9.5340965 q 0,-0.097801 0.111772,-0.1676581 0.11643,-0.069858 0.279431,-0.069858 h 1.564809 q 0.163001,0 0.274773,0.069858 0.116429,0.069857 0.116429,0.1676581 z m -0.782405,0.265458 V 9.7762693 h -0.782404 v 0.7404897 z m 2.21681,0.447089 -0.782404,1.192235 h 0.782404 l 0.782405,-1.192235 v 1.192235 h 0.782404 V 9.2965808 H 75.29237 q -0.163001,0 -0.27943,0.069858 -0.111772,0.069857 -0.111772,0.1676581 v 1.1922355 q 0,0.0978 0.111772,0.167658 0.116429,0.06986 0.27943,0.06986 z m 0,-0.475032 V 9.7762693 h 0.782405 v 0.7125467 z m 2.21681,-1.1922352 v 0.4796885 l 1.564809,1.9001257 h -0.782405 v -0.475032 h -0.782404 v 0.95472 h 2.347213 V 11.676395 L 78.682786,9.7762693 h 0.782405 v 0.4750317 h 0.782404 V 9.2965808 Z m 4.093641,1.6393242 v 0.190944 H 80.899588 V 9.5340965 q 0,-0.097801 0.111772,-0.1676581 0.11643,-0.069858 0.27943,-0.069858 h 0.353945 q 0.349288,0 0.349288,0.2561444 z m -1.094435,0.507631 h 1.094435 v 0.754462 h -1.094435 z"
       id="text2"
       style="font-size:4.65717px;font-family:'Soviet X-Expanded';-inkscape-font-specification:'Soviet X-Expanded';stroke-width:0.291073"
       transform="scale(1.1001187,0.90899283)"
       aria-label="humanize those drum computers!" />
  </g>
</svg>
