<?xml version="1.0" encoding="UTF-8" standalone="no"?>
<!-- Created with Inkscape (http://www.inkscape.org/) -->

<svg
   width="90.203156mm"
   height="11.087892mm"
   viewBox="0 0 90.203156 11.087892"
   version="1.1"
   id="svg1"
   inkscape:version="1.3.2 (091e20e, 2023-11-25, custom)"
   sodipodi:docname="black_logo.svg"
   xmlns:inkscape="http://www.inkscape.org/namespaces/inkscape"
   xmlns:sodipodi="http://sodipodi.sourceforge.net/DTD/sodipodi-0.dtd"
   xmlns="http://www.w3.org/2000/svg"
   xmlns:svg="http://www.w3.org/2000/svg">
  <sodipodi:namedview
     id="namedview1"
     pagecolor="#ffffff"
     bordercolor="#000000"
     borderopacity="0.25"
     inkscape:showpageshadow="2"
     inkscape:pageopacity="0.0"
     inkscape:pagecheckerboard="0"
     inkscape:deskcolor="#d1d1d1"
     inkscape:document-units="mm"
     inkscape:zoom="1.8194454"
     inkscape:cx="277.2823"
     inkscape:cy="95.908347"
     inkscape:window-width="1920"
     inkscape:window-height="991"
     inkscape:window-x="-9"
     inkscape:window-y="-9"
     inkscape:window-maximized="1"
     inkscape:current-layer="layer1" />
  <defs
     id="defs1" />
  <g
     inkscape:label="Layer 1"
     inkscape:groupmode="layer"
     id="layer1">
    <rect
       style="fill:#000000;fill-opacity:1;stroke-width:0.130345"
       id="rect1"
       width="90.203072"
       height="7.6525435"
       x="0"
       y="-3.5527137e-15" />
    <path
       d="M 6.1781916,3.0877534 H 4.3603309 V 1.9840522 H 2.5424702 V 6.3988569 H 4.3603309 V 5.2951557 H 6.1781916 V 6.961528 q 0,0.2272326 -0.270515,0.3895416 -0.2596944,0.162309 -0.6384154,0.162309 H 1.6335398 q -0.378721,0 -0.64923598,-0.162309 Q 0.72460943,7.1887606 0.72460943,6.961528 V 1.4213811 q 0,-0.2272326 0.25969439,-0.3895416 Q 1.2548188,0.86953049 1.6335398,0.86953049 h 3.6357214 q 0.378721,0 0.6384154,0.16230901 0.270515,0.162309 0.270515,0.3895416 z M 11.328787,0.86953049 h 1.817861 V 7.5133786 H 7.7796305 V 6.4096775 H 11.415352 V 4.7216639 H 7.6606039 V 0.86953049 H 9.5109264 V 3.639604 H 11.328787 Z M 20.115104,6.961528 V 4.1914546 q 0,-0.2272326 -0.270515,-0.3895416 Q 19.584895,3.639604 19.206174,3.639604 H 16.479383 V 0.86953049 H 14.661522 V 7.5133786 h 4.544652 q 0.378721,0 0.638415,-0.162309 0.270515,-0.162309 0.270515,-0.3895416 z M 16.479383,6.3988569 V 4.7433051 h 1.81786 v 1.6555518 z m 9.424732,-4.2524957 q 0.238053,0.075744 0.411183,0.1406678 0.18395,0.054103 0.281335,0.108206 0.205592,0.108206 0.454466,0.4111828 v 2.6077645 q -0.06492,0.1298472 -0.129848,0.2272326 -0.06492,0.086565 -0.173129,0.162309 -0.09739,0.075744 -0.259695,0.1406678 -0.162309,0.064924 -0.400362,0.1298472 H 25.233238 V 7.5133786 H 23.480301 V 6.0742389 H 22.625473 Q 22.214291,5.8902887 21.997879,5.7604415 21.781467,5.6305943 21.597516,5.4141823 V 2.882162 q 0.129848,-0.1839502 0.238054,-0.2921562 0.119026,-0.108206 0.216412,-0.1731296 0.108206,-0.064924 0.281335,-0.1298472 0.17313,-0.064924 0.422004,-0.1406678 h 0.779083 V 0.86953049 h 1.644731 V 2.1463612 Z m -2.488738,3.0081267 h 1.817861 V 3.0661122 h -1.817861 z m 4.847619,-1.5040633 h 4.847629 V 4.9380759 H 28.262996 Z M 38.477637,0.86953049 q 0.346259,0.054103 0.573491,0.1190266 0.227233,0.0649236 0.335439,0.14066781 0.216412,0.1947708 0.389542,0.6059536 v 4.9341934 q -0.238054,0.4436445 -0.454466,0.5734917 -0.09739,0.054103 -0.335438,0.1298472 -0.227233,0.064924 -0.605954,0.1406678 H 34.354988 V 0.86953049 Z M 36.172849,1.9840522 V 6.3988569 H 37.99071 V 1.9840522 Z m 6.968456,2.7592529 -1.817861,2.7700735 h 1.817861 l 1.817861,-2.7700735 v 2.7700735 h 1.817861 V 0.86953049 h -4.544652 q -0.378721,0 -0.649236,0.16230901 -0.259695,0.162309 -0.259695,0.3895416 v 2.7700735 q 0,0.2272325 0.259695,0.3895415 0.270515,0.162309 0.649236,0.162309 z m 0,-1.1037011 V 1.9840522 h 1.817861 V 3.639604 Z m 10.604178,3.3543858 q 0,0.216412 -0.270515,0.3679004 -0.270515,0.1514884 -0.638415,0.1514884 h -3.635722 q -0.378721,0 -0.649236,-0.162309 Q 48.291901,7.1887606 48.291901,6.961528 V 0.86953049 h 1.81786 V 6.3988569 h 1.817861 V 0.86953049 h 1.817861 z M 58.896078,0.86953049 57.987148,3.0877534 57.078218,0.86953049 H 55.260357 V 7.5133786 h 1.817861 v -3.321924 l 0.90893,0.5518505 0.90893,-0.5518505 v 3.321924 h 1.817861 V 0.86953049 Z m 6.968457,0 -0.908931,2.21822291 -0.90893,-2.21822291 H 62.228813 V 7.5133786 h 1.817861 v -3.321924 l 0.90893,0.5518505 0.908931,-0.5518505 v 3.321924 h 1.81786 V 0.86953049 Z m 8.78632,2.21822291 v 1.5906281 h -3.635721 v 1.7204754 h 1.817861 V 5.2951557 h 1.81786 V 6.961528 q 0,0.2272326 -0.270515,0.3895416 -0.259694,0.162309 -0.638415,0.162309 h -3.635721 q -0.378721,0 -0.649236,-0.162309 Q 69.197273,7.1887606 69.197273,6.961528 V 1.4213811 q 0,-0.2272326 0.259695,-0.3895416 0.270515,-0.16230901 0.649236,-0.16230901 h 3.635721 q 0.378721,0 0.638415,0.16230901 0.270515,0.162309 0.270515,0.3895416 z m -1.81786,0.6167742 V 1.9840522 h -1.817861 v 1.7204754 z m 5.150591,1.0387775 -1.81786,2.7700735 h 1.81786 l 1.817861,-2.7700735 v 2.7700735 h 1.817861 V 0.86953049 h -4.544652 q -0.378721,0 -0.649236,0.16230901 -0.259694,0.162309 -0.259694,0.3895416 v 2.7700735 q 0,0.2272325 0.259694,0.3895415 0.270515,0.162309 0.649236,0.162309 z m 0,-1.1037011 V 1.9840522 h 1.817861 V 3.639604 Z"
       id="text1"
       style="font-size:10.8206px;font-family:'Soviet X-Expanded';-inkscape-font-specification:'Soviet X-Expanded';fill:#ffffff;stroke-width:0.289836"
       transform="scale(1.0954451,0.91287094)"
       aria-label="cybo-drummer" />
    <path
       d="M 1.5648078,9.2965808 H 2.3472123 V 12.156083 H 1.5648078 V 10.963848 H 0.78240322 v 1.192235 H -1.3065338e-6 V 9.2965808 H 0.78240322 V 10.488816 H 1.5648078 Z m 3.7816177,2.6359582 q 0,0.09314 -0.1164292,0.158344 -0.1164293,0.0652 -0.2747731,0.0652 h -1.564809 q -0.163001,0 -0.2794302,-0.06986 -0.1117721,-0.06986 -0.1117721,-0.167659 V 9.2965808 H 3.7816164 V 11.676395 H 4.564021 V 9.2965808 H 5.3464255 Z M 7.5632342,9.2965808 7.1720319,10.251301 6.7808297,9.2965808 H 5.9984251 v 2.8595022 h 0.7824046 v -1.429751 l 0.3912022,0.237516 0.3912023,-0.237516 v 1.429751 H 8.3456387 V 9.2965808 Z M 10.548476,9.6551829 H 9.7660714 V 11.378336 H 10.548476 Z M 8.9836668,9.2919237 H 11.344852 V 12.156083 H 10.599705 V 11.853367 H 9.7660714 v 0.302716 H 8.9836668 Z m 3.4043872,0.00466 q -0.163001,0 -0.27943,0.069858 -0.111772,0.069857 -0.111772,0.1676581 v 2.6219865 h 0.796376 V 9.7716122 h 0.768433 v 2.3844708 h 0.782404 V 9.5340965 q 0,-0.097801 -0.116429,-0.1676581 -0.111772,-0.069858 -0.274773,-0.069858 z m 3.404387,0 V 12.156083 H 15.010036 V 9.2965808 Z m 2.999222,0 v 0.4796885 l -1.564809,1.9001257 h 0.782404 v -0.475032 h 0.782405 v 0.95472 H 16.444449 V 11.676395 L 18.009258,9.7762693 H 17.226854 V 10.251301 H 16.444449 V 9.2965808 Z m 2.999212,0.9547202 v 0.684604 h -1.564809 v 0.74049 h 0.782404 v -0.475032 h 0.782405 v 0.717204 q 0,0.0978 -0.116429,0.167659 -0.111772,0.06986 -0.274773,0.06986 h -1.564809 q -0.163001,0 -0.279431,-0.06986 -0.111772,-0.06986 -0.111772,-0.167659 V 9.5340965 q 0,-0.097801 0.111772,-0.1676581 0.11643,-0.069858 0.279431,-0.069858 h 1.564809 q 0.163001,0 0.274773,0.069858 0.116429,0.069857 0.116429,0.1676581 z M 21.00847,10.516759 V 9.7762693 H 20.226066 V 10.516759 Z M 25.484005,9.7809265 V 12.156083 H 24.729543 V 9.7809265 H 23.970424 V 9.2965808 h 2.272699 V 9.7809265 Z M 28.49719,9.2965808 h 0.782405 V 12.156083 H 28.49719 v -1.192235 h -0.782404 v 1.192235 H 26.932381 V 9.2965808 h 0.782405 v 1.1922352 h 0.782404 z m 3.273986,0.5495461 q 0.102457,0.0326 0.176972,0.060543 0.07917,0.023286 0.121086,0.046572 0.08849,0.046572 0.195602,0.1769722 v 1.122378 q -0.02794,0.05589 -0.05589,0.0978 -0.02794,0.03726 -0.07451,0.06986 -0.04192,0.0326 -0.111772,0.06054 -0.06986,0.02794 -0.172315,0.05589 h -0.367917 v 0.619403 H 30.72797 V 11.53668 h -0.367917 q -0.176972,-0.07917 -0.270116,-0.135058 -0.09314,-0.05589 -0.172315,-0.14903 v -1.089778 q 0.05589,-0.07917 0.102458,-0.125743 0.05123,-0.046572 0.09314,-0.074515 0.04657,-0.027943 0.121087,-0.055886 0.07451,-0.027943 0.181629,-0.060543 h 0.335316 V 9.2965808 h 0.70789 V 9.8461269 Z M 30.700027,11.14082 h 0.782404 v -0.898834 h -0.782404 z m 2.230781,-1.8442392 v 0.4796885 l 1.564809,1.9001257 h -0.782405 v -0.475032 h -0.782404 v 0.95472 h 2.347213 V 11.676395 L 33.713212,9.7762693 h 0.782405 v 0.4750317 h 0.782404 V 9.2965808 Z m 5.346427,0.9547202 v 0.684604 h -1.564809 v 0.74049 h 0.782405 v -0.475032 h 0.782404 v 0.717204 q 0,0.0978 -0.116429,0.167659 -0.111772,0.06986 -0.274773,0.06986 h -1.564809 q -0.163001,0 -0.27943,-0.06986 -0.111772,-0.06986 -0.111772,-0.167659 V 9.5340965 q 0,-0.097801 0.111772,-0.1676581 0.116429,-0.069858 0.27943,-0.069858 h 1.564809 q 0.163001,0 0.274773,0.069858 0.116429,0.069857 0.116429,0.1676581 z m -0.782404,0.265458 V 9.7762693 h -0.782405 v 0.7404897 z m 4.699078,-1.2201782 q 0.14903,0.023286 0.24683,0.051229 0.0978,0.027943 0.144373,0.060543 0.09314,0.083829 0.167658,0.2608015 v 2.1236696 q -0.102458,0.190944 -0.195601,0.24683 -0.04192,0.02329 -0.144373,0.05589 -0.0978,0.02794 -0.260801,0.06054 H 40.419528 V 9.2965808 Z m -0.991977,0.4796885 v 1.9001257 h 0.782405 V 9.7762693 Z m 2.999214,1.1875787 -0.782404,1.192235 h 0.782404 l 0.782405,-1.192235 v 1.192235 h 0.782404 V 9.2965808 h -1.956011 q -0.163001,0 -0.27943,0.069858 -0.111772,0.069857 -0.111772,0.1676581 v 1.1922355 q 0,0.0978 0.111772,0.167658 0.116429,0.06986 0.27943,0.06986 z m 0,-0.475032 V 9.7762693 h 0.782405 v 0.7125467 z m 4.56402,1.443723 q 0,0.09314 -0.116429,0.158344 -0.11643,0.0652 -0.274773,0.0652 h -1.56481 q -0.163,0 -0.27943,-0.06986 -0.111772,-0.06986 -0.111772,-0.167659 V 9.2965808 h 0.782405 v 2.3798142 h 0.782404 V 9.2965808 h 0.782405 z M 50.981975,9.2965808 50.590773,10.251301 50.199571,9.2965808 h -0.782405 v 2.8595022 h 0.782405 v -1.429751 l 0.391202,0.237516 0.391202,-0.237516 v 1.429751 H 51.76438 V 9.2965808 Z m 5.271911,0.9547202 H 55.471481 V 9.7762693 h -0.782404 v 1.9001257 h 0.782404 v -0.475032 h 0.782405 v 0.717204 q 0,0.0978 -0.11643,0.167659 -0.111772,0.06986 -0.274773,0.06986 h -1.564809 q -0.163001,0 -0.27943,-0.06986 -0.111772,-0.06986 -0.111772,-0.167659 V 9.5340965 q 0,-0.097801 0.111772,-0.1676581 0.116429,-0.069858 0.27943,-0.069858 h 1.564809 q 0.163001,0 0.274773,0.069858 0.11643,0.069857 0.11643,0.1676581 z m 2.491582,-0.4051741 q 0.102458,0.0326 0.176973,0.060543 0.07917,0.023286 0.121086,0.046572 0.08849,0.046572 0.195601,0.1769722 v 1.122378 q -0.02794,0.05589 -0.05589,0.0978 -0.02794,0.03726 -0.07451,0.06986 -0.04191,0.0326 -0.111772,0.06054 -0.06986,0.02794 -0.172316,0.05589 h -0.367916 v 0.619403 H 57.702262 V 11.53668 h -0.367916 q -0.176973,-0.07917 -0.270116,-0.135058 -0.09314,-0.05589 -0.172315,-0.14903 v -1.089778 q 0.05589,-0.07917 0.102458,-0.125743 0.05123,-0.046572 0.09314,-0.074515 0.04657,-0.027943 0.121086,-0.055886 0.07451,-0.027943 0.18163,-0.060543 h 0.335316 V 9.2965808 h 0.70789 V 9.8461269 Z M 57.674319,11.14082 h 0.782405 V 10.241986 H 57.674319 Z M 61.46991,9.2965808 61.078707,10.251301 60.687505,9.2965808 H 59.9051 v 2.8595022 h 0.782405 v -1.429751 l 0.391202,0.237516 0.391203,-0.237516 v 1.429751 h 0.782404 V 9.2965808 Z m 3.781614,0.2375157 v 1.1922355 q 0,0.0978 -0.116429,0.167658 -0.111772,0.06986 -0.274773,0.06986 h -1.173607 v 1.192235 H 62.904311 V 9.2965808 h 1.956011 q 0.163001,0 0.274773,0.069858 0.116429,0.069857 0.116429,0.1676581 z M 63.686715,9.7762693 V 10.488816 H 64.46912 V 9.7762693 Z m 4.564024,2.1562697 q 0,0.09314 -0.11643,0.158344 -0.116429,0.0652 -0.274773,0.0652 h -1.564809 q -0.163001,0 -0.27943,-0.06986 -0.111772,-0.06986 -0.111772,-0.167659 V 9.2965808 h 0.782405 v 2.3798142 h 0.782404 V 9.2965808 h 0.782405 z M 70.453577,9.7809265 V 12.156083 H 69.699115 V 9.7809265 H 68.939997 V 9.2965808 h 2.272698 v 0.4843457 z m 3.79559,0.4703745 v 0.684604 h -1.564809 v 0.74049 h 0.782404 v -0.475032 h 0.782405 v 0.717204 q 0,0.0978 -0.116429,0.167659 -0.111772,0.06986 -0.274773,0.06986 h -1.564809 q -0.163001,0 -0.279431,-0.06986 -0.111772,-0.06986 -0.111772,-0.167659 V 9.5340965 q 0,-0.097801 0.111772,-0.1676581 0.11643,-0.069858 0.279431,-0.069858 h 1.564809 q 0.163001,0 0.274773,0.069858 0.116429,0.069857 0.116429,0.1676581 z m -0.782405,0.265458 V 9.7762693 h -0.782404 v 0.7404897 z m 2.21681,0.447089 -0.782404,1.192235 h 0.782404 l 0.782405,-1.192235 v 1.192235 h 0.782404 V 9.2965808 H 75.29237 q -0.163001,0 -0.27943,0.069858 -0.111772,0.069857 -0.111772,0.1676581 v 1.1922355 q 0,0.0978 0.111772,0.167658 0.116429,0.06986 0.27943,0.06986 z m 0,-0.475032 V 9.7762693 h 0.782405 v 0.7125467 z m 2.21681,-1.1922352 v 0.4796885 l 1.564809,1.9001257 h -0.782405 v -0.475032 h -0.782404 v 0.95472 h 2.347213 V 11.676395 L 78.682786,9.7762693 h 0.782405 v 0.4750317 h 0.782404 V 9.2965808 Z m 4.093641,1.6393242 v 0.190944 H 80.899588 V 9.5340965 q 0,-0.097801 0.111772,-0.1676581 0.11643,-0.069858 0.27943,-0.069858 h 0.353945 q 0.349288,0 0.349288,0.2561444 z m -1.094435,0.507631 h 1.094435 v 0.754462 h -1.094435 z"
       id="text2"
       style="font-size:4.65717px;font-family:'Soviet X-Expanded';-inkscape-font-specification:'Soviet X-Expanded';stroke-width:0.291073"
       transform="scale(1.1001187,0.90899283)"
       aria-label="humanize those drum computers!" />
  </g>
</svg>
