<?xml version="1.0" encoding="UTF-8"?>
<svg version="1.1" xmlns:xlink="http://www.w3.org/1999/xlink" width="261.071pt" height="36.8504pt" viewBox="0 0 261.071 36.8504" xmlns="http://www.w3.org/2000/svg" xmlns:inkscape="http://www.inkscape.org/namespaces/inkscape">
 <defs>
  <path d="M5.74 5.91 L4.06 5.91 L4.06 4.89 L2.38 4.89 L2.38 8.97 L4.06 8.97 L4.06 7.95 L5.74 7.95 L5.74 9.49 C5.74 9.63 5.65833 9.75 5.495 9.85 C5.33167 9.95 5.13333 10 4.9 10 L1.54 10 C1.30667 10 1.10833 9.95 0.945 9.85 C0.781667 9.75 0.7 9.63 0.7 9.49 L0.7 4.37 C0.7 4.23 0.781667 4.11 0.945 4.01 C1.10833 3.91 1.30667 3.86 1.54 3.86 L4.9 3.86 C5.13333 3.86 5.33167 3.91 5.495 4.01 C5.65833 4.11 5.74 4.23 5.74 4.37 L5.74 5.91 Z" id="GlSovietX-Expanded70"/>
  <path d="M4.06 3.86 L5.74 3.86 L5.74 10 L0.78 10 L0.78 8.98 L4.14 8.98 L4.14 7.42 L0.67 7.42 L0.67 3.86 L2.38 3.86 L2.38 6.42 L4.06 6.42 L4.06 3.86 Z" id="GlSovietX-Expanded92"/>
  <path d="M5.74 9.49 L5.74 6.93 C5.74 6.79 5.65833 6.67 5.495 6.57 C5.33167 6.47 5.13333 6.42 4.9 6.42 L2.38 6.42 L2.38 3.86 L0.7 3.86 L0.7 10 L4.9 10 C5.13333 10 5.33167 9.95 5.495 9.85 C5.65833 9.75 5.74 9.63 5.74 9.49 L5.74 9.49 Z M2.38 8.97 L2.38 7.44 L4.06 7.44 L4.06 8.97 L2.38 8.97 Z" id="GlSovietX-Expanded69"/>
  <path d="M4.65 5.04 C4.79667 5.08667 4.925 5.12833 5.035 5.165 C5.145 5.20167 5.23 5.23667 5.29 5.27 C5.41667 5.33667 5.55667 5.46333 5.71 5.65 L5.71 8.06 C5.67 8.14 5.63 8.20833 5.59 8.265 C5.55 8.32167 5.49833 8.37333 5.435 8.42 C5.37167 8.46667 5.29 8.51 5.19 8.55 C5.09 8.59 4.96667 8.63 4.82 8.67 L4.03 8.67 L4.03 10 L2.41 10 L2.41 8.67 L1.62 8.67 C1.36667 8.55667 1.17333 8.46 1.04 8.38 C0.906667 8.3 0.783333 8.19333 0.67 8.06 L0.67 5.72 C0.75 5.60667 0.825 5.51667 0.895 5.45 C0.965 5.38333 1.03 5.33 1.09 5.29 C1.15667 5.25 1.24333 5.21 1.35 5.17 C1.45667 5.13 1.58667 5.08667 1.74 5.04 L2.46 5.04 L2.46 3.86 L3.98 3.86 L3.98 5.04 L4.65 5.04 L4.65 5.04 Z M2.35 7.82 L4.03 7.82 L4.03 5.89 L2.35 5.89 L2.35 7.82 Z" id="GlSovietX-Expanded82"/>
  <path d="M0.39 6.43 L4.87 6.43 L4.87 7.62 L0.39 7.62 L0.39 6.43 Z" id="GlSovietX-Expanded16"/>
  <path d="M4.51 3.86 C4.72333 3.89333 4.9 3.93 5.04 3.97 C5.18 4.01 5.28333 4.05333 5.35 4.1 C5.48333 4.22 5.60333 4.40667 5.71 4.66 L5.71 9.22 C5.56333 9.49333 5.42333 9.67 5.29 9.75 C5.23 9.78333 5.12833 9.82167 4.985 9.865 C4.84167 9.90833 4.65333 9.95333 4.42 10 L0.7 10 L0.7 3.86 L4.51 3.86 L4.51 3.86 Z M2.38 4.89 L2.38 8.97 L4.06 8.97 L4.06 4.89 L2.38 4.89 Z" id="GlSovietX-Expanded71"/>
  <path d="M2.38 7.44 L0.7 10 L2.38 10 L4.06 7.44 L4.06 10 L5.74 10 L5.74 3.86 L1.54 3.86 C1.30667 3.86 1.10833 3.91 0.945 4.01 C0.781667 4.11 0.7 4.23 0.7 4.37 L0.7 6.93 C0.7 7.07 0.781667 7.19 0.945 7.29 C1.10833 7.39 1.30667 7.44 1.54 7.44 L2.38 7.44 L2.38 7.44 Z M2.38 6.42 L2.38 4.89 L4.06 4.89 L4.06 6.42 L2.38 6.42 Z" id="GlSovietX-Expanded85"/>
  <path d="M5.74 9.52 C5.74 9.65333 5.65667 9.76667 5.49 9.86 C5.32333 9.95333 5.12667 10 4.9 10 L1.54 10 C1.30667 10 1.10833 9.95 0.945 9.85 C0.781667 9.75 0.7 9.63 0.7 9.49 L0.7 3.86 L2.38 3.86 L2.38 8.97 L4.06 8.97 L4.06 3.86 L5.74 3.86 L5.74 9.52 Z" id="GlSovietX-Expanded88"/>
  <path d="M4.06 3.86 L3.22 5.91 L2.38 3.86 L0.7 3.86 L0.7 10 L2.38 10 L2.38 6.93 L3.22 7.44 L4.06 6.93 L4.06 10 L5.74 10 L5.74 3.86 L4.06 3.86 Z" id="GlSovietX-Expanded80"/>
  <path d="M5.74 5.91 L5.74 7.38 L2.38 7.38 L2.38 8.97 L4.06 8.97 L4.06 7.95 L5.74 7.95 L5.74 9.49 C5.74 9.63 5.65833 9.75 5.495 9.85 C5.33167 9.95 5.13333 10 4.9 10 L1.54 10 C1.30667 10 1.10833 9.95 0.945 9.85 C0.781667 9.75 0.7 9.63 0.7 9.49 L0.7 4.37 C0.7 4.23 0.781667 4.11 0.945 4.01 C1.10833 3.91 1.30667 3.86 1.54 3.86 L4.9 3.86 C5.13333 3.86 5.33167 3.91 5.495 4.01 C5.65833 4.11 5.74 4.23 5.74 4.37 L5.74 5.91 L5.74 5.91 Z M4.06 6.48 L4.06 4.89 L2.38 4.89 L2.38 6.48 L4.06 6.48 Z" id="GlSovietX-Expanded72"/>
  <path d="M4.06 3.86 L5.74 3.86 L5.74 10 L4.06 10 L4.06 7.44 L2.38 7.44 L2.38 10 L0.7 10 L0.7 3.86 L2.38 3.86 L2.38 6.42 L4.06 6.42 L4.06 3.86 Z" id="GlSovietX-Expanded75"/>
  <path d="M4.03 4.63 L2.35 4.63 L2.35 8.33 L4.03 8.33 L4.03 4.63 L4.03 4.63 Z M0.67 3.85 L5.74 3.85 L5.74 10 L4.14 10 L4.14 9.35 L2.35 9.35 L2.35 10 L0.67 10 L0.67 3.85 Z" id="GlSovietX-Expanded68"/>
  <path d="M1.54 3.86 C1.30667 3.86 1.10833 3.91 0.945 4.01 C0.781667 4.11 0.7 4.23 0.7 4.37 L0.7 10 L2.41 10 L2.41 4.88 L4.06 4.88 L4.06 10 L5.74 10 L5.74 4.37 C5.74 4.23 5.65833 4.11 5.495 4.01 C5.33167 3.91 5.13333 3.86 4.9 3.86 L1.54 3.86 Z" id="GlSovietX-Expanded81"/>
  <path d="M2.41 3.86 L2.41 10 L0.73 10 L0.73 3.86 L2.41 3.86 Z" id="GlSovietX-Expanded76"/>
  <path d="M5.74 3.86 L5.74 4.89 L2.38 8.97 L4.06 8.97 L4.06 7.95 L5.74 7.95 L5.74 10 L0.7 10 L0.7 8.97 L4.06 4.89 L2.38 4.89 L2.38 5.91 L0.7 5.91 L0.7 3.86 L5.74 3.86 Z" id="GlSovietX-Expanded93"/>
  <path d="" id="GlSovietX-Expanded3"/>
  <path d="M4.03 4.9 L4.03 10 L2.41 10 L2.41 4.9 L0.78 4.9 L0.78 3.86 L5.66 3.86 L5.66 4.9 L4.03 4.9 Z" id="GlSovietX-Expanded87"/>
  <path d="M0.7 3.86 L0.7 4.89 L4.06 8.97 L2.38 8.97 L2.38 7.95 L0.7 7.95 L0.7 10 L5.74 10 L5.74 8.97 L2.38 4.89 L4.06 4.89 L4.06 5.91 L5.74 5.91 L5.74 3.86 L0.7 3.86 Z" id="GlSovietX-Expanded86"/>
  <path d="M5.74 4.37 L5.74 6.93 C5.74 7.07 5.65833 7.19 5.495 7.29 C5.33167 7.39 5.13333 7.44 4.9 7.44 L2.38 7.44 L2.38 10 L0.7 10 L0.7 3.86 L4.9 3.86 C5.13333 3.86 5.33167 3.91 5.495 4.01 C5.65833 4.11 5.74 4.23 5.74 4.37 L5.74 4.37 Z M2.38 4.89 L2.38 6.42 L4.06 6.42 L4.06 4.89 L2.38 4.89 Z" id="GlSovietX-Expanded83"/>
  <path d="M3.05 7.38 L3.05 7.79 L0.7 7.79 L0.7 4.37 C0.7 4.23 0.781667 4.11 0.945 4.01 C1.10833 3.91 1.30667 3.86 1.54 3.86 L2.3 3.86 C2.8 3.86 3.05 4.04333 3.05 4.41 L3.05 7.38 L3.05 7.38 Z M0.7 8.47 L3.05 8.47 L3.05 10.09 L0.7 10.09 L0.7 8.47 Z" id="GlSovietX-Expanded4"/>
 </defs>
 <g id="Background" inkscape:label="Background" inkscape:groupmode="layer">
  <g transform="translate(0, 0)">
   <path d="M0 0 L260.787 0 L260.787 26.9291 L0 26.9291 L0 0 Z" style="fill:#307272; fill-rule:evenodd;"/>
   <use xlink:href="#GlSovietX-Expanded70" transform="matrix(3.36 0 0 2.8 2.385 -6.328)" style="fill:#94ffef;stroke:none;"/>
   <use xlink:href="#GlSovietX-Expanded92" transform="matrix(3.36 0 0 2.8 23.985 -6.328)" style="fill:#94ffef;stroke:none;"/>
   <use xlink:href="#GlSovietX-Expanded69" transform="matrix(3.36 0 0 2.8 45.585 -6.328)" style="fill:#94ffef;stroke:none;"/>
   <use xlink:href="#GlSovietX-Expanded82" transform="matrix(3.36 0 0 2.8 67.185 -6.328)" style="fill:#94ffef;stroke:none;"/>
   <use xlink:href="#GlSovietX-Expanded16" transform="matrix(3.36 0 0 2.8 88.785 -6.328)" style="fill:#94ffef;stroke:none;"/>
   <use xlink:href="#GlSovietX-Expanded71" transform="matrix(3.36 0 0 2.8 106.665 -6.328)" style="fill:#94ffef;stroke:none;"/>
   <use xlink:href="#GlSovietX-Expanded85" transform="matrix(3.36 0 0 2.8 128.265 -6.328)" style="fill:#94ffef;stroke:none;"/>
   <use xlink:href="#GlSovietX-Expanded88" transform="matrix(3.36 0 0 2.8 149.865 -6.328)" style="fill:#94ffef;stroke:none;"/>
   <use xlink:href="#GlSovietX-Expanded80" transform="matrix(3.36 0 0 2.8 171.465 -6.328)" style="fill:#94ffef;stroke:none;"/>
   <use xlink:href="#GlSovietX-Expanded80" transform="matrix(3.36 0 0 2.8 193.065 -6.328)" style="fill:#94ffef;stroke:none;"/>
   <use xlink:href="#GlSovietX-Expanded72" transform="matrix(3.36 0 0 2.8 214.665 -6.328)" style="fill:#94ffef;stroke:none;"/>
   <use xlink:href="#GlSovietX-Expanded85" transform="matrix(3.36 0 0 2.8 236.265 -6.328)" style="fill:#94ffef;stroke:none;"/>
   <path d="M0 0 L260.787 0 L260.787 26.9291 L0 26.9291 L0 0 Z" style="fill:none; stroke-width:1px; stroke-linecap:butt; stroke-linejoin:miter; stroke-dasharray:none; stroke:#ffffff;"/>
  </g>
  <g transform="translate(-0.510236, 26.9291)">
   <use xlink:href="#GlSovietX-Expanded75" transform="matrix(1.4808 0 0 1.2 0 -2.712)" style="fill:#efa131;stroke:none;"/>
   <use xlink:href="#GlSovietX-Expanded88" transform="matrix(1.4808 0 0 1.2 9.5018 -2.712)" style="fill:#efa131;stroke:none;"/>
   <use xlink:href="#GlSovietX-Expanded80" transform="matrix(1.4808 0 0 1.2 19.0036 -2.712)" style="fill:#efa131;stroke:none;"/>
   <use xlink:href="#GlSovietX-Expanded68" transform="matrix(1.4808 0 0 1.2 28.5054 -2.712)" style="fill:#efa131;stroke:none;"/>
   <use xlink:href="#GlSovietX-Expanded81" transform="matrix(1.4808 0 0 1.2 38.0072 -2.712)" style="fill:#efa131;stroke:none;"/>
   <use xlink:href="#GlSovietX-Expanded76" transform="matrix(1.4808 0 0 1.2 47.509 -2.712)" style="fill:#efa131;stroke:none;"/>
   <use xlink:href="#GlSovietX-Expanded93" transform="matrix(1.4808 0 0 1.2 52.0748 -2.712)" style="fill:#efa131;stroke:none;"/>
   <use xlink:href="#GlSovietX-Expanded72" transform="matrix(1.4808 0 0 1.2 61.5766 -2.712)" style="fill:#efa131;stroke:none;"/>
   <use xlink:href="#GlSovietX-Expanded3" transform="matrix(1.4808 0 0 1.2 71.0784 -2.712)" style="fill:#efa131;stroke:none;"/>
   <use xlink:href="#GlSovietX-Expanded87" transform="matrix(1.4808 0 0 1.2 75.7676 -2.712)" style="fill:#efa131;stroke:none;"/>
   <use xlink:href="#GlSovietX-Expanded75" transform="matrix(1.4808 0 0 1.2 85.2694 -2.712)" style="fill:#efa131;stroke:none;"/>
   <use xlink:href="#GlSovietX-Expanded82" transform="matrix(1.4808 0 0 1.2 94.7712 -2.712)" style="fill:#efa131;stroke:none;"/>
   <use xlink:href="#GlSovietX-Expanded86" transform="matrix(1.4808 0 0 1.2 104.273 -2.712)" style="fill:#efa131;stroke:none;"/>
   <use xlink:href="#GlSovietX-Expanded72" transform="matrix(1.4808 0 0 1.2 113.775 -2.712)" style="fill:#efa131;stroke:none;"/>
   <use xlink:href="#GlSovietX-Expanded3" transform="matrix(1.4808 0 0 1.2 123.277 -2.712)" style="fill:#efa131;stroke:none;"/>
   <use xlink:href="#GlSovietX-Expanded71" transform="matrix(1.4808 0 0 1.2 127.966 -2.712)" style="fill:#efa131;stroke:none;"/>
   <use xlink:href="#GlSovietX-Expanded85" transform="matrix(1.4808 0 0 1.2 137.468 -2.712)" style="fill:#efa131;stroke:none;"/>
   <use xlink:href="#GlSovietX-Expanded88" transform="matrix(1.4808 0 0 1.2 146.969 -2.712)" style="fill:#efa131;stroke:none;"/>
   <use xlink:href="#GlSovietX-Expanded80" transform="matrix(1.4808 0 0 1.2 156.471 -2.712)" style="fill:#efa131;stroke:none;"/>
   <use xlink:href="#GlSovietX-Expanded3" transform="matrix(1.4808 0 0 1.2 165.973 -2.712)" style="fill:#efa131;stroke:none;"/>
   <use xlink:href="#GlSovietX-Expanded70" transform="matrix(1.4808 0 0 1.2 170.662 -2.712)" style="fill:#efa131;stroke:none;"/>
   <use xlink:href="#GlSovietX-Expanded82" transform="matrix(1.4808 0 0 1.2 180.164 -2.712)" style="fill:#efa131;stroke:none;"/>
   <use xlink:href="#GlSovietX-Expanded80" transform="matrix(1.4808 0 0 1.2 189.666 -2.712)" style="fill:#efa131;stroke:none;"/>
   <use xlink:href="#GlSovietX-Expanded83" transform="matrix(1.4808 0 0 1.2 199.168 -2.712)" style="fill:#efa131;stroke:none;"/>
   <use xlink:href="#GlSovietX-Expanded88" transform="matrix(1.4808 0 0 1.2 208.669 -2.712)" style="fill:#efa131;stroke:none;"/>
   <use xlink:href="#GlSovietX-Expanded87" transform="matrix(1.4808 0 0 1.2 218.171 -2.712)" style="fill:#efa131;stroke:none;"/>
   <use xlink:href="#GlSovietX-Expanded72" transform="matrix(1.4808 0 0 1.2 227.673 -2.712)" style="fill:#efa131;stroke:none;"/>
   <use xlink:href="#GlSovietX-Expanded85" transform="matrix(1.4808 0 0 1.2 237.175 -2.712)" style="fill:#efa131;stroke:none;"/>
   <use xlink:href="#GlSovietX-Expanded86" transform="matrix(1.4808 0 0 1.2 246.677 -2.712)" style="fill:#efa131;stroke:none;"/>
   <use xlink:href="#GlSovietX-Expanded4" transform="matrix(1.4808 0 0 1.2 256.178 -2.712)" style="fill:#efa131;stroke:none;"/>
   <path d="M0 0 L268.157 0 L268.157 11.622 L0 11.622 L0 0 Z" style="fill:none; stroke:none;"/>
  </g>
 </g>
</svg>
